<svg width="1248" height="800" viewBox="0 0 1248 800" fill="none" xmlns="http://www.w3.org/2000/svg">
<path d="M741.89 29H631.11C630.02 29 628.975 28.4732 628.204 27.5355C627.433 26.5978 627 25.3261 627 24C627 22.6739 627.433 21.4021 628.204 20.4645C628.975 19.5268 630.02 19 631.11 19H741.89C742.98 19 744.025 19.5268 744.796 20.4645C745.567 21.4021 746 22.6739 746 24V24C746 25.3261 745.567 26.5978 744.796 27.5355C744.025 28.4732 742.98 29 741.89 29V29Z" stroke="#B2B2B2" stroke-width="0.973653" stroke-miterlimit="10"/>
<path d="M741.89 43H631.11C630.02 43 628.975 42.5786 628.204 41.8284C627.433 41.0783 627 40.0609 627 39C627 37.9391 627.433 36.9217 628.204 36.1716C628.975 35.4214 630.02 35 631.11 35H741.89C742.98 35 744.025 35.4214 744.796 36.1716C745.567 36.9217 746 37.9391 746 39C746 40.0609 745.567 41.0783 744.796 41.8284C744.025 42.5786 742.98 43 741.89 43Z" stroke="#B2B2B2" stroke-width="0.973653" stroke-miterlimit="10"/>
<path d="M1024.81 45.9297C1024.85 41.2312 1026.05 36.6138 1028.31 32.4793C1030.56 28.3447 1033.8 24.8182 1037.74 22.2066C1041.69 19.5949 1046.22 17.9773 1050.93 17.4943C1055.65 17.0114 1060.42 17.6778 1064.82 19.4356C1068.04 12.9746 1073.21 7.66084 1079.6 4.22399C1086 0.787136 1093.31 -0.604287 1100.54 0.240796C1107.77 1.08588 1114.55 4.12602 1119.97 8.94376C1125.38 13.7615 1129.15 20.1206 1130.77 27.1478C1138.78 27.4079 1146.36 30.8094 1151.84 36.604C1157.32 42.3986 1160.25 50.1117 1159.98 58.0465C1159.72 65.9813 1156.29 73.4877 1150.44 78.9145C1144.59 84.3413 1136.8 87.244 1128.79 86.9839H1032.45C1027.43 86.9805 1022.58 85.2369 1018.72 82.0559C1014.87 78.8748 1012.26 74.4573 1011.35 69.5707C1010.45 64.684 1011.3 59.6369 1013.75 55.3061C1016.21 50.9752 1020.13 47.6341 1024.81 45.8632V45.9297Z" fill="#E8E4E4"/>
<path d="M93.3993 659.547L87.569 659.133C87.5418 657.105 87.3509 655.084 86.9985 653.089L92.6479 651.532C92.8594 651.476 93.0579 651.377 93.232 651.241C93.4061 651.105 93.5523 650.936 93.6623 650.742C93.7722 650.548 93.8437 650.334 93.8726 650.111C93.9015 649.889 93.8872 649.663 93.8306 649.446L93.121 646.746C93.0067 646.309 92.7291 645.937 92.3486 645.709C91.9682 645.482 91.5156 645.418 91.0894 645.531L85.454 647.089C84.7809 645.185 83.9572 643.34 82.9911 641.574L87.8334 638.216C88.0151 638.091 88.1709 637.931 88.2917 637.744C88.4126 637.556 88.4961 637.346 88.5375 637.126C88.5789 636.905 88.5774 636.679 88.5329 636.459C88.4885 636.239 88.4021 636.03 88.2787 635.845L86.762 633.545C86.5137 633.171 86.1315 632.913 85.6988 632.827C85.2661 632.742 84.818 632.835 84.4522 633.087L79.596 636.402C78.3582 634.826 76.9995 633.355 75.5329 632.002L79.0533 627.215C79.3205 626.853 79.4369 626.397 79.3769 625.947C79.3169 625.497 79.0854 625.09 78.7333 624.815L76.5487 623.129C76.3744 622.995 76.1759 622.897 75.9646 622.841C75.7533 622.785 75.5333 622.773 75.3174 622.805C75.1015 622.837 74.8938 622.912 74.7063 623.027C74.5188 623.141 74.3552 623.293 74.2249 623.472L70.7045 628.258C69.037 627.165 67.2875 626.21 65.4726 625.401L67.2676 619.686C67.3369 619.472 67.364 619.247 67.3475 619.022C67.331 618.797 67.2712 618.578 67.1715 618.377C67.0718 618.177 66.9342 617.998 66.7668 617.853C66.5994 617.707 66.4054 617.597 66.1962 617.529L63.6081 616.657C63.1874 616.518 62.7299 616.555 62.336 616.761C61.9421 616.968 61.644 617.326 61.507 617.757L59.712 623.472C57.9966 623.053 56.252 622.771 54.494 622.629V616.7C54.494 616.476 54.4507 616.253 54.3667 616.046C54.2826 615.839 54.1593 615.651 54.0041 615.493C53.8489 615.335 53.6647 615.21 53.4622 615.125C53.2597 615.041 53.0429 614.998 52.8242 615H50.1109C49.8923 614.998 49.6755 615.041 49.473 615.125C49.2705 615.21 49.0863 615.335 48.9311 615.493C48.7758 615.651 48.6526 615.839 48.5685 616.046C48.4844 616.253 48.4411 616.476 48.4411 616.7V622.715C46.4751 622.882 44.5253 623.212 42.6109 623.701L40.7185 617.986C40.5702 617.561 40.2659 617.213 39.8707 617.015C39.4755 616.818 39.0207 616.787 38.6035 616.929L36.0154 617.843C35.5994 617.992 35.2578 618.304 35.0649 618.711C34.872 619.118 34.8435 619.587 34.9857 620.015L36.892 625.73C35.0888 626.535 33.3529 627.49 31.7019 628.587L28.098 623.858C27.831 623.504 27.4385 623.272 27.006 623.213C26.5735 623.154 26.1358 623.273 25.7881 623.544L23.6453 625.272C23.2974 625.552 23.0714 625.961 23.0166 626.411C22.9619 626.86 23.0829 627.314 23.3531 627.673L26.957 632.402C25.5201 633.797 24.1983 635.311 23.0052 636.931L18.0934 633.659C17.9108 633.536 17.7064 633.452 17.4921 633.411C17.2777 633.37 17.0575 633.373 16.8442 633.419C16.6309 633.466 16.4286 633.555 16.249 633.682C16.0693 633.809 15.9159 633.971 15.7975 634.159L14.3086 636.502C14.067 636.883 13.9826 637.347 14.0739 637.791C14.1653 638.236 14.4248 638.625 14.7956 638.874L19.6379 642.117C18.7019 643.902 17.9153 645.766 17.2863 647.689L11.6231 646.26C11.4111 646.205 11.1904 646.193 10.974 646.225C10.7575 646.258 10.5495 646.334 10.3619 646.45C10.1742 646.565 10.0108 646.718 9.88095 646.899C9.75112 647.079 9.65748 647.285 9.60544 647.503L8.93756 650.218C8.83219 650.657 8.9003 651.121 9.12708 651.509C9.35386 651.898 9.7209 652.178 10.1481 652.289L15.8253 653.718C15.5124 655.673 15.3542 657.651 15.3522 659.633C15.3522 659.633 15.3522 659.718 15.3522 659.761L9.52195 660.276C9.08245 660.319 8.67721 660.538 8.39351 660.886C8.10982 661.233 7.97038 661.681 8.00527 662.133L8.24183 664.99C8.28072 665.443 8.4931 665.861 8.8323 666.153C9.1715 666.445 9.60975 666.587 10.0507 666.548L15.8809 666.019C16.2351 668 16.7565 669.946 17.4394 671.834L12.0962 674.277C11.6927 674.461 11.3768 674.803 11.2177 675.226C11.0586 675.649 11.0693 676.119 11.2474 676.534L12.3605 679.092C12.5402 679.506 12.8724 679.83 13.2845 679.994C13.6965 680.157 14.1548 680.146 14.559 679.963L19.8884 677.52C20.8482 679.286 21.9415 680.973 23.1583 682.563L18.8308 686.664C18.67 686.816 18.5402 687 18.4488 687.204C18.3575 687.408 18.3065 687.629 18.2987 687.853C18.291 688.078 18.3266 688.302 18.4036 688.512C18.4806 688.722 18.5974 688.915 18.7474 689.078L20.598 691.121C20.7475 691.287 20.9275 691.42 21.1275 691.514C21.3275 691.608 21.5436 691.661 21.7634 691.669C21.9832 691.677 22.2024 691.64 22.4083 691.561C22.6143 691.482 22.8029 691.361 22.9635 691.207L27.1796 687.121C28.6381 688.484 30.2068 689.717 31.8688 690.807L29.0859 696.107C28.8797 696.509 28.8371 696.979 28.9676 697.412C29.098 697.846 29.3908 698.209 29.7816 698.422L32.1889 699.736C32.3812 699.843 32.5922 699.909 32.8097 699.931C33.0271 699.952 33.2466 699.929 33.4552 699.863C33.6638 699.796 33.8574 699.687 34.0247 699.543C34.1919 699.399 34.3294 699.222 34.4291 699.022L37.212 693.736C39.0147 694.525 40.8759 695.165 42.7779 695.65L41.8595 701.579C41.7952 702.028 41.9051 702.484 42.1653 702.85C42.4256 703.216 42.8154 703.463 43.251 703.537L45.9365 703.98C46.3738 704.049 46.8202 703.938 47.1776 703.67C47.5351 703.402 47.7743 703 47.8428 702.551L48.7612 696.622C49.6378 696.622 50.5144 696.722 51.405 696.722C52.5042 696.722 53.5896 696.722 54.661 696.565L55.6768 702.479C55.7105 702.705 55.7876 702.921 55.9035 703.115C56.0194 703.309 56.1719 703.477 56.3519 703.61C56.532 703.743 56.7361 703.838 56.9522 703.889C57.1684 703.94 57.3923 703.947 57.6109 703.908L60.2964 703.422C60.515 703.39 60.7251 703.312 60.9141 703.194C61.1031 703.077 61.2673 702.922 61.397 702.738C61.5267 702.554 61.6192 702.346 61.6692 702.125C61.7191 701.903 61.7255 701.674 61.6878 701.451L60.6721 695.55C62.5786 695.026 64.44 694.343 66.238 693.507L69.0209 698.765C69.2374 699.16 69.5976 699.451 70.0227 699.574C70.4478 699.698 70.9031 699.643 71.289 699.422L73.6684 697.993C73.8597 697.886 74.0284 697.741 74.1649 697.566C74.3014 697.391 74.4029 697.191 74.4637 696.976C74.5245 696.761 74.5433 696.535 74.519 696.313C74.4948 696.09 74.4279 695.875 74.3223 695.679L71.5394 690.436C73.1713 689.303 74.7115 688.037 76.1452 686.649L80.5004 690.664C80.6616 690.817 80.8511 690.936 81.0576 691.012C81.2641 691.089 81.4834 691.122 81.7027 691.11C81.9219 691.098 82.1366 691.041 82.334 690.942C82.5314 690.844 82.7076 690.705 82.852 690.536L84.6748 688.464C84.9689 688.126 85.1208 687.683 85.0973 687.23C85.0739 686.778 84.877 686.353 84.5496 686.049L80.2361 682.12C81.422 680.503 82.4828 678.793 83.4086 677.006L88.7796 679.263C89.1857 679.44 89.6434 679.444 90.0527 679.276C90.462 679.107 90.7897 678.779 90.9642 678.363L92.0356 675.777C92.2051 675.365 92.2112 674.902 92.0527 674.485C91.8941 674.069 91.5834 673.733 91.1869 673.548L85.8158 671.205C86.4428 669.288 86.9084 667.318 87.2073 665.319L93.0375 665.733C93.4783 665.765 93.9133 665.615 94.2472 665.318C94.581 665.021 94.7865 664.6 94.8185 664.147L94.9994 661.29C95.0107 660.841 94.8488 660.407 94.5491 660.08C94.2493 659.754 93.836 659.562 93.3993 659.547ZM51.4745 680.463C47.463 680.472 43.5392 679.258 40.1998 676.976C36.8603 674.694 34.2553 671.446 32.7144 667.643C31.1736 663.84 30.7661 659.653 31.5437 655.612C32.3212 651.572 34.2488 647.858 37.0824 644.943C39.9161 642.027 43.5284 640.041 47.4622 639.234C51.396 638.427 55.4745 638.837 59.1815 640.411C62.8884 641.986 66.0572 644.654 68.2868 648.078C70.5163 651.502 71.7064 655.528 71.7064 659.647C71.7064 665.16 69.5762 670.449 65.7832 674.351C61.9901 678.254 56.8442 680.452 51.4745 680.463V680.463Z" stroke="#B2B2B2" stroke-width="0.973653" stroke-miterlimit="10"/>
<path d="M145.954 689.535L142.132 689.256C142.106 687.964 141.98 686.676 141.756 685.403L145.454 684.398C145.598 684.361 145.734 684.295 145.852 684.204C145.97 684.113 146.069 683.998 146.142 683.868C146.214 683.737 146.26 683.593 146.276 683.444C146.291 683.295 146.276 683.145 146.232 683.002L145.76 681.271C145.721 681.127 145.655 680.992 145.563 680.875C145.472 680.758 145.358 680.66 145.228 680.589C145.098 680.517 144.955 680.472 144.807 680.458C144.66 680.443 144.511 680.458 144.37 680.503L140.686 681.494C140.242 680.276 139.703 679.095 139.073 677.962L142.243 675.812C142.483 675.65 142.65 675.399 142.707 675.114C142.765 674.83 142.708 674.533 142.549 674.29L141.548 672.811C141.468 672.691 141.365 672.588 141.246 672.508C141.126 672.428 140.992 672.373 140.851 672.346C140.71 672.319 140.565 672.32 140.425 672.349C140.284 672.379 140.151 672.436 140.033 672.517L136.849 674.667C136.043 673.664 135.155 672.73 134.194 671.875L136.502 668.804C136.589 668.689 136.652 668.558 136.688 668.418C136.724 668.278 136.731 668.132 136.711 667.989C136.69 667.846 136.641 667.709 136.567 667.585C136.493 667.462 136.395 667.354 136.279 667.268L134.889 666.193C134.658 666.019 134.368 665.944 134.082 665.983C133.796 666.022 133.537 666.173 133.36 666.403L131.081 669.53C129.989 668.842 128.845 668.24 127.661 667.729L128.843 664.085C128.888 663.947 128.906 663.801 128.895 663.656C128.884 663.51 128.844 663.369 128.778 663.239C128.712 663.109 128.621 662.994 128.511 662.899C128.4 662.805 128.272 662.734 128.134 662.689L126.438 662.145C126.301 662.095 126.156 662.073 126.011 662.082C125.865 662.09 125.723 662.128 125.593 662.194C125.463 662.259 125.348 662.35 125.254 662.462C125.16 662.573 125.09 662.703 125.048 662.843L123.852 666.5C122.733 666.232 121.594 666.05 120.447 665.956V662.103C120.449 661.959 120.422 661.816 120.368 661.682C120.315 661.548 120.235 661.426 120.134 661.324C120.033 661.221 119.913 661.14 119.781 661.084C119.648 661.029 119.506 661 119.363 661H117.569C117.426 661 117.284 661.029 117.151 661.084C117.019 661.14 116.899 661.221 116.798 661.324C116.697 661.426 116.617 661.548 116.564 661.682C116.51 661.816 116.483 661.959 116.485 662.103V665.942C115.196 666.05 113.918 666.26 112.663 666.57L111.425 662.941C111.379 662.804 111.305 662.679 111.21 662.571C111.115 662.464 110.999 662.376 110.87 662.314C110.74 662.252 110.6 662.216 110.457 662.208C110.314 662.201 110.17 662.222 110.035 662.27L108.353 662.857C108.217 662.902 108.09 662.975 107.982 663.07C107.873 663.165 107.784 663.281 107.721 663.411C107.658 663.541 107.621 663.683 107.612 663.827C107.604 663.972 107.624 664.116 107.672 664.253L108.923 667.883C107.742 668.412 106.604 669.033 105.518 669.739L103.196 666.738C103.108 666.625 102.999 666.53 102.874 666.459C102.749 666.389 102.612 666.344 102.469 666.327C102.327 666.31 102.183 666.322 102.046 666.361C101.908 666.4 101.779 666.467 101.667 666.556L100.277 667.659C100.163 667.747 100.068 667.856 99.9965 667.981C99.9251 668.106 99.879 668.243 99.8609 668.386C99.8428 668.529 99.853 668.674 99.8911 668.813C99.9292 668.952 99.9942 669.081 100.083 669.195L102.446 672.224C101.503 673.084 100.629 674.018 99.8324 675.016L96.6214 672.922C96.3778 672.764 96.0818 672.709 95.7979 672.769C95.514 672.829 95.2653 673 95.1062 673.243L94.1332 674.751C94.0561 674.872 94.0036 675.007 93.9786 675.148C93.9536 675.29 93.9568 675.435 93.9878 675.575C94.0188 675.715 94.0771 675.847 94.1593 675.965C94.2415 676.082 94.346 676.182 94.4668 676.259L97.6639 678.353C97.0624 679.5 96.5466 680.689 96.1209 681.913L92.4095 680.992C92.2663 680.945 92.115 680.929 91.9653 680.945C91.8156 680.96 91.6707 681.007 91.54 681.082C91.4092 681.157 91.2954 681.258 91.2058 681.38C91.1162 681.501 91.0528 681.64 91.0195 681.787L90.6441 683.49C90.5974 683.632 90.58 683.781 90.5929 683.929C90.6057 684.077 90.6487 684.221 90.719 684.351C90.7893 684.482 90.8855 684.597 91.0018 684.689C91.118 684.781 91.2517 684.848 91.3948 684.887L95.1062 685.822C94.9097 687.078 94.812 688.348 94.8143 689.619V689.689L90.9917 690.024C90.8491 690.036 90.7103 690.077 90.5834 690.143C90.4564 690.21 90.3438 690.301 90.2521 690.411C90.1603 690.521 90.0913 690.649 90.0488 690.786C90.0064 690.923 89.9914 691.068 90.0047 691.211L90.1576 692.998C90.1698 693.141 90.2102 693.28 90.2763 693.408C90.3424 693.535 90.433 693.648 90.5428 693.74C90.6527 693.833 90.7796 693.902 90.9163 693.945C91.053 693.987 91.1967 694.002 91.3392 693.989L95.1618 693.654C95.3797 694.934 95.7004 696.195 96.1209 697.423L92.6319 698.987C92.376 699.1 92.1744 699.31 92.0705 699.571C91.9665 699.832 91.9685 700.123 92.0759 700.383L92.7987 702.016C92.9145 702.271 93.1235 702.471 93.3824 702.575C93.6412 702.679 93.93 702.679 94.1888 702.575L97.6778 701.011C98.3035 702.147 99.0194 703.23 99.8185 704.25L97.0384 706.874C96.8388 707.083 96.7273 707.36 96.7273 707.649C96.7273 707.938 96.8388 708.216 97.0384 708.424L98.2616 709.736C98.4671 709.94 98.7443 710.054 99.0331 710.054C99.3219 710.054 99.599 709.94 99.8046 709.736L102.585 707.126C103.547 707.99 104.574 708.779 105.657 709.485L103.905 712.947C103.837 713.074 103.795 713.212 103.78 713.355C103.766 713.498 103.779 713.643 103.821 713.78C103.862 713.918 103.93 714.046 104.021 714.157C104.112 714.268 104.224 714.36 104.35 714.427L105.921 715.265C106.047 715.333 106.185 715.376 106.327 715.39C106.469 715.405 106.613 715.391 106.75 715.349C106.887 715.308 107.015 715.24 107.125 715.148C107.236 715.057 107.327 714.945 107.394 714.818L109.201 711.426C110.381 711.943 111.605 712.354 112.857 712.654L112.259 716.451C112.219 716.74 112.293 717.032 112.464 717.267C112.635 717.501 112.891 717.66 113.177 717.708L114.928 717.987C115.214 718.031 115.505 717.961 115.739 717.791C115.973 717.621 116.132 717.366 116.179 717.08L116.777 713.268C117.347 713.268 117.931 713.268 118.501 713.268C119.071 713.268 119.891 713.268 120.641 713.171L121.309 716.954C121.332 717.097 121.384 717.233 121.46 717.355C121.537 717.478 121.637 717.584 121.755 717.667C121.872 717.75 122.005 717.809 122.146 717.84C122.287 717.871 122.432 717.873 122.574 717.847L124.325 717.54C124.61 717.489 124.864 717.327 125.03 717.089C125.197 716.851 125.263 716.557 125.215 716.27L124.547 712.487C125.795 712.157 127.014 711.722 128.189 711.188L130.052 714.553C130.12 714.679 130.213 714.79 130.324 714.879C130.436 714.968 130.564 715.035 130.701 715.074C130.838 715.113 130.982 715.124 131.123 715.106C131.265 715.089 131.402 715.043 131.525 714.972L133.096 714.204C133.348 714.06 133.532 713.823 133.61 713.543C133.689 713.263 133.654 712.964 133.513 712.71L131.664 709.359C132.736 708.636 133.745 707.824 134.681 706.93L137.53 709.513C137.747 709.706 138.03 709.805 138.319 709.79C138.608 709.774 138.879 709.644 139.073 709.429L140.269 708.033C140.461 707.816 140.56 707.531 140.545 707.241C140.529 706.951 140.4 706.679 140.185 706.484L137.405 703.915C138.184 702.877 138.881 701.78 139.49 700.634L143.007 702.142C143.27 702.241 143.56 702.235 143.818 702.126C144.077 702.017 144.284 701.813 144.397 701.555L145.092 699.908C145.192 699.646 145.188 699.356 145.082 699.097C144.976 698.838 144.776 698.628 144.522 698.512L140.992 697.018C141.399 695.785 141.701 694.519 141.895 693.235L145.718 693.5C145.86 693.51 146.003 693.491 146.138 693.445C146.274 693.398 146.398 693.326 146.506 693.231C146.613 693.137 146.7 693.022 146.763 692.893C146.826 692.764 146.863 692.624 146.872 692.481L146.997 690.694C147.008 690.548 146.99 690.402 146.943 690.263C146.896 690.125 146.821 689.998 146.724 689.889C146.626 689.781 146.508 689.694 146.375 689.633C146.243 689.572 146.1 689.539 145.954 689.535ZM118.487 702.924C115.861 702.924 113.294 702.141 111.11 700.676C108.927 699.21 107.225 697.127 106.221 694.69C105.217 692.253 104.955 689.572 105.468 686.985C105.981 684.398 107.247 682.023 109.105 680.159C110.963 678.295 113.33 677.026 115.906 676.513C118.482 676.001 121.151 676.267 123.577 677.278C126.002 678.289 128.074 680 129.531 682.194C130.988 684.389 131.765 686.968 131.762 689.605C131.762 691.355 131.418 693.088 130.751 694.705C130.084 696.322 129.106 697.791 127.873 699.028C126.64 700.265 125.176 701.245 123.566 701.914C121.955 702.582 120.229 702.925 118.487 702.924Z" stroke="#B2B2B2" stroke-width="0.973653" stroke-miterlimit="10"/>
<path d="M647.189 777.982H634.062V774.395C634.062 774.343 634.052 774.292 634.032 774.244C634.012 774.196 633.983 774.152 633.947 774.116C633.91 774.079 633.867 774.05 633.819 774.03C633.771 774.01 633.72 774 633.668 774H619.336C619.285 774 619.233 774.01 619.186 774.03C619.138 774.05 619.094 774.079 619.058 774.116C619.021 774.152 618.992 774.196 618.972 774.244C618.953 774.292 618.942 774.343 618.942 774.395V777.982H614.822C614.606 777.982 614.398 778.068 614.245 778.22C614.091 778.372 614.003 778.578 614 778.795V799H648V778.817C648.003 778.709 647.984 778.601 647.945 778.499C647.905 778.398 647.846 778.306 647.77 778.228C647.695 778.15 647.604 778.089 647.505 778.046C647.405 778.004 647.297 777.982 647.189 777.982V777.982Z" stroke="#B2B2B2" stroke-width="0.973653" stroke-miterlimit="10"/>
<path d="M647.189 744.142H634.062V740.411C634.062 740.357 634.052 740.303 634.032 740.254C634.012 740.204 633.983 740.158 633.947 740.12C633.91 740.082 633.867 740.052 633.819 740.031C633.771 740.011 633.72 740 633.668 740H619.336C619.285 740 619.233 740.011 619.186 740.031C619.138 740.052 619.094 740.082 619.058 740.12C619.021 740.158 618.992 740.204 618.972 740.254C618.953 740.303 618.942 740.357 618.942 740.411V744.142H614.822C614.606 744.142 614.398 744.23 614.245 744.388C614.091 744.546 614.003 744.761 614 744.986V766H648V745.01C648.003 744.897 647.984 744.785 647.945 744.679C647.905 744.574 647.846 744.478 647.77 744.397C647.695 744.316 647.604 744.252 647.505 744.208C647.405 744.164 647.297 744.142 647.189 744.142V744.142Z" stroke="#B2B2B2" stroke-width="0.973653" stroke-miterlimit="10"/>
<path d="M610.557 462.368H552.226V499.582H610.557V462.368Z" fill="white"/>
<path d="M610.926 499.951H551.872V462H610.94L610.926 499.951ZM552.595 499.214H610.188V462.737H552.609L552.595 499.214Z" fill="#EBEBEB"/>
<path d="M610.557 462.368H552.226V469.403H610.557V462.368Z" fill="#A08DFA"/>
<path d="M610.926 469.779H551.872V462H610.94L610.926 469.779ZM552.595 469.042H610.188V462.737H552.609L552.595 469.042Z" fill="#EBEBEB"/>
<path d="M558.825 465.938C558.821 466.286 558.714 466.625 558.518 466.912C558.322 467.2 558.045 467.423 557.723 467.555C557.4 467.686 557.046 467.719 556.705 467.65C556.364 467.581 556.051 467.413 555.804 467.167C555.558 466.921 555.39 466.607 555.321 466.266C555.252 465.925 555.285 465.571 555.417 465.248C555.548 464.926 555.771 464.649 556.059 464.453C556.346 464.257 556.685 464.15 557.033 464.146C557.27 464.143 557.504 464.187 557.723 464.276C557.941 464.365 558.14 464.497 558.307 464.664C558.474 464.831 558.606 465.03 558.695 465.248C558.784 465.467 558.828 465.702 558.825 465.938Z" fill="#A6A6A6"/>
<path d="M566.058 465.937C566.058 466.287 565.955 466.629 565.76 466.92C565.566 467.212 565.289 467.438 564.966 467.572C564.643 467.706 564.287 467.741 563.943 467.673C563.6 467.605 563.285 467.436 563.037 467.189C562.79 466.941 562.621 466.626 562.553 466.283C562.485 465.939 562.52 465.583 562.654 465.26C562.788 464.937 563.014 464.66 563.306 464.466C563.597 464.272 563.939 464.168 564.289 464.168C564.758 464.168 565.208 464.354 565.54 464.686C565.872 465.018 566.058 465.468 566.058 465.937Z" fill="#EBEBEB"/>
<path d="M573.292 465.937C573.292 466.287 573.188 466.629 572.993 466.92C572.799 467.212 572.523 467.438 572.199 467.572C571.876 467.706 571.52 467.741 571.177 467.673C570.834 467.605 570.518 467.436 570.271 467.189C570.023 466.941 569.855 466.626 569.786 466.283C569.718 465.939 569.753 465.583 569.887 465.26C570.021 464.937 570.248 464.66 570.539 464.466C570.83 464.272 571.172 464.168 571.522 464.168C571.991 464.168 572.441 464.354 572.773 464.686C573.105 465.018 573.292 465.468 573.292 465.937Z" fill="white"/>
<path d="M562.291 483.316C562.325 481.433 563.098 479.638 564.443 478.319C565.787 476.999 567.596 476.26 569.48 476.26C571.112 476.258 572.699 476.797 573.992 477.794C574.216 477.983 574.36 478.25 574.395 478.541C574.431 478.833 574.355 479.126 574.184 479.364C574.001 479.594 573.736 479.744 573.445 479.784C573.154 479.824 572.859 479.75 572.621 479.578C571.725 478.859 570.606 478.478 569.457 478.502C568.146 478.506 566.886 479.01 565.933 479.91C565.031 480.814 564.524 482.039 564.525 483.316C564.524 483.951 564.65 484.579 564.896 485.164C565.141 485.749 565.501 486.279 565.955 486.723C566.907 487.626 568.168 488.132 569.48 488.139C570.628 488.156 571.746 487.773 572.643 487.055C572.885 486.894 573.178 486.827 573.466 486.868C573.755 486.909 574.018 487.054 574.206 487.276C574.377 487.516 574.45 487.812 574.41 488.103C574.37 488.395 574.221 488.661 573.992 488.846C572.695 489.851 571.098 490.391 569.457 490.38C567.575 490.378 565.769 489.637 564.428 488.315C563.087 486.994 562.32 485.199 562.291 483.316Z" fill="#EBEBEB"/>
<path d="M577.576 487.003C577.749 486.798 577.996 486.669 578.264 486.644C578.531 486.62 578.798 486.701 579.006 486.871C580.064 487.752 581.377 488.269 582.752 488.345C583.624 488.357 584.479 488.099 585.2 487.608C585.445 487.458 585.649 487.251 585.796 487.004C585.942 486.758 586.026 486.479 586.04 486.192C586.046 485.971 585.987 485.753 585.871 485.566C585.721 485.329 585.519 485.13 585.281 484.983C584.451 484.51 583.541 484.195 582.597 484.054H582.553C581.682 483.915 580.833 483.667 580.024 483.317C579.283 482.992 578.652 482.462 578.202 481.79C577.903 481.308 577.748 480.75 577.753 480.183C577.77 479.616 577.922 479.061 578.195 478.564C578.468 478.067 578.854 477.641 579.323 477.322C580.316 476.628 581.503 476.264 582.715 476.282C584.263 476.362 585.751 476.907 586.984 477.846C587.204 477.995 587.356 478.225 587.407 478.486C587.458 478.747 587.404 479.018 587.257 479.239C587.187 479.352 587.096 479.449 586.987 479.525C586.879 479.602 586.756 479.655 586.627 479.683C586.497 479.71 586.363 479.711 586.234 479.686C586.104 479.66 585.98 479.609 585.871 479.534C584.97 478.807 583.869 478.369 582.715 478.281C581.926 478.264 581.152 478.496 580.503 478.944C580.29 479.077 580.112 479.258 579.984 479.474C579.855 479.689 579.781 479.933 579.766 480.183C579.753 480.375 579.802 480.566 579.906 480.729C580.044 480.932 580.222 481.105 580.429 481.237C581.183 481.684 582.017 481.977 582.884 482.1H582.921C583.854 482.264 584.762 482.542 585.627 482.926C586.421 483.271 587.099 483.836 587.581 484.555C587.89 485.054 588.054 485.628 588.053 486.214C588.03 486.811 587.867 487.394 587.576 487.915C587.285 488.437 586.875 488.882 586.379 489.215C585.317 489.958 584.048 490.347 582.752 490.329C580.909 490.239 579.146 489.55 577.73 488.367C577.545 488.197 577.427 487.965 577.398 487.714C577.37 487.464 577.433 487.211 577.576 487.003Z" fill="#EBEBEB"/>
<path d="M590.457 487.003C590.63 486.798 590.877 486.669 591.145 486.644C591.412 486.62 591.679 486.701 591.887 486.871C592.942 487.752 594.253 488.269 595.626 488.345C596.5 488.357 597.357 488.099 598.081 487.608C598.324 487.457 598.528 487.249 598.674 487.003C598.821 486.756 598.905 486.478 598.922 486.192C598.925 485.971 598.864 485.753 598.745 485.566C598.595 485.329 598.393 485.13 598.155 484.983C597.325 484.51 596.415 484.195 595.471 484.054H595.434C594.563 483.915 593.714 483.667 592.905 483.317C592.163 482.994 591.531 482.464 591.084 481.79C590.782 481.308 590.624 480.751 590.626 480.183C590.646 479.616 590.798 479.062 591.071 478.565C591.344 478.069 591.73 477.643 592.197 477.322C593.19 476.628 594.377 476.264 595.589 476.282C597.137 476.362 598.625 476.907 599.858 477.846C600.079 477.994 600.232 478.224 600.285 478.485C600.337 478.746 600.284 479.017 600.138 479.239C600.068 479.352 599.975 479.45 599.866 479.526C599.758 479.602 599.634 479.656 599.504 479.683C599.374 479.711 599.24 479.712 599.109 479.686C598.979 479.661 598.855 479.609 598.745 479.534C597.844 478.807 596.743 478.369 595.589 478.281C594.8 478.264 594.026 478.496 593.377 478.944C593.164 479.077 592.986 479.258 592.858 479.474C592.729 479.689 592.654 479.933 592.639 480.183C592.63 480.375 592.679 480.565 592.779 480.729C592.919 480.934 593.1 481.107 593.31 481.237C594.062 481.683 594.894 481.976 595.758 482.1H595.795C596.728 482.262 597.637 482.54 598.501 482.926C599.297 483.271 599.978 483.836 600.463 484.555C600.772 485.054 600.935 485.628 600.934 486.214C600.91 486.812 600.745 487.395 600.453 487.916C600.161 488.438 599.75 488.883 599.253 489.215C598.191 489.959 596.922 490.349 595.626 490.329C593.785 490.241 592.024 489.552 590.612 488.367C590.423 488.199 590.303 487.966 590.275 487.715C590.246 487.463 590.311 487.21 590.457 487.003Z" fill="#EBEBEB"/>
<path d="M650.816 496.456H571.146V552.87H650.816V496.456Z" fill="white"/>
<path d="M651.192 553.238H570.777V496.087H651.192V553.238ZM571.515 552.501H650.454V496.824H571.515V552.501Z" fill="#EBEBEB"/>
<path d="M650.816 496.456H571.146V503.49H650.816V496.456Z" fill="#8DFACC"/>
<path d="M651.192 503.866H570.777V496.087H651.192V503.866ZM571.515 503.129H650.454V496.824H571.515V503.129Z" fill="#EBEBEB"/>
<path d="M577.753 500.025C577.753 500.375 577.649 500.717 577.454 501.008C577.26 501.299 576.984 501.526 576.66 501.66C576.337 501.794 575.981 501.829 575.638 501.76C575.294 501.692 574.979 501.524 574.732 501.276C574.484 501.029 574.316 500.713 574.247 500.37C574.179 500.027 574.214 499.671 574.348 499.348C574.482 499.024 574.709 498.748 575 498.553C575.291 498.359 575.633 498.255 575.983 498.255C576.215 498.255 576.445 498.301 576.66 498.39C576.875 498.479 577.07 498.609 577.234 498.773C577.399 498.938 577.529 499.133 577.618 499.348C577.707 499.562 577.753 499.792 577.753 500.025Z" fill="#A6A6A6"/>
<path d="M584.986 500.025C584.988 500.377 584.884 500.721 584.69 501.015C584.495 501.308 584.218 501.537 583.893 501.672C583.568 501.808 583.21 501.844 582.864 501.775C582.519 501.707 582.202 501.538 581.953 501.289C581.704 501.04 581.534 500.722 581.466 500.377C581.398 500.032 581.433 499.674 581.569 499.349C581.704 499.024 581.933 498.746 582.226 498.552C582.52 498.357 582.864 498.254 583.216 498.255C583.449 498.255 583.679 498.301 583.894 498.39C584.108 498.479 584.303 498.609 584.468 498.773C584.632 498.938 584.762 499.133 584.851 499.348C584.94 499.562 584.986 499.792 584.986 500.025Z" fill="#EBEBEB"/>
<path d="M592.22 500.025C592.221 500.377 592.118 500.721 591.924 501.014C591.729 501.307 591.452 501.536 591.128 501.672C590.803 501.807 590.446 501.844 590.1 501.776C589.755 501.708 589.438 501.539 589.189 501.291C588.939 501.043 588.769 500.726 588.7 500.382C588.631 500.037 588.666 499.679 588.8 499.354C588.934 499.029 589.162 498.751 589.454 498.555C589.747 498.36 590.091 498.255 590.443 498.255C590.676 498.254 590.906 498.299 591.122 498.388C591.338 498.476 591.533 498.606 591.699 498.771C591.864 498.935 591.995 499.131 592.084 499.346C592.173 499.561 592.22 499.792 592.22 500.025Z" fill="white"/>
<path d="M582.457 517.492H578.696V518.864H582.457V517.492Z" fill="#EBEBEB"/>
<path d="M610.749 517.492H585.2V518.864H610.749V517.492Z" fill="#EBEBEB"/>
<path d="M620.201 517.492H613.057V518.864H620.201V517.492Z" fill="#A08DFA"/>
<path d="M636.548 535.882H629.403V537.253H636.548V535.882Z" fill="#EBEBEB"/>
<path d="M634.108 517.492H621.757V518.864H634.108V517.492Z" fill="#A6A6A6"/>
<path d="M586.217 521.171H582.457V522.543H586.217V521.171Z" fill="#EBEBEB"/>
<path d="M605.454 521.171H588.872V522.543H605.454V521.171Z" fill="#A6A6A6"/>
<path d="M627.707 535.882H611.125V537.253H627.707V535.882Z" fill="#A6A6A6"/>
<path d="M600.514 532.202H585.2V533.574H600.514V532.202Z" fill="#A6A6A6"/>
<path d="M596.112 524.851H588.872V526.222H596.112V524.851Z" fill="#A08DFA"/>
<path d="M625.082 528.53H617.842V529.902H625.082V528.53Z" fill="#A6A6A6"/>
<path d="M622.649 524.851H598.214V526.222H622.649V524.851Z" fill="#A6A6A6"/>
<path d="M609.635 535.882H585.2V537.253H609.635V535.882Z" fill="#A08DFA"/>
<path d="M640.567 521.171H620.961V522.543H640.567V521.171Z" fill="#A08DFA"/>
<path d="M619.412 521.171H607.231V522.543H619.412V521.171Z" fill="#EBEBEB"/>
<path d="M636.253 524.851H624.072V526.222H636.253V524.851Z" fill="#EBEBEB"/>
<path d="M586.217 524.851H582.457V526.222H586.217V524.851Z" fill="#EBEBEB"/>
<path d="M582.457 528.53H578.696V529.902H582.457V528.53Z" fill="#A6A6A6"/>
<path d="M595.692 528.53H585.2V529.902H595.692V528.53Z" fill="#EBEBEB"/>
<path d="M599.364 539.561H588.872V540.932H599.364V539.561Z" fill="#EBEBEB"/>
<path d="M629.625 543.24H612.717V544.612H629.625V543.24Z" fill="#A08DFA"/>
<path d="M617.598 539.561H601.17V540.932H617.598V539.561Z" fill="#A08DFA"/>
<path d="M610.771 543.24H597.233V544.612H610.771V543.24Z" fill="#EBEBEB"/>
<path d="M640.567 539.561H619.523V540.932H640.567V539.561Z" fill="#A6A6A6"/>
<path d="M595.309 543.24H588.872V544.612H595.309V543.24Z" fill="#A6A6A6"/>
<path d="M620.201 532.202H602.041V533.574H620.201V532.202Z" fill="#EBEBEB"/>
<path d="M637.05 532.202H621.757V533.574H637.05V532.202Z" fill="#A08DFA"/>
<path d="M616.087 528.53H597.956V529.902H616.087V528.53Z" fill="#A08DFA"/>
<path d="M582.457 532.202H578.696V533.574H582.457V532.202Z" fill="#EBEBEB"/>
<path d="M582.457 535.882H578.696V537.253H582.457V535.882Z" fill="#EBEBEB"/>
<path d="M586.217 539.561H582.457V540.932H586.217V539.561Z" fill="#A6A6A6"/>
<path d="M586.217 543.24H582.457V544.612H586.217V543.24Z" fill="#EBEBEB"/>
<path d="M582.339 514.041L583.6 511.026C583.632 510.958 583.689 510.905 583.759 510.878C583.829 510.85 583.906 510.85 583.976 510.878C584.043 510.909 584.096 510.964 584.123 511.033C584.151 511.102 584.151 511.178 584.123 511.247L582.84 514.285C582.818 514.335 582.782 514.377 582.736 514.407C582.69 514.437 582.637 514.454 582.582 514.454C582.548 514.462 582.513 514.462 582.479 514.454C582.439 514.441 582.402 514.419 582.372 514.389C582.342 514.359 582.32 514.323 582.306 514.283C582.292 514.243 582.288 514.2 582.294 514.158C582.3 514.116 582.315 514.076 582.339 514.041Z" fill="#A08DFA"/>
<path d="M586.623 512.81L586.586 512.847L585.112 514.322C585.082 514.352 585.047 514.377 585.007 514.393C584.968 514.41 584.926 514.418 584.883 514.417C584.839 514.418 584.796 514.41 584.755 514.394C584.715 514.377 584.678 514.353 584.647 514.322C584.586 514.259 584.552 514.176 584.552 514.089C584.552 514.002 584.586 513.919 584.647 513.857L585.871 512.626L584.647 511.387C584.586 511.325 584.552 511.241 584.552 511.155C584.552 511.068 584.586 510.984 584.647 510.922C584.711 510.865 584.794 510.833 584.879 510.833C584.965 510.833 585.048 510.865 585.112 510.922L586.586 512.397H586.623V512.449V512.493V512.626C586.624 512.643 586.624 512.66 586.623 512.677C586.61 512.697 586.603 512.72 586.603 512.744C586.603 512.767 586.61 512.79 586.623 512.81Z" fill="#A08DFA"/>
<path d="M687.631 547.937H629.3V585.151H687.631V547.937Z" fill="white"/>
<path d="M688 585.512H628.932V547.569H688V585.512ZM629.669 584.775H687.263V548.306H629.669V584.775Z" fill="#EBEBEB"/>
<path d="M687.631 547.937H629.3V554.971H687.631V547.937Z" fill="#A08DFA"/>
<path d="M688 555.34H628.932V547.569H688V555.34ZM629.669 554.603H687.263V548.306H629.669V554.603Z" fill="#EBEBEB"/>
<path d="M635.929 551.506C635.93 551.858 635.827 552.202 635.633 552.495C635.439 552.788 635.162 553.017 634.837 553.153C634.513 553.289 634.155 553.325 633.81 553.257C633.465 553.189 633.147 553.021 632.898 552.772C632.649 552.524 632.479 552.208 632.41 551.863C632.341 551.518 632.375 551.16 632.51 550.835C632.644 550.51 632.872 550.232 633.164 550.036C633.456 549.841 633.8 549.736 634.152 549.736C634.385 549.735 634.616 549.78 634.831 549.869C635.047 549.957 635.243 550.088 635.408 550.252C635.573 550.416 635.704 550.612 635.794 550.827C635.883 551.042 635.929 551.273 635.929 551.506Z" fill="#A6A6A6"/>
<path d="M643.132 551.506C643.132 551.856 643.029 552.198 642.834 552.489C642.64 552.78 642.363 553.007 642.04 553.141C641.717 553.275 641.361 553.31 641.018 553.242C640.674 553.173 640.359 553.005 640.112 552.757C639.864 552.51 639.696 552.194 639.627 551.851C639.559 551.508 639.594 551.152 639.728 550.829C639.862 550.505 640.089 550.229 640.38 550.035C640.671 549.84 641.013 549.736 641.363 549.736C641.596 549.735 641.826 549.78 642.041 549.869C642.256 549.958 642.452 550.088 642.616 550.252C642.781 550.417 642.911 550.612 643 550.828C643.088 551.043 643.133 551.273 643.132 551.506Z" fill="#EBEBEB"/>
<path d="M650.366 551.506C650.366 551.856 650.262 552.198 650.068 552.489C649.873 552.78 649.597 553.007 649.273 553.141C648.95 553.275 648.594 553.31 648.251 553.242C647.908 553.173 647.592 553.005 647.345 552.757C647.097 552.51 646.929 552.194 646.861 551.851C646.792 551.508 646.827 551.152 646.961 550.829C647.095 550.505 647.322 550.229 647.613 550.035C647.904 549.84 648.246 549.736 648.596 549.736C648.829 549.735 649.06 549.78 649.275 549.869C649.49 549.958 649.685 550.088 649.85 550.252C650.014 550.417 650.145 550.612 650.233 550.828C650.322 551.043 650.367 551.273 650.366 551.506Z" fill="white"/>
<path d="M640.19 568.885C640.227 567.002 641 565.208 642.344 563.889C643.689 562.57 645.496 561.83 647.38 561.829C649.018 561.817 650.613 562.357 651.907 563.362C652.12 563.552 652.253 563.815 652.28 564.099C652.307 564.383 652.226 564.667 652.052 564.893C651.878 565.119 651.625 565.271 651.343 565.318C651.062 565.365 650.773 565.304 650.535 565.147C649.644 564.425 648.526 564.041 647.38 564.063C646.067 564.069 644.807 564.576 643.855 565.478C643.404 565.924 643.046 566.455 642.801 567.039C642.555 567.624 642.427 568.251 642.425 568.885C642.423 569.521 642.549 570.15 642.795 570.736C643.04 571.323 643.401 571.854 643.855 572.299C644.808 573.199 646.068 573.702 647.38 573.707C648.525 573.729 649.642 573.348 650.535 572.631C650.778 572.468 651.072 572.4 651.361 572.44C651.651 572.479 651.915 572.623 652.106 572.844C652.278 573.083 652.354 573.377 652.317 573.669C652.28 573.961 652.133 574.227 651.907 574.415C650.611 575.415 649.017 575.952 647.38 575.941C645.494 575.947 643.682 575.21 642.336 573.889C640.99 572.568 640.22 570.77 640.19 568.885Z" fill="#EBEBEB"/>
<path d="M658.986 570.124H656.199C655.913 570.124 655.639 570.01 655.437 569.809C655.235 569.607 655.122 569.333 655.122 569.047C655.124 568.762 655.238 568.488 655.439 568.286C655.64 568.083 655.913 567.967 656.199 567.963H658.986V565.243C658.984 565.096 659.011 564.949 659.066 564.813C659.121 564.677 659.203 564.553 659.307 564.448C659.411 564.344 659.534 564.261 659.67 564.205C659.806 564.149 659.952 564.121 660.099 564.122C660.396 564.122 660.681 564.24 660.892 564.45C661.102 564.66 661.22 564.945 661.22 565.243V567.963H664C664.285 567.967 664.558 568.083 664.759 568.286C664.96 568.488 665.074 568.762 665.076 569.047C665.076 569.333 664.963 569.607 664.761 569.809C664.559 570.01 664.285 570.124 664 570.124H661.22V572.845C661.22 573.142 661.102 573.427 660.892 573.637C660.681 573.847 660.396 573.965 660.099 573.965C659.952 573.966 659.806 573.938 659.67 573.882C659.534 573.826 659.411 573.743 659.307 573.639C659.203 573.534 659.121 573.41 659.066 573.274C659.011 573.138 658.984 572.992 658.986 572.845V570.124Z" fill="#EBEBEB"/>
<path d="M671.137 570.124H668.372C668.086 570.124 667.813 570.01 667.611 569.809C667.409 569.607 667.295 569.333 667.295 569.047C667.297 568.762 667.411 568.488 667.612 568.286C667.814 568.083 668.086 567.967 668.372 567.963H671.159V565.243C671.157 565.096 671.185 564.949 671.24 564.813C671.295 564.677 671.377 564.553 671.48 564.448C671.584 564.344 671.707 564.261 671.843 564.205C671.979 564.149 672.125 564.121 672.272 564.122C672.569 564.124 672.853 564.242 673.063 564.452C673.273 564.662 673.391 564.946 673.393 565.243V567.963H676.173C676.459 567.967 676.731 568.083 676.933 568.286C677.134 568.488 677.248 568.762 677.25 569.047C677.25 569.333 677.136 569.607 676.934 569.809C676.732 570.01 676.458 570.124 676.173 570.124H673.393V572.845C673.391 573.141 673.273 573.425 673.063 573.635C672.853 573.845 672.569 573.963 672.272 573.965C672.125 573.966 671.979 573.938 671.843 573.882C671.707 573.826 671.584 573.743 671.48 573.639C671.377 573.534 671.295 573.41 671.24 573.274C671.185 573.138 671.157 572.992 671.159 572.845L671.137 570.124Z" fill="#EBEBEB"/>
<path d="M678.326 486.111H638.591V500.821H678.326V486.111Z" fill="#455A64"/>
<path d="M644.327 496.522V489.997C644.326 489.916 644.341 489.836 644.372 489.761C644.402 489.687 644.447 489.619 644.504 489.562C644.561 489.505 644.629 489.46 644.704 489.429C644.779 489.399 644.859 489.384 644.939 489.385C645.02 489.384 645.101 489.399 645.176 489.429C645.251 489.46 645.319 489.505 645.377 489.561C645.434 489.618 645.48 489.686 645.511 489.761C645.542 489.836 645.559 489.916 645.559 489.997V492.651H648.419V489.997C648.418 489.916 648.434 489.836 648.464 489.761C648.494 489.687 648.539 489.619 648.596 489.562C648.654 489.505 648.721 489.46 648.796 489.429C648.871 489.399 648.951 489.384 649.031 489.385C649.112 489.384 649.193 489.399 649.268 489.429C649.343 489.46 649.411 489.505 649.469 489.561C649.527 489.618 649.572 489.686 649.603 489.761C649.635 489.836 649.651 489.916 649.651 489.997V496.522C649.65 496.603 649.633 496.682 649.601 496.756C649.57 496.83 649.524 496.897 649.466 496.953C649.409 497.009 649.341 497.053 649.266 497.083C649.192 497.113 649.112 497.128 649.031 497.127C648.951 497.129 648.871 497.115 648.797 497.085C648.722 497.055 648.654 497.011 648.597 496.955C648.54 496.898 648.495 496.831 648.464 496.757C648.434 496.682 648.418 496.603 648.419 496.522V493.868H645.559V496.522C645.558 496.603 645.541 496.682 645.509 496.756C645.478 496.83 645.432 496.897 645.374 496.953C645.317 497.009 645.249 497.053 645.174 497.083C645.099 497.113 645.02 497.128 644.939 497.127C644.859 497.129 644.779 497.115 644.704 497.085C644.63 497.055 644.562 497.011 644.505 496.955C644.447 496.898 644.402 496.831 644.372 496.757C644.341 496.682 644.326 496.603 644.327 496.522Z" fill="white"/>
<path d="M656.906 490.616H655.144V496.515C655.145 496.595 655.13 496.674 655.1 496.747C655.07 496.821 655.025 496.888 654.969 496.945C654.913 497.001 654.846 497.045 654.772 497.076C654.698 497.106 654.619 497.121 654.539 497.12C654.378 497.12 654.224 497.056 654.109 496.943C653.994 496.83 653.929 496.676 653.927 496.515V490.616H652.15C652.07 490.615 651.99 490.598 651.917 490.567C651.843 490.535 651.776 490.489 651.72 490.432C651.663 490.374 651.619 490.306 651.589 490.232C651.56 490.157 651.545 490.077 651.546 489.997C651.544 489.917 651.558 489.837 651.587 489.762C651.617 489.687 651.661 489.619 651.718 489.562C651.774 489.505 651.842 489.46 651.916 489.429C651.99 489.399 652.07 489.384 652.15 489.385H656.877C656.957 489.385 657.036 489.401 657.11 489.432C657.184 489.462 657.25 489.508 657.307 489.564C657.363 489.621 657.407 489.689 657.437 489.763C657.467 489.837 657.482 489.917 657.481 489.997C657.482 490.154 657.422 490.305 657.316 490.42C657.209 490.535 657.063 490.605 656.906 490.616Z" fill="white"/>
<path d="M665.997 489.997V496.522C665.994 496.684 665.927 496.838 665.811 496.951C665.695 497.064 665.54 497.127 665.378 497.127C665.298 497.128 665.219 497.113 665.144 497.083C665.07 497.053 665.003 497.009 664.946 496.952C664.889 496.896 664.844 496.829 664.813 496.755C664.782 496.682 664.766 496.602 664.766 496.522V491.862L663.173 494.074C663.119 494.155 663.045 494.22 662.959 494.265C662.873 494.31 662.777 494.333 662.679 494.332C662.58 494.334 662.482 494.311 662.393 494.266C662.304 494.221 662.228 494.155 662.171 494.074L660.585 491.862V496.522C660.585 496.685 660.521 496.84 660.406 496.955C660.291 497.07 660.136 497.134 659.973 497.134C659.811 497.134 659.655 497.07 659.541 496.955C659.426 496.84 659.361 496.685 659.361 496.522V489.997C659.361 489.836 659.425 489.681 659.538 489.567C659.651 489.452 659.805 489.387 659.966 489.385H660.003C660.099 489.385 660.193 489.409 660.278 489.454C660.363 489.499 660.435 489.564 660.489 489.643L662.701 492.695L664.914 489.643C664.968 489.562 665.042 489.497 665.128 489.452C665.214 489.407 665.31 489.384 665.408 489.385C665.564 489.396 665.711 489.464 665.82 489.577C665.929 489.69 665.992 489.84 665.997 489.997Z" fill="white"/>
<path d="M668.674 496.522V489.997C668.674 489.836 668.738 489.681 668.851 489.567C668.964 489.452 669.118 489.387 669.279 489.385C669.442 489.385 669.598 489.449 669.714 489.564C669.83 489.678 669.896 489.834 669.898 489.997V495.895H672.899C673.062 495.895 673.217 495.96 673.332 496.075C673.447 496.19 673.511 496.345 673.511 496.507C673.511 496.67 673.447 496.825 673.332 496.94C673.217 497.055 673.062 497.119 672.899 497.119H669.279C669.12 497.119 668.967 497.057 668.854 496.945C668.741 496.833 668.676 496.681 668.674 496.522Z" fill="white"/>
<path d="M577.745 533.773H545V548.483H577.745V533.773Z" fill="#455A64"/>
<path d="M554.74 541.788H553.384V544.184C553.367 544.336 553.295 544.476 553.181 544.578C553.068 544.68 552.921 544.736 552.768 544.736C552.615 544.736 552.468 544.68 552.355 544.578C552.241 544.476 552.169 544.336 552.152 544.184V537.659C552.154 537.498 552.22 537.344 552.334 537.231C552.449 537.117 552.603 537.054 552.764 537.054H554.74C555.051 537.054 555.359 537.115 555.646 537.234C555.933 537.353 556.194 537.527 556.414 537.747C556.634 537.967 556.808 538.228 556.927 538.515C557.046 538.802 557.107 539.11 557.107 539.421C557.107 539.732 557.046 540.039 556.927 540.327C556.808 540.614 556.634 540.875 556.414 541.094C556.194 541.314 555.933 541.489 555.646 541.608C555.359 541.726 555.051 541.788 554.74 541.788ZM553.384 540.556H554.74C554.898 540.569 555.056 540.549 555.205 540.497C555.354 540.446 555.491 540.364 555.607 540.257C555.723 540.15 555.816 540.02 555.879 539.876C555.942 539.731 555.975 539.575 555.975 539.417C555.975 539.259 555.942 539.103 555.879 538.959C555.816 538.814 555.723 538.684 555.607 538.577C555.491 538.47 555.354 538.388 555.205 538.337C555.056 538.285 554.898 538.265 554.74 538.278H553.384V540.556Z" fill="white"/>
<path d="M558.604 544.184V537.659C558.604 537.496 558.668 537.341 558.783 537.226C558.898 537.111 559.054 537.047 559.216 537.047C559.378 537.047 559.534 537.111 559.649 537.226C559.764 537.341 559.828 537.496 559.828 537.659V540.313H562.696V537.659C562.695 537.578 562.71 537.499 562.741 537.424C562.771 537.35 562.817 537.283 562.874 537.226C562.931 537.17 562.999 537.125 563.073 537.096C563.148 537.066 563.228 537.052 563.308 537.054C563.389 537.053 563.468 537.068 563.543 537.098C563.618 537.128 563.686 537.172 563.743 537.228C563.801 537.284 563.847 537.351 563.878 537.425C563.91 537.499 563.927 537.578 563.928 537.659V544.184C563.928 544.265 563.912 544.345 563.88 544.42C563.849 544.495 563.803 544.563 563.746 544.619C563.688 544.676 563.62 544.721 563.545 544.752C563.47 544.782 563.389 544.797 563.308 544.796C563.228 544.797 563.148 544.782 563.073 544.752C562.998 544.721 562.93 544.676 562.873 544.619C562.816 544.562 562.771 544.494 562.741 544.419C562.71 544.345 562.695 544.265 562.696 544.184V541.567H559.828V544.221C559.828 544.383 559.764 544.539 559.649 544.654C559.534 544.768 559.378 544.833 559.216 544.833C559.054 544.833 558.898 544.768 558.783 544.654C558.668 544.539 558.604 544.383 558.604 544.221V544.184Z" fill="white"/>
<path d="M569.037 541.788H567.673V544.184C567.671 544.347 567.605 544.503 567.489 544.617C567.373 544.732 567.217 544.796 567.054 544.796C566.893 544.794 566.739 544.729 566.626 544.614C566.513 544.5 566.449 544.345 566.449 544.184V537.659C566.449 537.498 566.513 537.344 566.626 537.231C566.74 537.118 566.893 537.054 567.054 537.054H569.037C569.348 537.054 569.656 537.115 569.943 537.234C570.23 537.353 570.491 537.527 570.711 537.747C570.931 537.967 571.105 538.228 571.224 538.515C571.343 538.802 571.404 539.11 571.404 539.421C571.404 539.732 571.343 540.039 571.224 540.327C571.105 540.614 570.931 540.875 570.711 541.094C570.491 541.314 570.23 541.489 569.943 541.608C569.656 541.726 569.348 541.788 569.037 541.788ZM567.673 540.556H569.037C569.195 540.569 569.353 540.549 569.502 540.497C569.651 540.446 569.788 540.364 569.904 540.257C570.02 540.15 570.113 540.02 570.176 539.876C570.239 539.731 570.272 539.575 570.272 539.417C570.272 539.259 570.239 539.103 570.176 538.959C570.113 538.814 570.02 538.684 569.904 538.577C569.788 538.47 569.651 538.388 569.502 538.337C569.353 538.285 569.195 538.265 569.037 538.278H567.673V540.556Z" fill="white"/>
<path d="M65 131.669V121.341L59.6804 120.845C58.9665 117.441 57.6191 114.202 55.7085 111.296L59.1231 107.174L51.8176 99.8732L47.6937 103.286C44.79 101.377 41.5516 100.034 38.1489 99.3264L37.6422 94H27.3071L26.8106 99.3264C23.4068 100.03 20.1677 101.374 17.2658 103.286L13.1317 99.8732L5.82619 107.174L9.24084 111.306C7.34877 114.212 6.01871 117.448 5.31956 120.845L0 121.341V131.669L5.31956 132.166C6.01813 135.556 7.34832 138.785 9.24084 141.684L5.82619 145.836L13.1317 153.137L17.2658 149.724C20.1699 151.632 23.4081 152.976 26.8106 153.684L27.3071 159H37.6422L38.1489 153.684C41.5502 152.972 44.7877 151.629 47.6937 149.724L51.8176 153.137L59.1231 145.836L55.7085 141.684C57.621 138.783 58.9685 135.546 59.6804 132.145L65 131.669ZM32.4747 140.489C29.7076 140.489 27.0026 139.669 24.7016 138.133C22.4007 136.597 20.6072 134.414 19.5478 131.859C18.4884 129.304 18.2107 126.493 18.7498 123.781C19.2889 121.068 20.6206 118.576 22.5766 116.62C24.5325 114.664 27.0249 113.331 29.7386 112.791C32.4523 112.25 35.2655 112.525 37.8225 113.582C40.3796 114.639 42.5657 116.43 44.1045 118.728C45.6433 121.027 46.4656 123.73 46.4677 126.495C46.469 128.332 46.108 130.152 45.4054 131.85C44.7028 133.547 43.6723 135.09 42.3728 136.39C41.0733 137.689 39.5303 138.72 37.8319 139.424C36.1335 140.127 34.3131 140.489 32.4747 140.489Z" fill="#E0E0E0"/>
<path d="M538.974 144.101L538.974 144.099L536.349 142.061V141.561H536.348H521.119C520.795 141.558 520.481 141.463 520.215 141.29C519.948 141.116 519.743 140.872 519.622 140.59L519.164 140.786L519.622 140.59C519.502 140.308 519.469 139.999 519.529 139.7C519.589 139.402 519.739 139.125 519.961 138.905C519.962 138.905 519.962 138.904 519.963 138.904L548.836 110.963L548.837 110.962C548.987 110.817 549.165 110.7 549.363 110.621C549.561 110.541 549.774 110.5 549.989 110.5C550.204 110.5 550.417 110.541 550.615 110.621C550.812 110.7 550.991 110.817 551.141 110.962L551.142 110.963L580.009 138.889L580.009 138.889L580.014 138.894C580.246 139.112 580.403 139.39 580.467 139.692C580.531 139.994 580.501 140.307 580.379 140.593C580.258 140.879 580.049 141.125 579.778 141.299C579.506 141.473 579.185 141.565 578.857 141.561H578.852L563.62 141.561L563.618 141.561C562.933 141.564 562.274 141.829 561.785 142.302C561.296 142.776 561.016 143.421 561.013 144.099V144.101V243.5H538.974L538.974 144.101Z" stroke="#E0E0E0"/>
<path d="M508.258 377.547L500 409.405L507.81 411.697L508.258 377.547Z" fill="white" stroke="#2E353A" stroke-linecap="round" stroke-linejoin="round"/>
<path d="M511.962 343.875C511.03 342.443 510.69 340.706 511.013 339.028C511.437 335.887 515.227 335.17 515.227 335.17C515.227 335.17 516.053 334.544 519.086 335.694C522.119 336.844 545.572 340.024 560.56 342.054C575.547 344.083 580.402 342.771 580.193 347.919C579.985 353.067 566.834 399.264 566.633 400.715C566.433 402.166 511.962 343.875 511.962 343.875Z" fill="white" stroke="#2E353A" stroke-miterlimit="10"/>
<path d="M575.003 352.423L511.956 343.876L501.768 419.03L564.815 427.576L575.003 352.423Z" fill="white" stroke="#2E353A" stroke-linecap="round" stroke-linejoin="round"/>
<path d="M563.284 367.414L566.95 367.915" stroke="#2E353A" stroke-width="0.5" stroke-linecap="round" stroke-linejoin="round"/>
<path d="M540.324 364.303L560.382 367.028" stroke="#2E353A" stroke-width="0.5" stroke-linecap="round" stroke-linejoin="round"/>
<path d="M516.014 361.008L537.423 363.91" stroke="#2E353A" stroke-width="0.5" stroke-linecap="round" stroke-linejoin="round"/>
<path d="M557.542 373.441L566.047 374.599" stroke="#2E353A" stroke-width="0.5" stroke-linecap="round" stroke-linejoin="round"/>
<path d="M515.111 367.691L548.844 372.26" stroke="#2E353A" stroke-width="0.5" stroke-linecap="round" stroke-linejoin="round"/>
<path d="M532.229 376.813L565.144 381.274" stroke="#2E353A" stroke-width="0.5" stroke-linecap="round" stroke-linejoin="round"/>
<path d="M514.2 374.367L528.84 376.358" stroke="#2E353A" stroke-width="0.5" stroke-linecap="round" stroke-linejoin="round"/>
<path d="M543.164 385.102L564.233 387.958" stroke="#2E353A" stroke-width="0.5" stroke-linecap="round" stroke-linejoin="round"/>
<path d="M525.283 382.671L540.749 384.77" stroke="#2E353A" stroke-width="0.5" stroke-linecap="round" stroke-linejoin="round"/>
<path d="M513.297 381.051L522.62 382.316" stroke="#2E353A" stroke-width="0.5" stroke-linecap="round" stroke-linejoin="round"/>
<path d="M555.791 393.615L563.331 394.633" stroke="#2E353A" stroke-width="0.5" stroke-linecap="round" stroke-linejoin="round"/>
<path d="M512.395 387.734L550.72 392.928" stroke="#2E353A" stroke-width="0.5" stroke-linecap="round" stroke-linejoin="round"/>
<path d="M541.111 398.423L562.427 401.317" stroke="#2E353A" stroke-width="0.5" stroke-linecap="round" stroke-linejoin="round"/>
<path d="M511.484 394.41L537.484 397.937" stroke="#2E353A" stroke-width="0.5" stroke-linecap="round" stroke-linejoin="round"/>
<path d="M547.695 406.125L561.517 407.992" stroke="#2E353A" stroke-width="0.5" stroke-linecap="round" stroke-linejoin="round"/>
<path d="M519.665 402.32L544.314 405.662" stroke="#2E353A" stroke-width="0.5" stroke-linecap="round" stroke-linejoin="round"/>
<path d="M510.581 401.093L516.762 401.927" stroke="#2E353A" stroke-width="0.5" stroke-linecap="round" stroke-linejoin="round"/>
<path d="M575.007 352.426C575.007 352.426 576.087 341.946 579.946 346.16" stroke="#2E353A" stroke-linecap="round" stroke-linejoin="round"/>
<path d="M553.629 433.159L553.56 439.82L549.678 434.34L534.096 381.93L538.048 380.75L553.629 433.159Z" fill="white" stroke="#2E353A" stroke-linecap="round" stroke-linejoin="round"/>
<path d="M536.501 382.989L534.345 383.618L549.655 436.11L551.811 435.481L536.501 382.989Z" fill="#7E69E9" stroke="#2E353A" stroke-width="0.5" stroke-linecap="round" stroke-linejoin="round"/>
<path d="M553.629 433.175L549.686 434.348L553.56 439.82L553.629 433.175Z" stroke="#2E353A" stroke-linecap="round" stroke-linejoin="round"/>
<path d="M551.623 437.08L553.56 439.82L553.599 436.493L551.623 437.08Z" fill="#2E353A" stroke="#2E353A" stroke-linecap="round" stroke-linejoin="round"/>
<path d="M534.328 375.471C533.805 375.628 533.365 375.986 533.105 376.466C532.845 376.946 532.785 377.509 532.938 378.033L534.096 381.93L538.047 380.757L536.89 376.86C536.733 376.337 536.375 375.897 535.895 375.637C535.415 375.377 534.852 375.317 534.328 375.471Z" fill="white" stroke="#2E353A" stroke-linecap="round" stroke-linejoin="round"/>
<path d="M534.328 375.471C533.805 375.628 533.365 375.986 533.105 376.466C532.845 376.946 532.785 377.509 532.938 378.033L533.494 379.893L537.438 378.72L536.89 376.86C536.733 376.337 536.375 375.897 535.895 375.637C535.415 375.377 534.852 375.317 534.328 375.471Z" fill="#2E353A" stroke="#2E353A" stroke-linecap="round" stroke-linejoin="round"/>
<path d="M839.284 751.097V758.967C839.284 759.256 839.173 759.534 838.974 759.739C838.775 759.944 838.506 760.061 838.224 760.064H720V771.947H838.224C838.506 771.949 838.775 772.066 838.974 772.271C839.173 772.477 839.284 772.754 839.284 773.043V780.903C839.284 781.12 839.346 781.332 839.464 781.512C839.582 781.693 839.749 781.833 839.945 781.917C840.14 782 840.356 782.021 840.563 781.979C840.771 781.937 840.962 781.832 841.112 781.678L855.664 766.776C855.77 766.679 855.854 766.56 855.912 766.427C855.97 766.294 856 766.151 856 766.005C856 765.86 855.97 765.716 855.912 765.583C855.854 765.45 855.77 765.332 855.664 765.235L841.112 750.322C840.962 750.168 840.771 750.063 840.563 750.021C840.356 749.979 840.14 750 839.945 750.084C839.749 750.167 839.582 750.307 839.464 750.488C839.346 750.668 839.284 750.88 839.284 751.097Z" fill="#EBEBEB"/>
<path d="M1190.83 463.761L1133.67 473.233L1121.27 395.025L1163.71 387.991L1180.8 400.457L1190.83 463.761Z" fill="#EBEBEB"/>
<path d="M1163.71 387.991L1180.8 400.457L1166.08 402.896L1163.71 387.991Z" fill="#BFC2C8"/>
<path d="M1129.25 409.213L1161.03 403.948L1160.72 401.942L1128.94 407.207L1129.25 409.213Z" fill="#BFC2C8"/>
<path d="M1130.05 414.287L1161.83 409.022L1161.52 407.015L1129.74 412.281L1130.05 414.287Z" fill="#BFC2C8"/>
<path d="M1130.87 419.349L1162.65 414.084L1162.33 412.077L1130.55 417.342L1130.87 419.349Z" fill="#BFC2C8"/>
<path d="M1131.67 424.416L1178.23 416.701L1177.92 414.695L1131.35 422.41L1131.67 424.416Z" fill="#BFC2C8"/>
<path d="M1132.47 429.481L1179.03 421.766L1178.71 419.76L1132.15 427.474L1132.47 429.481Z" fill="#BFC2C8"/>
<path d="M1133.27 434.555L1179.83 426.84L1179.51 424.833L1132.95 432.549L1133.27 434.555Z" fill="#BFC2C8"/>
<path d="M1134.08 439.627L1180.65 431.911L1180.33 429.904L1133.77 437.62L1134.08 439.627Z" fill="#BFC2C8"/>
<path d="M1134.88 444.691L1181.45 436.976L1181.13 434.969L1134.57 442.684L1134.88 444.691Z" fill="#BFC2C8"/>
<path d="M1135.68 449.766L1182.25 442.05L1181.93 440.043L1135.36 447.759L1135.68 449.766Z" fill="#BFC2C8"/>
<path d="M1136.49 454.828L1183.06 447.113L1182.74 445.107L1136.17 452.821L1136.49 454.828Z" fill="#BFC2C8"/>
<path d="M1137.29 459.893L1183.85 452.178L1183.54 450.172L1136.97 457.887L1137.29 459.893Z" fill="#BFC2C8"/>
<path d="M1138.1 464.965L1184.66 457.25L1184.34 455.244L1137.78 462.959L1138.1 464.965Z" fill="#BFC2C8"/>
<path d="M1245 734H1244V732.079H1245V734ZM1245 730.159H1244V728.238H1245V730.159ZM1245 726.317H1244V724.396H1245V726.317ZM1245 722.476H1244V720.561H1245V722.476ZM1245 718.64H1244V716.72H1245V718.64ZM1245 714.799H1244V712.878H1245V714.799ZM1245 710.957H1244V709.037H1245V710.957ZM1245 707.116H1244V705.201H1245V707.116ZM1245 703.28H1244V701.36H1245V703.28ZM1245 699.439H1244V697.518H1245V699.439ZM1245 695.598H1244V693.677H1245V695.598ZM1245 691.756H1244V689.841H1245V691.756ZM1245 687.921H1244V686H1245V687.921Z" fill="#EBEBEB"/>
<path d="M1242 737H1240.2V736H1242V737ZM1238.4 737H1236.6V736H1238.4V737ZM1234.8 737H1233V736H1234.8V737ZM1231.2 737H1229.4V736H1231.2V737ZM1227.6 737H1225.8V736H1227.6V737ZM1224 737H1222.2V736H1224V737ZM1220.4 737H1218.62V736H1220.42L1220.4 737ZM1216.8 737H1215V736H1216.8V737ZM1213.2 737H1211.4V736H1213.2V737ZM1209.6 737H1207.8V736H1209.6V737ZM1206 737H1204.2V736H1206V737ZM1202.4 737H1200.6V736H1202.4V737ZM1198.8 737H1197V736H1198.8V737Z" fill="#EBEBEB"/>
<path d="M1243 684H1241.2V683H1243V684ZM1239.4 684H1237.6V683H1239.4V684ZM1235.8 684H1234V683H1235.8V684ZM1232.2 684H1230.4V683H1232.2V684ZM1228.6 684H1226.8V683H1228.6V684ZM1225 684H1223.2V683H1225V684ZM1221.4 684H1219.62V683H1221.42L1221.4 684ZM1217.8 684H1216V683H1217.8V684ZM1214.2 684H1212.4V683H1214.2V684ZM1210.6 684H1208.8V683H1210.6V684ZM1207 684H1205.2V683H1207V684ZM1203.4 684H1201.6V683H1203.4V684ZM1199.8 684H1198V683H1199.8V684Z" fill="#EBEBEB"/>
<path d="M1195 737H1194V736H1194.67V736.333H1195V737Z" fill="#EBEBEB"/>
<path d="M1195 734H1194V732.079H1195V734ZM1195 730.159H1194V728.238H1195V730.159ZM1195 726.317H1194V724.396H1195V726.317ZM1195 722.476H1194V720.531H1195V722.476ZM1195 718.64H1194V716.72H1195V718.64ZM1195 714.799H1194V712.878H1195V714.799ZM1195 710.957H1194V709.037H1195V710.957ZM1195 707.116H1194V705.201H1195V707.116ZM1195 703.28H1194V701.36H1195V703.28ZM1195 699.439H1194V697.518H1195V699.439ZM1195 695.598H1194V693.677H1195V695.598ZM1195 691.756H1194V689.841H1195V691.756ZM1195 687.921H1194V686H1195V687.921Z" fill="#EBEBEB"/>
<path d="M1198 733H1191V740H1198V733Z" fill="white"/>
<path d="M1198 740H1191V733H1198V740ZM1191.87 739.131H1197.13V733.869H1191.87V739.131Z" fill="#B2B2B2"/>
<path d="M1198 707H1191V713H1198V707Z" fill="white"/>
<path d="M1198 714H1191V706H1198V714ZM1191.87 713.008H1197.13V706.992H1191.87V713.008Z" fill="#B2B2B2"/>
<path d="M1198 680H1191V687H1198V680Z" fill="white"/>
<path d="M1198 687H1191V680H1198V687ZM1191.87 686.132H1197.13V680.868H1191.87V686.132Z" fill="#B2B2B2"/>
<path d="M1248 733H1241V740H1248V733Z" fill="white"/>
<path d="M1248 740H1241V733H1248V740ZM1241.87 739.131H1247.13V733.869H1241.87V739.131Z" fill="#B2B2B2"/>
<path d="M1248 707H1241V713H1248V707Z" fill="white"/>
<path d="M1223 714H1216V706H1223V714ZM1216.87 713.008H1222.13V706.992H1216.87V713.008Z" fill="#B2B2B2"/>
<path d="M1248 714H1241V706H1248V714ZM1241.87 713.008H1247.13V706.992H1241.87V713.008Z" fill="#B2B2B2"/>
<path d="M1248 680H1241V687H1248V680Z" fill="white"/>
<path d="M1248 687H1241V680H1248V687ZM1241.87 686.132H1247.13V680.868H1241.87V686.132Z" fill="#B2B2B2"/>
<path d="M1223 680H1216V687H1223V680Z" fill="white"/>
<path d="M1223 687H1216V680H1223V687ZM1216.87 686.132H1222.13V680.868H1216.87V686.132Z" fill="#B2B2B2"/>
<path d="M1223 733H1216V740H1223V733Z" fill="white"/>
<path d="M1223 740H1216V733H1223V740ZM1216.87 739.131H1222.13V733.869H1216.87V739.131Z" fill="#B2B2B2"/>
</svg>
