<svg width="103" height="97" viewBox="0 0 103 97" fill="none" xmlns="http://www.w3.org/2000/svg">
<path d="M29.0014 29.255H28.4062V28.855H28.6046V28.655H29.0014V29.255Z" fill="#EBEBEB"/>
<path d="M27.6027 29.255H26.7992V28.855H27.6027V29.255ZM25.9957 29.255H25.1947V28.855H25.9957V29.255ZM24.3911 29.255H23.5876V28.855H24.3911V29.255ZM22.7841 29.255H21.9806V28.855H22.7841V29.255ZM21.1771 29.255H20.3735V28.855H21.1771V29.255ZM19.5725 29.255H18.769V28.855H19.5725V29.255ZM17.9655 29.255H17.1719V28.855H17.9754L17.9655 29.255ZM16.3584 29.255H15.5549V28.855H16.3584V29.255ZM14.7514 29.255H13.9479V28.855H14.7514V29.255ZM13.1468 29.255H12.3433V28.855H13.1468V29.255ZM11.5398 29.255H10.7363V28.855H11.5398V29.255ZM9.93274 29.255H9.12922V28.855H9.93274V29.255ZM8.3257 29.255H7.52466V28.855H8.3257V29.255Z" fill="#EBEBEB"/>
<path d="M6.72118 29.255H6.12598V28.655H6.52278V28.855H6.72118V29.255Z" fill="#EBEBEB"/>
<path d="M6.52278 27.8475H6.12598V27.0375H6.52278V27.8475ZM6.52278 26.2275H6.12598V25.4175H6.52278V26.2275ZM6.52278 24.6075H6.12598V23.7975H6.52278V24.6075ZM6.52278 22.9875H6.12598V22.1675H6.52278V22.9875ZM6.52278 21.37H6.12598V20.56H6.52278V21.37ZM6.52278 19.75H6.12598V18.94H6.52278V19.75ZM6.52278 18.13H6.12598V17.32H6.52278V18.13ZM6.52278 16.51H6.12598V15.7025H6.52278V16.51ZM6.52278 14.8925H6.12598V14.0825H6.52278V14.8925ZM6.52278 13.2725H6.12598V12.4625H6.52278V13.2725ZM6.52278 11.6525H6.12598V10.8425H6.52278V11.6525ZM6.52278 10.0325H6.12598V9.22501H6.52278V10.0325ZM6.52278 8.41501H6.12598V7.60501H6.52278V8.41501Z" fill="#EBEBEB"/>
<path d="M6.52278 6.79501H6.12598V6.19501H6.72118V6.59501H6.52278V6.79501Z" fill="#EBEBEB"/>
<path d="M27.6027 6.59501H26.7992V6.19501H27.6027V6.59501ZM25.9957 6.59501H25.1947V6.19501H25.9957V6.59501ZM24.3911 6.59501H23.5876V6.19501H24.3911V6.59501ZM22.7841 6.59501H21.9806V6.19501H22.7841V6.59501ZM21.1771 6.59501H20.3735V6.19501H21.1771V6.59501ZM19.5725 6.59501H18.769V6.19501H19.5725V6.59501ZM17.9655 6.59501H17.1719V6.19501H17.9754L17.9655 6.59501ZM16.3584 6.59501H15.5549V6.19501H16.3584V6.59501ZM14.7514 6.59501H13.9479V6.19501H14.7514V6.59501ZM13.1468 6.59501H12.3433V6.19501H13.1468V6.59501ZM11.5398 6.59501H10.7363V6.19501H11.5398V6.59501ZM9.93274 6.59501H9.12922V6.19501H9.93274V6.59501ZM8.3257 6.59501H7.52466V6.19501H8.3257V6.59501Z" fill="#EBEBEB"/>
<path d="M29.0014 6.79501H28.6046V6.59501H28.4062V6.19501H29.0014V6.79501Z" fill="#EBEBEB"/>
<path d="M29.0014 27.8475H28.6046V27.0375H29.0014V27.8475ZM29.0014 26.2275H28.6046V25.4175H29.0014V26.2275ZM29.0014 24.6075H28.6046V23.7975H29.0014V24.6075ZM29.0014 22.9875H28.6046V22.18H29.0014V22.9875ZM29.0014 21.37H28.6046V20.56H29.0014V21.37ZM29.0014 19.75H28.6046V18.94H29.0014V19.75ZM29.0014 18.13H28.6046V17.32H29.0014V18.13ZM29.0014 16.51H28.6046V15.7025H29.0014V16.51ZM29.0014 14.8925H28.6046V14.0825H29.0014V14.8925ZM29.0014 13.2725H28.6046V12.4625H29.0014V13.2725ZM29.0014 11.6525H28.6046V10.8425H29.0014V11.6525ZM29.0014 10.0325H28.6046V9.22501H29.0014V10.0325ZM29.0014 8.41501H28.6046V7.60501H29.0014V8.41501Z" fill="#EBEBEB"/>
<path d="M7.72562 27.645H4.92322V30.47H7.72562V27.645Z" fill="white"/>
<path d="M7.92145 30.6675H4.72473V27.445H7.92145V30.6675ZM5.12153 30.2675H7.52465V27.845H5.12153V30.2675Z" fill="#EBEBEB"/>
<path d="M7.72562 16.3125H4.92322V19.1375H7.72562V16.3125Z" fill="white"/>
<path d="M7.92145 19.3375H4.72473V16.1125H7.92145V19.3375ZM5.12153 18.9375H7.52465V16.5125H5.12153V18.9375Z" fill="#EBEBEB"/>
<path d="M7.72562 4.98251H4.92322V7.80751H7.72562V4.98251Z" fill="white"/>
<path d="M7.92145 8.0075H4.72473V4.7825H7.92145V8.0075ZM5.12153 7.6075H7.52465V5.1825H5.12153V7.6075Z" fill="#EBEBEB"/>
<path d="M30.2043 27.645H27.4019V30.47H30.2043V27.645Z" fill="white"/>
<path d="M30.4027 30.6675H27.2035V27.445H30.4027V30.6675ZM27.6003 30.2675H30.0059V27.845H27.6003V30.2675Z" fill="#EBEBEB"/>
<path d="M30.2043 16.3125H27.4019V19.1375H30.2043V16.3125Z" fill="white"/>
<path d="M30.4027 19.3375H27.2035V16.1125H30.4027V19.3375ZM27.6003 18.9375H30.0059V16.5125H27.6003V18.9375Z" fill="#EBEBEB"/>
<path d="M30.2043 4.98251H27.4019V7.80751H30.2043V4.98251Z" fill="white"/>
<path d="M30.4027 8.0075H27.2035V4.7825H30.4027V8.0075ZM27.6003 7.6075H30.0059V5.1825H27.6003V7.6075Z" fill="#EBEBEB"/>
<path d="M18.9649 4.98251H16.1625V7.80751H18.9649V4.98251Z" fill="white"/>
<path d="M19.1559 8.0075H15.9567V4.7825H19.1559V8.0075ZM16.3535 7.6075H18.7591V5.1825H16.3535V7.6075Z" fill="#EBEBEB"/>
<path d="M18.9649 27.645H16.1625V30.47H18.9649V27.645Z" fill="white"/>
<path d="M19.1559 30.6675H15.9567V27.445H19.1559V30.6675ZM16.3535 30.2675H18.7591V27.845H16.3535V30.2675Z" fill="#EBEBEB"/>
<path d="M23.8678 15.6675H23.4735C22.3575 12.2675 21.7152 10.87 19.8329 10.87H19.5849V24.5975H21.3432V25.035H13.7966V24.5975H15.5549V10.8625H15.287C13.4047 10.8625 12.7078 12.4175 11.6439 15.6675H11.2521L11.4678 10.4175H23.6769L23.8678 15.6675Z" fill="#EBEBEB"/>
<path d="M11.8622 62.925H5.29517V65.7225H11.8622V62.925Z" fill="#EBEBEB"/>
<path d="M46.1754 41.0825H39.6084V43.88H46.1754V41.0825Z" fill="#EBEBEB"/>
<path d="M8.19925 66.4525H1.6322V69.25H8.19925V66.4525Z" fill="#EBEBEB"/>
<path d="M100.168 66.4525H93.6006V69.25H100.168V66.4525Z" fill="#EBEBEB"/>
<path d="M96.5045 0H89.9375V2.7975H96.5045V0Z" fill="#EBEBEB"/>
<path d="M100.168 3.5275H93.6006V6.325H100.168V3.5275Z" fill="#EBEBEB"/>
<path d="M11.8622 0H5.29517V2.7975H11.8622V0Z" fill="#EBEBEB"/>
<path d="M100.165 21.1825H52.4921V23.245H100.165V21.1825Z" fill="#EBEBEB"/>
<path d="M59.4237 31.37H57.5686L56.8221 23.2475H59.4237V31.37Z" fill="#EBEBEB"/>
<path d="M93.236 31.37H95.0935L95.8375 23.2475H93.236V31.37Z" fill="#EBEBEB"/>
<path d="M56.8221 23.2475H59.4237V26.045H57.0776L56.8221 23.2475Z" fill="#BFC2C8"/>
<path d="M95.8375 23.2475L95.582 26.045H93.236V23.2475H95.8375Z" fill="#BFC2C8"/>
<path d="M69.7478 8.80502C67.6324 11.6925 65.4252 15.055 64.8895 18.665C64.8895 18.72 64.9689 18.7375 64.9813 18.685C65.224 17.6971 65.5364 16.728 65.9162 15.785C67.3075 15.3975 68.674 15.0825 69.4031 13.69C70.1471 12.26 70.0529 10.395 69.9115 8.83502C69.9115 8.75252 69.7999 8.74752 69.7478 8.80502Z" fill="#EBEBEB"/>
<path d="M65.9484 15.7575C66.8983 13.6075 68.1184 11.4475 69.6684 9.67999C69.6684 9.67999 69.6957 9.67999 69.6858 9.69749C68.7181 10.9574 67.868 12.3048 67.1463 13.7225C67.8456 13.0075 68.6144 12.365 69.2766 11.605C69.2779 11.6035 69.2795 11.6023 69.2813 11.6014C69.283 11.6006 69.2849 11.6001 69.2869 11.6C69.2888 11.5999 69.2908 11.6001 69.2927 11.6008C69.2945 11.6014 69.2962 11.6024 69.2977 11.6037C69.2991 11.6051 69.3003 11.6066 69.3012 11.6084C69.3021 11.6102 69.3026 11.6121 69.3027 11.6141C69.3028 11.6161 69.3025 11.6181 69.3019 11.6199C69.3012 11.6218 69.3002 11.6235 69.2989 11.625C68.6392 12.4225 67.92 13.2875 67.0669 13.875C66.8363 14.305 66.6056 14.7325 66.37 15.1625C66.4271 15.13 66.4866 15.1025 66.5461 15.0725C66.5461 15.0725 66.566 15.0725 66.5461 15.0875C66.4792 15.12 66.4147 15.155 66.3477 15.185C66.2361 15.3875 66.1245 15.5925 66.0104 15.795C65.9906 15.8425 65.9286 15.8025 65.9484 15.7575Z" fill="#A6A6A6"/>
<path d="M66.6553 15.0075C67.2242 14.6866 67.7674 14.3213 68.2797 13.915C68.2921 13.915 68.312 13.915 68.2996 13.935C67.8029 14.3671 67.2587 14.7404 66.6777 15.0475C66.6529 15.06 66.6281 15.0225 66.6553 15.0075Z" fill="#A6A6A6"/>
<path d="M64.6664 18.6325C64.6664 18.6775 64.7457 18.675 64.7432 18.6325C64.7556 17.4375 64.7432 16.24 64.7631 15.0425C65.0656 14.425 65.7179 14.085 66.1692 13.59C66.4952 13.2295 66.7782 12.8318 67.0124 12.405C67.5583 11.3872 67.8916 10.2675 67.992 9.11499C68.116 7.83999 67.6374 3.62999 67.1042 3.77499C66.8264 3.85249 65.9312 5.93749 65.6931 6.62499C65.3078 7.76343 65.0264 8.93496 64.8524 10.125C64.4184 12.9175 64.4556 15.8075 64.6664 18.6325Z" fill="#EBEBEB"/>
<path d="M64.6589 13.4875C64.7233 11.9875 65.0606 10.455 65.3756 8.9875C65.7178 7.41 66.1196 5.9275 66.9182 4.52C66.9219 4.51607 66.9268 4.51348 66.9321 4.51262C66.9374 4.51175 66.9429 4.51266 66.9477 4.5152C66.9524 4.51775 66.9562 4.52179 66.9585 4.52671C66.9608 4.53164 66.9614 4.53718 66.9603 4.5425C66.4236 5.6366 66.0078 6.78683 65.7203 7.9725C65.7749 7.8875 65.8394 7.8075 65.8964 7.7225C65.9187 7.69 65.9683 7.7225 65.9485 7.7525C65.878 7.87982 65.7949 7.9996 65.7005 8.11C65.4227 9.2375 65.2243 10.39 65.0532 11.54L65.0929 11.495C65.0929 11.495 65.1152 11.495 65.1102 11.51C65.1053 11.525 65.0656 11.585 65.0408 11.6225C64.9565 12.2075 64.8771 12.79 64.7928 13.3725C65.8498 12.5169 66.6777 11.4082 67.2009 10.1475C67.2009 10.1475 67.2133 10.1475 67.2009 10.1475C66.7049 11.485 65.9485 12.675 64.768 13.4875C64.7457 13.6425 64.7233 13.7975 64.7035 13.9525C64.7035 13.985 64.6465 13.9775 64.6465 13.9525C64.6465 13.815 64.6465 13.6775 64.6589 13.54C64.6548 13.537 64.6514 13.533 64.6491 13.5285C64.6468 13.5239 64.6456 13.5189 64.6456 13.5137C64.6456 13.5086 64.6468 13.5036 64.6491 13.499C64.6514 13.4945 64.6548 13.4905 64.6589 13.4875Z" fill="#A6A6A6"/>
<path d="M65.145 11.3C65.9492 10.1481 66.6521 8.92767 67.2456 7.6525C67.2456 7.6525 67.2753 7.6525 67.2704 7.6525C66.7992 8.99055 66.0927 10.2321 65.1847 11.3175C65.1648 11.3525 65.1276 11.325 65.145 11.3Z" fill="#A6A6A6"/>
<path d="M66.1915 7.36C66.5164 6.7775 66.8611 6.2125 67.1686 5.61C67.1686 5.595 67.2009 5.61 67.1934 5.625C66.9414 6.24213 66.6219 6.82907 66.2411 7.375C66.2373 7.37867 66.2326 7.38126 66.2275 7.3825C66.2224 7.38374 66.217 7.3836 66.212 7.38207C66.207 7.38055 66.2024 7.3777 66.1988 7.37382C66.1952 7.36994 66.1927 7.36518 66.1915 7.36Z" fill="#A6A6A6"/>
<path d="M64.0886 15.575C64.0722 16.3656 63.9792 17.1527 63.8108 17.925L63.848 18.175C64.0903 17.3225 64.2301 16.4437 64.2647 15.5575C64.2721 15.5451 64.276 15.5308 64.276 15.5163C64.276 15.5017 64.2721 15.4875 64.2647 15.475C64.2985 14.2865 64.2104 13.0977 64.0018 11.9275C63.6372 9.73501 62.8362 7.63 61.3184 5.9875C61.306 5.97665 61.2913 5.96884 61.2754 5.96467C61.2595 5.9605 61.2428 5.9601 61.2267 5.96348C61.2106 5.96687 61.1956 5.97396 61.1826 5.9842C61.1697 5.99444 61.1593 6.00755 61.1523 6.0225C60.5397 7.59 60.753 9.46251 61.2738 11.0225C61.5586 11.8758 61.9655 12.6827 62.4815 13.4175C63.0023 14.1475 63.6645 14.77 64.0886 15.575Z" fill="#EBEBEB"/>
<path d="M61.5043 6.7275C62.9402 9.0775 63.9397 11.865 64.0637 14.6425C64.0637 14.6925 63.9818 14.705 63.9769 14.6425C63.9422 14.3925 63.905 14.1425 63.8653 13.8925C63.2406 13.3354 62.6919 12.6974 62.2334 11.995C62.2334 11.995 62.2334 11.9675 62.2533 11.9775C62.7465 12.5921 63.2757 13.1765 63.838 13.7275C63.7355 13.1158 63.6123 12.5117 63.4685 11.915L63.3544 11.78C63.3296 11.75 63.3718 11.7075 63.399 11.7375L63.4313 11.775C63.2317 10.9589 62.9833 10.1558 62.6873 9.37C62.3227 8.93 61.9135 8.55 61.6482 8.02H61.6655C61.8813 8.3225 62.0871 8.6275 62.3302 8.9075C62.4269 9.02 62.5335 9.125 62.6352 9.235C62.3033 8.3828 61.9096 7.55639 61.4572 6.7625C61.456 6.75642 61.4565 6.75011 61.4587 6.74432C61.4609 6.73853 61.4647 6.7335 61.4697 6.72982C61.4746 6.72613 61.4805 6.72396 61.4867 6.72355C61.4928 6.72314 61.4989 6.72451 61.5043 6.7275Z" fill="#A6A6A6"/>
<path d="M61.7945 9.62748C62.2582 10.2575 62.7865 10.86 63.2205 11.51C63.2329 11.53 63.2056 11.5475 63.1907 11.5325C62.6379 10.9662 62.158 10.332 61.7622 9.64498C61.7498 9.62498 61.7796 9.60998 61.7945 9.62748Z" fill="#A6A6A6"/>
<path d="M63.285 11.6675L63.3049 11.6875C63.3173 11.7025 63.3049 11.725 63.2825 11.71L63.2627 11.69C63.2503 11.6675 63.2701 11.6425 63.285 11.6675Z" fill="#A6A6A6"/>
<path d="M59.0293 10.6525C59.1989 11.9661 59.724 13.2073 60.5471 14.24C60.8881 14.647 61.3107 14.9767 61.7871 15.2075C62.3178 15.4725 62.8758 15.78 63.4264 15.9975C63.6888 16.6696 63.884 17.3664 64.0091 18.0775L64.0612 17.8925C63.7091 14.83 61.7424 12.2125 59.2277 10.5325C59.2083 10.5154 59.1841 10.505 59.1585 10.5027C59.1329 10.5003 59.1072 10.5063 59.0851 10.5196C59.0631 10.533 59.0458 10.553 59.0357 10.5769C59.0257 10.6008 59.0235 10.6273 59.0293 10.6525Z" fill="#EBEBEB"/>
<path d="M59.8998 11.5575C59.88 11.5425 59.8998 11.51 59.9246 11.525C61.3058 12.561 62.4074 13.9293 63.1288 15.505C63.1461 15.5475 63.0891 15.585 63.0668 15.5425C62.9502 15.335 62.8312 15.135 62.7097 14.9375C62.1368 14.83 61.5912 14.4225 61.1671 14.035C61.1547 14.035 61.1671 14.0075 61.182 14.0175C61.4017 14.2194 61.6458 14.3925 61.9086 14.5325C62.1442 14.6525 62.4046 14.7275 62.6377 14.8225C62.4269 14.4825 62.2037 14.1575 61.9731 13.84C61.3498 13.6023 60.7648 13.2729 60.2371 12.8625C60.2222 12.8625 60.2371 12.8225 60.2545 12.835C60.7733 13.1503 61.308 13.4382 61.8565 13.6975C61.5069 13.2313 61.1292 12.7871 60.7257 12.3675C60.5297 12.265 60.3313 12.16 60.1429 12.0475C60.128 12.0475 60.1429 12.0125 60.1553 12.02C60.3123 12.075 60.4622 12.1488 60.6017 12.24C60.3834 12.01 60.1478 11.78 59.8998 11.5575Z" fill="#A6A6A6"/>
<path d="M59.9518 12.615C59.986 12.6355 60.0184 12.6589 60.0485 12.685C60.0485 12.685 60.0485 12.705 60.0361 12.7C60.001 12.6848 59.9677 12.6655 59.9369 12.6425C59.9196 12.6325 59.9345 12.605 59.9518 12.615Z" fill="#A6A6A6"/>
<path d="M67.1439 21.1825H61.9657L62.2187 17.7625L62.3179 16.645H66.7447L66.8414 17.7625L67.1439 21.1825Z" fill="#BFC2C8"/>
<path d="M66.8413 17.7625H62.2186L62.3178 16.645H66.7446L66.8413 17.7625Z" fill="#C7C7C7"/>
<path d="M67.0993 15.73H61.9657V16.875H67.0993V15.73Z" fill="#BFC2C8"/>
<path d="M79.7299 21.175V8.75H76.6249V21.175H79.7299Z" fill="#C7C7C7"/>
<path d="M79.7274 9.44999V8.08499H76.6225V9.44999H79.7274Z" fill="#BFC2C8"/>
<path d="M79.7274 11.71V11.2025H76.6225V11.71H79.7274Z" fill="#BFC2C8"/>
<path d="M79.7274 19.545V18.18H76.6225V19.545H79.7274Z" fill="#BFC2C8"/>
<path d="M81.8973 21.175V6.6825H79.7273V21.175H81.8973Z" fill="#BFC2C8"/>
<path d="M81.4535 13.62V8.04498H80.1515V13.62H81.4535Z" fill="#EBEBEB"/>
<path d="M97.3431 19.6063L87.1189 9.41769L85.5933 10.9734L95.8175 21.1619L97.3431 19.6063Z" fill="#C7C7C7"/>
<path d="M94.6414 17.5232L90.7084 13.6039L89.793 14.5373L93.7261 18.4566L94.6414 17.5232Z" fill="#BFC2C8"/>
<path d="M85.5778 21.18V10.17H81.895V21.18H85.5778Z" fill="#A6A6A6"/>
<path d="M85.5802 20.01V18.985H81.8974V20.01H85.5802Z" fill="#C7C7C7"/>
<path d="M85.5802 18.31V17.9125H81.8974V18.31H85.5802Z" fill="#C7C7C7"/>
<path d="M72.6019 21.1861L76.6495 11.6797L74.3113 10.6681L70.2637 20.1744L72.6019 21.1861Z" fill="#A6A6A6"/>
<path d="M73.0278 20.1776L73.4054 19.2909L71.0672 18.2792L70.6896 19.1659L73.0278 20.1776Z" fill="#C7C7C7"/>
<path d="M75.4349 14.5238L75.8125 13.637L73.4743 12.6253L73.0967 13.5121L75.4349 14.5238Z" fill="#C7C7C7"/>
<path d="M75.0273 15.4754L75.1741 15.1308L72.8359 14.1191L72.6892 14.4637L75.0273 15.4754Z" fill="#C7C7C7"/>
<path d="M82.128 49.715L67.7787 53.4975L62.9601 34.9275L73.6166 32.1175L77.3118 31.145L78.2294 34.6825L82.128 49.715Z" fill="#EBEBEB"/>
<path d="M65.2936 38.142L76.9834 35.0616L76.8598 34.5851L65.1701 37.6656L65.2936 38.142Z" fill="#BFC2C8"/>
<path d="M65.6096 39.3477L77.2993 36.2672L77.1758 35.7907L65.486 38.8712L65.6096 39.3477Z" fill="#BFC2C8"/>
<path d="M65.9201 40.549L77.6099 37.4685L77.4863 36.9921L65.7966 40.0725L65.9201 40.549Z" fill="#BFC2C8"/>
<path d="M66.2336 41.7528L77.9233 38.6723L77.7998 38.1958L66.11 41.2763L66.2336 41.7528Z" fill="#BFC2C8"/>
<path d="M66.5442 42.9566L78.2339 39.8762L78.1103 39.3997L66.4206 42.4802L66.5442 42.9566Z" fill="#BFC2C8"/>
<path d="M66.8577 44.1604L78.5475 41.0799L78.4239 40.6034L66.7342 43.6839L66.8577 44.1604Z" fill="#BFC2C8"/>
<path d="M67.1688 45.3642L78.8585 42.2837L78.735 41.8072L67.0452 44.8877L67.1688 45.3642Z" fill="#BFC2C8"/>
<path d="M67.4818 46.568L79.1715 43.4875L79.0479 43.011L67.3582 46.0915L67.4818 46.568Z" fill="#BFC2C8"/>
<path d="M67.7928 47.7718L79.4825 44.6913L79.359 44.2148L67.6692 47.2953L67.7928 47.7718Z" fill="#BFC2C8"/>
<path d="M68.1059 48.9731L79.7957 45.8926L79.6721 45.4162L67.9824 48.4966L68.1059 48.9731Z" fill="#BFC2C8"/>
<path d="M68.3682 49.7541L80.0883 46.7091L79.9661 46.2314L68.246 49.2764L68.3682 49.7541Z" fill="#BFC2C8"/>
<path d="M68.7323 51.3801L80.422 48.2996L80.2984 47.8231L68.6087 50.9036L68.7323 51.3801Z" fill="#BFC2C8"/>
<path d="M85.9398 55.0725L71.1292 55.9075L70.0653 36.7425L81.0616 36.1225L85.0792 39.56L85.9398 55.0725Z" fill="#EBEBEB"/>
<path d="M81.0616 36.1225L85.0793 39.56L81.265 39.775L81.0616 36.1225Z" fill="#BFC2C8"/>
<path d="M71.7195 40.3648L79.9526 39.9008L79.9254 39.4091L71.6922 39.8731L71.7195 40.3648Z" fill="#BFC2C8"/>
<path d="M71.7874 41.6082L80.0205 41.1441L79.9932 40.6524L71.7601 41.1164L71.7874 41.6082Z" fill="#BFC2C8"/>
<path d="M71.8599 42.8489L80.093 42.3849L80.0657 41.8931L71.8326 42.3571L71.8599 42.8489Z" fill="#BFC2C8"/>
<path d="M71.9273 44.0903L83.991 43.4104L83.9637 42.9187L71.9 43.5986L71.9273 44.0903Z" fill="#BFC2C8"/>
<path d="M71.9949 45.3311L84.0586 44.6512L84.0313 44.1595L71.9676 44.8394L71.9949 45.3311Z" fill="#BFC2C8"/>
<path d="M72.0626 46.5745L84.1263 45.8946L84.0991 45.4029L72.0354 46.0828L72.0626 46.5745Z" fill="#BFC2C8"/>
<path d="M72.1354 47.8177L84.1991 47.1378L84.1718 46.6461L72.1081 47.326L72.1354 47.8177Z" fill="#BFC2C8"/>
<path d="M72.2031 49.0585L84.2668 48.3786L84.2396 47.8869L72.1759 48.5668L72.2031 49.0585Z" fill="#BFC2C8"/>
<path d="M72.2707 50.3019L84.3345 49.622L84.3072 49.1302L72.2435 49.8102L72.2707 50.3019Z" fill="#BFC2C8"/>
<path d="M72.3411 51.5427L84.4048 50.8628L84.3775 50.3711L72.3138 51.051L72.3411 51.5427Z" fill="#BFC2C8"/>
<path d="M72.4088 52.7835L84.4725 52.1036L84.4453 51.6119L72.3815 52.2918L72.4088 52.7835Z" fill="#BFC2C8"/>
<path d="M72.4789 54.0268L84.5426 53.3469L84.5153 52.8551L72.4516 53.535L72.4789 54.0268Z" fill="#BFC2C8"/>
<path d="M0.687256 90.1075L13.241 90.0475L25.7948 90.025L50.8998 89.985L76.0049 90.025L88.5586 90.0475L101.112 90.1075L88.5586 90.17L76.0049 90.1925L50.8998 90.2325L25.7948 90.1925L13.241 90.17L0.687256 90.1075Z" fill="#263238"/>
<path d="M28.7411 33.4174C27.2135 29.9624 23.8977 27.6949 20.7109 28.5549C13.8736 30.3974 14.8036 40.8175 9.89315 47.555C3.96099 55.695 3.88908 62.5375 9.05243 63.53C14.8358 64.64 20.2397 58.3875 19.6247 45.2925C19.2403 37.1025 20.9539 34.2024 23.1537 33.5724C24.7707 33.1099 26.5761 35.0724 26.5761 35.0724L28.7411 33.4174Z" fill="#263238"/>
<path d="M19.5279 40.76C19.4957 42.0625 19.6098 43.3625 19.6767 44.66C19.7437 45.9575 19.8404 47.25 19.8801 48.5425C19.9273 49.8325 19.9099 51.1242 19.828 52.4125C19.7584 53.6936 19.5598 54.9643 19.2353 56.205C18.9315 57.4425 18.3943 58.6096 17.6531 59.6425C16.8642 60.6588 15.9068 61.53 14.8234 62.2175C13.7305 62.918 12.4925 63.3559 11.2051 63.4975C10.5565 63.5696 9.90142 63.5578 9.25579 63.4625C8.93197 63.4165 8.61199 63.3464 8.29851 63.2525C7.98062 63.1715 7.67582 63.0452 7.39331 62.8775C7.94733 63.2487 8.56975 63.5037 9.22355 63.6275C9.88084 63.7694 10.5533 63.8265 11.2249 63.7975C11.8979 63.7606 12.564 63.6422 13.2089 63.445C13.8551 63.2418 14.4766 62.9659 15.0615 62.6225C15.6444 62.2832 16.1941 61.8889 16.7032 61.445L17.0752 61.105L17.4348 60.7525C17.6756 60.513 17.9002 60.2574 18.1069 59.9875C18.9043 58.9032 19.4846 57.6728 19.8156 56.365C20.4902 53.7825 20.5075 51.115 20.3439 48.5275C20.262 47.225 20.1207 45.93 19.9644 44.6375C19.8082 43.345 19.6321 42.055 19.5279 40.76Z" fill="#263238"/>
<path d="M27.2432 31.4175C26.7023 30.697 26.0732 30.0486 25.3708 29.4875C24.6767 28.9457 23.8695 28.5701 23.0102 28.389C22.1509 28.208 21.262 28.2263 20.4108 28.4425C19.9855 28.5533 19.5705 28.7014 19.1708 28.885C18.7751 29.0597 18.3979 29.2742 18.0448 29.525C17.3613 30.055 16.7739 30.7004 16.3088 31.4325C15.8438 32.1826 15.4574 32.9794 15.1556 33.81C14.5183 35.475 14.0768 37.235 13.561 38.9775C13.0698 40.7416 12.4447 42.4651 11.6911 44.1325C10.8732 45.7663 9.93042 47.3336 8.87133 48.82C7.84957 50.32 6.78813 51.7775 5.97717 53.3775C5.55083 54.1663 5.22503 55.0063 5.00749 55.8775L4.86365 56.535C4.83389 56.7575 4.81901 56.9825 4.79669 57.205L4.77189 57.53V57.87L4.78677 58.5475C4.49165 56.7475 4.89341 54.865 5.66717 53.2125C6.44093 51.56 7.45525 50.0325 8.41997 48.505C9.38469 46.9775 10.3469 45.4575 11.0884 43.8325C11.8098 42.1893 12.4099 40.4947 12.884 38.7625C13.4097 37.035 13.8536 35.2625 14.5356 33.555C14.8683 32.6874 15.2897 31.857 15.793 31.0775C16.315 30.2938 16.9778 29.6155 17.7472 29.0775C18.1376 28.8189 18.5531 28.6011 18.9872 28.4275C19.415 28.2462 19.8583 28.1048 20.3116 28.005C21.2178 27.7968 22.1603 27.8093 23.0608 28.0415C23.9613 28.2737 24.7939 28.7188 25.4898 29.34C26.1693 29.9449 26.7597 30.6444 27.2432 31.4175Z" fill="#263238"/>
<path d="M30.0679 34.06C30.0679 33.4025 29.5719 32.56 29.1577 32.4625C28.7435 32.365 25.6386 33.7825 25.3906 34.5975C25.1426 35.4125 26.5463 36.0975 26.5463 36.0975L30.0679 34.06Z" fill="#7E69E9"/>
<path d="M26.9976 60.0125C28.7931 70.85 31.479 79.5 34.321 81.735C36.615 83.54 39.9258 84.945 43.3606 86.02C47.0365 87.1218 50.7803 87.9787 54.5678 88.585C55.7334 88.78 56.7055 88.92 57.395 89.0275C59.1012 89.2775 62.8336 78.09 61.73 76.5975C61.482 76.255 60.366 75.9175 58.7962 75.5825C53.5113 74.47 42.448 73.5975 41.8702 72.9425C41.2923 72.2875 35.9529 64.3875 31.66 58.3075C28.6542 54.0525 26.0031 54.0025 26.9976 60.0125Z" fill="#F7A9A0"/>
<path d="M54.047 87.5925C54.2529 87.71 57.1743 89.285 58.9946 89.905C60.3537 90.37 64.3018 91.6 64.9466 90.1425C65.3955 89.1425 63.1585 88.1425 61.5912 87.4075C60.7678 87.0175 59.7708 86.0825 60.0412 85.55C60.5173 84.6175 62.6402 85.67 64.0265 86.5675C66.7074 88.3025 70.2464 91.37 71.9898 90.0375C72.647 89.5375 71.9526 88.5375 70.9135 87.5375C72.6173 88.7225 74.445 89.715 75.1989 89.185C75.6305 88.8825 75.6701 88.435 75.4593 87.935C75.9925 88.1375 76.4712 88.125 76.8209 87.7825C77.4161 87.2075 77.178 86.31 76.5952 85.3725C76.7028 85.3652 76.8072 85.3325 76.8998 85.2769C76.9925 85.2213 77.0708 85.1444 77.1284 85.0525C78.4155 83.255 72.6148 77.6625 70.5489 77.07C64.4729 75.32 57.9158 75.57 57.9158 75.57C55.4284 77.395 54.0421 87.5875 54.047 87.5925Z" fill="#F7A9A0"/>
<path d="M63.3296 82.225C64.7856 82.5099 66.1609 83.1161 67.3571 84C68.7459 85.055 69.8248 86.4625 71.0995 87.6425C71.1342 87.675 71.0821 87.7275 71.0474 87.695C70.4522 87.0875 69.79 86.5375 69.1676 85.945C68.5451 85.3525 67.9697 84.7825 67.3249 84.255C66.1603 83.2867 64.7923 82.5985 63.3247 82.2425C63.2999 82.2475 63.3147 82.2225 63.3296 82.225Z" fill="#263238"/>
<path d="M64.5919 79.65C66.1841 80.1675 67.8159 80.6925 69.2841 81.5275C70.8862 82.4425 72.1088 83.875 73.3116 85.2525C74.0325 86.0858 74.736 86.9291 75.4221 87.7825C75.4518 87.8175 75.4022 87.87 75.3725 87.835C74.1523 86.4116 72.8908 85.0266 71.588 83.68C70.3891 82.4251 68.9564 81.421 67.372 80.725C66.4643 80.3275 65.5294 80.0025 64.5944 79.68C64.5925 79.6801 64.5905 79.6799 64.5886 79.6793C64.5868 79.6787 64.585 79.6777 64.5835 79.6765C64.582 79.6752 64.5808 79.6736 64.5799 79.6719C64.579 79.6701 64.5785 79.6682 64.5783 79.6662C64.5781 79.6642 64.5784 79.6623 64.579 79.6604C64.5796 79.6585 64.5805 79.6568 64.5818 79.6552C64.583 79.6537 64.5846 79.6525 64.5863 79.6516C64.5881 79.6507 64.59 79.6501 64.5919 79.65Z" fill="#263238"/>
<path d="M66.4172 77.43C67.9697 77.825 69.3263 78.165 70.6779 79.0725C72.4659 80.2775 74.1499 82.245 74.75 82.945C75.4047 83.715 76.0347 84.5075 76.6522 85.3075C76.677 85.34 76.6199 85.385 76.5951 85.3525C75.1793 83.5921 73.6518 81.9261 72.022 80.365C71.2572 79.6081 70.3804 78.9755 69.423 78.49C68.4509 78.0547 67.4437 77.7043 66.4123 77.4425C66.4123 77.4425 66.4098 77.43 66.4172 77.43Z" fill="#263238"/>
<path d="M28.7064 71.36L38.056 65.8025C38.056 65.8025 34.0657 59.3025 30.6557 56.235C27.2457 53.1675 25.8693 55.575 26.3876 60.0325C26.9059 64.49 28.7064 71.36 28.7064 71.36Z" fill="#7E69E9"/>
<path d="M31.7741 68.5324C31.7155 68.9075 31.6035 69.2721 31.4418 69.615C31.4145 69.67 31.3897 69.7274 31.3624 69.7824L30.978 70.0099C31.035 69.8349 31.1045 69.6624 31.1789 69.4924C31.3305 69.1453 31.531 68.822 31.7741 68.5324ZM27.9673 63.565C27.6276 63.4008 27.2657 63.2879 26.8934 63.23C27.4761 63.7154 28.1746 64.0386 28.9196 64.1675C28.6318 63.9225 28.3112 63.7197 27.9673 63.565ZM31.1739 58.065C31.2996 58.422 31.4759 58.7588 31.6972 59.065C31.6263 58.306 31.3586 57.5791 30.921 56.9575C30.953 57.3384 31.0381 57.7129 31.1739 58.07V58.065ZM35.4718 62.54C35.1608 62.5822 34.8555 62.6594 34.5616 62.77C34.2077 62.8983 33.8737 63.0768 33.5696 63.3C33.9457 63.2697 34.3157 63.1855 34.6682 63.05C34.9609 62.9426 35.2412 62.8035 35.504 62.635C35.4963 62.6039 35.4855 62.5738 35.4718 62.545V62.54Z" fill="white"/>
<path d="M36.5828 64.3899C35.0948 65.1624 31.0847 67.3899 28.6815 69.1824C28.6667 69.1824 28.7039 69.2549 28.7187 69.2474C30.9507 68.0699 35.2139 65.3899 36.6374 64.4849C36.6647 64.4674 36.6126 64.3749 36.5828 64.3899Z" fill="#263238"/>
<path d="M37.2872 66.2625L28.7088 71.36C28.7088 71.36 26.9059 64.4925 26.3876 60.0325C26.0552 57.155 26.5091 55.1325 27.7912 54.885L37.2872 66.2625Z" fill="#263238"/>
<path d="M37.7386 90.1H6.82788C6.82788 90.1 13.5412 63.9625 19.7561 56.6C19.895 56.43 20.0388 56.2725 20.1827 56.1225C20.2124 56.0875 20.2372 56.0625 20.267 56.0325C20.7479 55.5143 21.308 55.0771 21.9261 54.7375C22.0352 54.6775 22.1444 54.6225 22.2584 54.5725C24.6516 53.4625 27.1788 54.3825 29.004 55.9575C29.5819 56.4575 36.134 65.05 36.7144 68.325C37.2104 71.2175 35.276 74.325 35.276 74.325L37.7386 90.1Z" fill="#7E69E9"/>
<path d="M24.0812 58.2175C24.0217 58.5934 23.9089 58.9588 23.7464 59.3025C23.5947 59.6502 23.3934 59.9736 23.1487 60.2625C23.2078 59.8872 23.3206 59.5226 23.4835 59.18C23.636 58.8319 23.8373 58.5078 24.0812 58.2175ZM19.4287 72.8475C19.268 73.1908 19.1562 73.5552 19.0964 73.93C19.5779 73.3426 19.8985 72.6385 20.0264 71.8875C19.7834 72.1776 19.5822 72.5007 19.4287 72.8475ZM15.6095 88.115C15.4463 88.4581 15.3343 88.8238 15.2772 89.2C15.7556 88.6097 16.0758 87.9056 16.2072 87.155C15.9642 87.4451 15.763 87.7682 15.6095 88.115ZM31.1789 69.4925C31.0164 69.8361 30.9036 70.2015 30.8441 70.5775C31.0894 70.2881 31.2908 69.9638 31.4418 69.615C31.6036 69.2721 31.7155 68.9075 31.7741 68.5325C31.5311 68.822 31.3306 69.1453 31.1789 69.4925ZM36.0769 79.4675C35.9186 79.8069 35.8084 80.1671 35.7496 80.5375C35.9036 80.3585 36.039 80.1642 36.1538 79.9575L36.0769 79.4675ZM24.3044 86.56C24.1437 86.9041 24.0318 87.2694 23.9721 87.645C24.2173 87.3556 24.4187 87.0313 24.5697 86.6825C24.7304 86.3392 24.8423 85.9747 24.9021 85.6C24.6591 85.8901 24.4579 86.2132 24.3044 86.56ZM27.9673 63.56C27.6276 63.3958 27.2658 63.2829 26.8935 63.225C27.4761 63.7104 28.1747 64.0336 28.9197 64.1625C28.6316 63.9193 28.311 63.7181 27.9673 63.565V63.56ZM30.0109 75.9675C29.6703 75.8055 29.3088 75.6927 28.937 75.6325C29.2242 75.8783 29.5449 76.0812 29.8893 76.235C30.2299 76.3969 30.5914 76.5097 30.9632 76.57C30.6751 76.3268 30.3545 76.1256 30.0109 75.9725V75.9675ZM30.7549 89.535C30.4134 89.373 30.0511 89.2602 29.6785 89.2C30.2625 89.6848 30.9617 90.0079 31.7072 90.1375C31.4191 89.8943 31.0985 89.6931 30.7549 89.54V89.535ZM15.8029 78.115C15.4615 77.953 15.0992 77.8402 14.7266 77.78C15.0143 78.0263 15.3359 78.2293 15.6814 78.3825C16.022 78.5444 16.3835 78.6572 16.7553 78.7175C16.4672 78.4743 16.1466 78.2731 15.8029 78.12V78.115ZM35.9033 72C35.9229 72.2544 35.9703 72.506 36.0447 72.75C36.0869 72.645 36.1315 72.535 36.1737 72.4225C36.0945 72.2764 36.0041 72.1368 35.9033 72.005V72ZM35.3032 86.475C35.43 86.8315 35.6061 87.1682 35.8265 87.475C35.7968 87.0965 35.7133 86.7244 35.5785 86.37C35.4508 86.0133 35.2738 85.6767 35.0527 85.37C35.0845 85.7499 35.1688 86.1235 35.3032 86.48V86.475ZM19.2849 65.4975C19.4106 65.8545 19.5868 66.1913 19.8081 66.4975C19.7779 66.1191 19.6944 65.7471 19.5601 65.3925C19.4315 65.0363 19.2545 64.6998 19.0344 64.3925C19.0644 64.7727 19.1487 65.1466 19.2849 65.5025V65.4975ZM24.1928 78.3225C24.3196 78.679 24.4957 79.0157 24.7161 79.3225C24.6876 78.9439 24.604 78.5716 24.4681 78.2175C24.3423 77.8605 24.1661 77.5237 23.9448 77.2175C23.9746 77.5975 24.0581 77.9713 24.1928 78.3275V78.3225ZM10.8628 83.555C10.9894 83.9116 11.1655 84.2483 11.3861 84.555C11.356 84.1758 11.2725 83.8029 11.1381 83.4475C11.0094 83.0913 10.8325 82.7548 10.6123 82.4475C10.6425 82.8269 10.7269 83.1999 10.8628 83.555ZM29.8993 82.98C30.2533 82.8518 30.5873 82.6733 30.8913 82.45C30.5157 82.4787 30.1463 82.5629 29.7951 82.7C29.441 82.8267 29.1068 83.0044 28.8031 83.2275C29.1783 83.1978 29.5474 83.1144 29.8993 82.98ZM11.9813 73.0975C11.9416 73.215 11.8994 73.33 11.8597 73.4475L12.0209 73.3925C12.3756 73.2658 12.7099 73.0872 13.0129 72.8625C12.6599 72.8919 12.3126 72.971 11.9813 73.0975ZM34.0929 62.98C33.9071 63.0713 33.7302 63.1801 33.5647 63.305C33.7881 63.2911 34.0093 63.2525 34.2244 63.19C34.1797 63.12 34.1351 63.05 34.0929 62.98ZM19.4436 82.98C19.7969 82.8503 20.1307 82.6719 20.4356 82.45C20.06 82.4787 19.6907 82.5629 19.3394 82.7C18.9856 82.8276 18.6516 83.0052 18.3474 83.2275C18.7226 83.1978 19.0917 83.1144 19.4436 82.98ZM7.65366 88.615C7.4875 88.68 7.32382 88.7475 7.15766 88.8275C7.13451 88.9175 7.11219 89.0008 7.0907 89.0775C7.31388 89.0285 7.53346 88.9642 7.7479 88.885C8.10167 88.7574 8.43567 88.5798 8.7399 88.3575C8.3675 88.3907 8.00172 88.4774 7.65366 88.615ZM24.5177 69.0625C24.871 68.9328 25.2048 68.7544 25.5097 68.5325C25.1341 68.5612 24.7647 68.6454 24.4135 68.7825C24.0597 68.9101 23.7257 69.0877 23.4215 69.31C23.7957 69.279 24.1638 69.1957 24.5152 69.0625H24.5177Z" fill="white"/>
<path d="M30.6383 73.21C29.3213 73.3396 28.0157 73.5677 26.7323 73.8925C26.0974 74.0625 25.4749 74.26 24.8525 74.4725C24.5425 74.58 24.23 74.675 23.915 74.7675C23.5898 74.8762 23.2524 74.9434 22.9106 74.9675C22.9056 74.9691 22.9013 74.9723 22.8983 74.9766C22.8952 74.9808 22.8936 74.986 22.8936 74.9912C22.8936 74.9965 22.8952 75.0016 22.8983 75.0059C22.9013 75.0101 22.9056 75.0133 22.9106 75.015C23.234 75.0292 23.558 75.0208 23.8803 74.99C24.1922 74.9483 24.5012 74.8865 24.8053 74.805C25.4501 74.64 26.0875 74.4425 26.7323 74.27C28.0343 73.92 29.3338 73.5725 30.6556 73.3175C30.7152 73.3075 30.7003 73.2025 30.6383 73.21Z" fill="#263238"/>
<path d="M33.902 74.355C32.8164 74.2512 31.726 74.2087 30.6358 74.2275C30.0877 74.2275 29.5471 74.2825 29.004 74.34C28.756 74.3675 28.4856 74.4 28.2277 74.435C27.9698 74.47 27.6648 74.55 27.3796 74.585C27.3498 74.585 27.3523 74.6375 27.3796 74.6325C27.6474 74.6075 27.9227 74.6325 28.193 74.62L29.0089 74.59C29.552 74.5725 30.0952 74.56 30.6408 74.5375C31.7295 74.49 32.8132 74.455 33.902 74.4475C33.964 74.445 33.959 74.3625 33.902 74.355Z" fill="#263238"/>
<path d="M18.9824 57.0474C14.0794 62.3399 3.11035 81.3575 6.88243 85.02C10.6545 88.6825 34.3608 88.7525 38.5843 88.7525C40.5063 88.7525 36.568 76.0025 34.5071 75.7525C32.791 75.54 20.3141 75.1325 20.0612 74.6225C19.7735 74.0475 21.4028 69.4074 22.8437 61.5699C24.3887 53.1674 21.14 54.7099 18.9824 57.0474Z" fill="#F7A9A0"/>
<path d="M41.3469 73.1275C45.6076 72.5275 46.8029 73.035 50.1236 70.605C52.3085 69.01 54.2553 69.7325 53.0104 72.265C50.9693 76.41 45.6324 78.345 43.5864 78.48L41.3469 73.1275Z" fill="#F7A9A0"/>
<path d="M30.0282 77.2625C30.0282 77.2625 34.8171 74.5825 39.2935 73.49C42.391 72.74 49.6326 71.5525 55.9293 78.74C57.9133 81.005 58.02 84.2075 54.977 82.295C52.6136 80.81 51.3413 79.3275 49.7541 78.88C49.7541 78.88 50.6246 83.4325 48.9407 84.955C47.4689 86.2854 45.9051 87.5085 44.2609 88.615C43.9902 88.358 43.7367 88.0832 43.502 87.7925C43.502 87.7925 41.7958 89.065 38.5842 88.7575L30.0282 77.2625Z" fill="#F7A9A0"/>
<path d="M42.3637 73.2475C43.8517 74.025 46.9542 75.7275 49.02 78.0125C51.3116 80.55 55.0489 86.0625 53.174 87.75C51.7976 88.985 50.198 87 50.198 87C50.198 87 51.2669 89.6075 49.7814 90.45C48.4273 91.2175 47.2741 89.6125 47.2741 89.6125C47.2741 89.6125 47.6511 91.3075 46.2077 91.795C44.4717 92.38 43.9608 88.735 41.6916 87.795C41.1733 87.59 42.3637 73.2475 42.3637 73.2475Z" fill="#F7A9A0"/>
<path d="M45.8853 80.0425C47.16 81.005 49.4962 83.9375 50.141 86.975C50.1559 87.045 50.1137 87.0925 50.0864 87.0325C48.9662 84.5465 47.5505 82.2068 45.8704 80.065C45.8506 80.05 45.8729 80.03 45.8853 80.0425Z" fill="#263238"/>
<path d="M43.4822 82.4175C44.494 83.3625 46.7682 86.4925 47.3187 89.595C47.3311 89.6625 47.284 89.7075 47.2592 89.6475C46.2682 87.1058 44.9936 84.6861 43.4598 82.435C43.445 82.4175 43.4598 82.4025 43.4822 82.4175Z" fill="#263238"/>
<path d="M39.5266 88.8C40.0313 88.7937 40.5351 88.7536 41.0345 88.68C41.5344 88.6205 42.0227 88.4857 42.4828 88.28H42.4952C42.9866 88.7334 43.4312 89.236 43.822 89.78C44.0187 90.053 44.1976 90.3386 44.3577 90.635C44.5077 90.9293 44.7055 91.1964 44.943 91.425C45.1777 91.6498 45.4829 91.7851 45.806 91.8075C46.1285 91.8114 46.4399 91.6886 46.674 91.465C46.9005 91.2343 47.0541 90.9411 47.1155 90.6225C47.1855 90.3017 47.2089 89.9725 47.1849 89.645L47.17 89.43L47.3039 89.5975C47.6264 90.034 48.0752 90.3589 48.5886 90.5275C48.8445 90.5962 49.1138 90.5962 49.3698 90.5275C49.625 90.4624 49.857 90.3264 50.0394 90.135C50.3866 89.735 50.4436 89.15 50.4089 88.615C50.3665 88.068 50.2523 87.5291 50.0691 87.0125L49.9228 86.585L50.208 86.935C50.5475 87.3725 50.9911 87.7164 51.4976 87.935C51.7472 88.0375 52.0182 88.0762 52.2862 88.0475C52.5512 88.0108 52.8027 87.9076 53.0179 87.7475C53.2266 87.5816 53.3805 87.3558 53.4593 87.1C53.5368 86.8374 53.5686 86.5634 53.5535 86.29C53.5186 85.732 53.4008 85.1826 53.2039 84.66C52.8049 83.6044 52.2882 82.5979 51.6638 81.66C51.0484 80.7135 50.3793 79.8037 49.6599 78.935L49.4367 78.6675L49.7815 78.7725C50.169 78.9024 50.5416 79.0742 50.8925 79.285C51.2397 79.4866 51.5778 79.7033 51.9068 79.935C52.5665 80.3925 53.1791 80.9125 53.8139 81.385C54.4304 81.8775 55.1012 82.297 55.8128 82.635C56.16 82.775 56.5568 82.885 56.8594 82.705C57.1619 82.525 57.2537 82.13 57.2289 81.755C57.2013 81.368 57.1117 80.988 56.9635 80.63C56.8059 80.2707 56.6132 79.9282 56.3882 79.6075C55.9299 78.9595 55.4135 78.3553 54.8456 77.8025C54.28 77.2449 53.683 76.7207 53.0575 76.2325C52.4363 75.7398 51.7807 75.2929 51.0958 74.895L50.9867 74.8325L51.076 74.7425C51.7994 74.044 52.4125 73.238 52.8939 72.3525C53.1323 71.9171 53.2617 71.4297 53.2708 70.9325C53.2712 70.6913 53.2088 70.4542 53.0898 70.245C53.0299 70.1445 52.9508 70.0569 52.8572 69.9874C52.7635 69.9179 52.6571 69.8678 52.5442 69.84C52.0594 69.767 51.5645 69.8622 51.1405 70.11C50.6932 70.3372 50.2578 70.5875 49.836 70.86C48.9953 71.405 48.1719 72.0425 47.1849 72.36C46.6981 72.5022 46.2003 72.6033 45.6969 72.6625C45.2009 72.7325 44.6925 72.7925 44.1915 72.855C43.1995 72.9775 42.1877 73.105 41.1907 73.27C39.1909 73.5653 37.228 74.0748 35.3354 74.79C37.2213 74.0505 39.18 73.5158 41.1783 73.195C42.1703 73.02 43.1747 72.8775 44.1766 72.7425L45.6646 72.535C46.1636 72.4767 46.6565 72.3747 47.1378 72.23C48.0951 71.925 48.9011 71.295 49.7492 70.73C50.1758 70.4525 50.6098 70.19 51.0636 69.955C51.5231 69.685 52.0611 69.5834 52.5863 69.6675C52.8544 69.7351 53.0857 69.9055 53.2311 70.1425C53.3656 70.3765 53.4366 70.642 53.437 70.9125C53.432 71.4372 53.2983 71.9525 53.0476 72.4125C52.5625 73.3194 51.9409 74.145 51.205 74.86L51.1876 74.71C51.8798 75.1094 52.5428 75.558 53.1716 76.0525C53.8053 76.5438 54.4106 77.0713 54.9845 77.6325C55.5653 78.191 56.0934 78.8028 56.5618 79.46C56.797 79.7923 56.9989 80.1474 57.1644 80.52C57.3243 80.9024 57.4214 81.3086 57.4521 81.7225C57.4686 81.9385 57.4442 82.1557 57.3802 82.3625C57.3122 82.5827 57.1667 82.7704 56.971 82.89C56.7733 83.0008 56.5445 83.0413 56.3212 83.005C56.1132 82.9784 55.9097 82.9237 55.7161 82.8425C54.9821 82.505 54.2917 82.0785 53.6602 81.5725C53.0179 81.0875 52.4202 80.5725 51.7655 80.1175C51.4431 79.89 51.1107 79.6725 50.7735 79.475C50.4431 79.2699 50.0913 79.1023 49.7244 78.975L49.836 78.795C50.5563 79.6723 51.2261 80.5905 51.8423 81.545C52.4707 82.4982 52.9891 83.5207 53.3874 84.5925C53.5887 85.1339 53.7082 85.7027 53.742 86.28C53.756 86.5748 53.72 86.8699 53.6354 87.1525C53.5471 87.4414 53.3742 87.6968 53.1394 87.885C52.8991 88.0642 52.6174 88.1787 52.321 88.2175C52.0259 88.2467 51.7281 88.2038 51.453 88.0925C50.9194 87.86 50.4528 87.4954 50.0964 87.0325L50.2353 86.955C50.4208 87.4866 50.5358 88.0405 50.5775 88.6025C50.598 88.8868 50.5814 89.1725 50.5279 89.4525C50.4759 89.7398 50.3492 90.008 50.1609 90.23C49.9572 90.4383 49.7018 90.5877 49.4213 90.6624C49.1407 90.7372 48.8454 90.7346 48.5662 90.655C48.025 90.4751 47.5521 90.1311 47.2122 89.67L47.3312 89.6225C47.3545 89.9654 47.3278 90.3099 47.2518 90.645C47.1829 90.9902 47.0097 91.3055 46.7558 91.5474C46.4989 91.7873 46.1586 91.9158 45.8085 91.905C45.4617 91.8779 45.1353 91.7293 44.8859 91.4849C44.645 91.2463 44.4447 90.9693 44.2932 90.6649C44.1382 90.3702 43.9651 90.0855 43.7749 89.8125C43.3933 89.2647 42.9579 88.7572 42.4754 88.2975H42.4952C42.0293 88.4987 41.5361 88.6285 41.032 88.6825C40.5332 88.7538 40.0304 88.7931 39.5266 88.8Z" fill="#263238"/>
<path d="M11.2968 66.3124L21.5069 70.02C21.5069 70.02 23.9224 62.77 24.0886 58.17C24.2548 53.57 21.5416 54.0349 18.4664 57.2824C15.3912 60.5299 11.2968 66.3124 11.2968 66.3124Z" fill="#7E69E9"/>
<path d="M24.0812 58.2175C24.0217 58.5934 23.9089 58.9588 23.7464 59.3025C23.5947 59.6502 23.3934 59.9736 23.1487 60.2625C23.2078 59.8872 23.3206 59.5226 23.4835 59.18C23.636 58.8319 23.8373 58.5078 24.0812 58.2175ZM12.8567 66.88L13.127 66.9775C13.2765 66.6546 13.38 66.312 13.4345 65.96C13.1983 66.2365 13.0037 66.5465 12.8567 66.88ZM19.2848 65.5025C19.4106 65.8595 19.5868 66.1963 19.8081 66.5025C19.7779 66.1241 19.6944 65.7521 19.5601 65.3975C19.4315 65.0413 19.2545 64.7048 19.0344 64.3975C19.0648 64.776 19.1492 65.1482 19.2848 65.5025ZM16.2196 60.35C15.9979 60.4337 15.7825 60.5331 15.5748 60.6475L15.4086 60.8575C15.7214 60.8141 16.0284 60.7352 16.3237 60.6225C16.6784 60.4958 17.0127 60.3172 17.3157 60.0925C16.9401 60.1254 16.571 60.2121 16.2196 60.35Z" fill="white"/>
<path d="M21.6359 67.975C20.0909 67.305 15.8426 65.6175 12.9336 64.9025C12.9162 64.9025 12.8914 64.965 12.9063 64.9725C15.2301 65.9525 19.9991 67.5525 21.5863 68.0775C21.6359 68.0875 21.6756 67.9875 21.6359 67.975Z" fill="#263238"/>
<path d="M23.6199 64.075C23.6199 64.06 23.6025 64.0525 23.5951 64.075C23.4115 64.43 23.2479 64.79 23.0991 65.1575C23.2776 64.3525 23.4372 63.5458 23.5777 62.7375C23.5777 62.7315 23.5753 62.7258 23.5712 62.7216C23.567 62.7173 23.5613 62.715 23.5554 62.715C23.5495 62.715 23.5438 62.7173 23.5396 62.7216C23.5354 62.7258 23.5331 62.7315 23.5331 62.7375C22.8486 65.11 22.1046 67.4725 21.4697 69.86C21.2093 69.8475 20.9464 69.83 20.6885 69.795C20.6802 69.7945 20.6721 69.7969 20.6655 69.8019C20.6589 69.8069 20.6542 69.8142 20.6524 69.8223C20.6506 69.8305 20.6518 69.839 20.6557 69.8463C20.6596 69.8537 20.6659 69.8594 20.6736 69.8625C20.9563 69.9325 21.2341 70.0225 21.5094 70.1125C21.5407 70.1274 21.5766 70.1295 21.6094 70.1183C21.6423 70.1071 21.6695 70.0835 21.6855 70.0525C22.1824 68.6959 22.5965 67.31 22.9255 65.9025C23.0321 65.6875 23.1363 65.4725 23.228 65.25C23.388 64.8689 23.519 64.4761 23.6199 64.075Z" fill="#263238"/>
<path d="M24.1829 55.1675C24.2325 55.725 26.2884 59.5924 28.7485 59.8299C29.5496 59.9074 30.1572 55.515 30.1572 55.515L30.2762 55.2L31.9279 50.805L27.1242 46.6175L26.4248 46.055C26.4248 46.055 26.0503 47.2875 25.6014 48.8275C25.5791 48.8975 25.5568 48.97 25.5369 49.045C25.5171 49.12 25.4799 49.215 25.4601 49.295C25.3881 49.525 25.3187 49.76 25.2517 49.995C25.2021 50.1725 25.1525 50.345 25.1054 50.535C25.0583 50.725 25.0087 50.9075 24.9566 51.0975C24.4904 52.9675 24.168 54.9175 24.1829 55.1675Z" fill="#F7A9A0"/>
<path d="M25.6039 48.825C25.877 50.1657 26.4368 51.4304 27.2441 52.5309C28.0514 53.6315 29.087 54.5414 30.2787 55.1975L31.9304 50.8025L27.1266 46.615L26.4272 46.0525C26.4272 46.0525 26.0503 47.285 25.6039 48.825Z" fill="#263238"/>
<path d="M39.0926 44.4325C38.671 52.6825 33.7284 53.3475 31.9676 53.2525C30.368 53.1675 24.9318 52.675 24.5052 44.435C24.0787 36.195 28.0144 33.79 31.6823 33.79C35.3503 33.79 39.5142 36.195 39.0926 44.4325Z" fill="#F7A9A0"/>
<path d="M38.0039 42.95C37.8201 42.9078 37.6387 42.8552 37.4608 42.7925C37.2619 42.7636 37.0781 42.6696 36.9375 42.525C36.9025 42.4708 36.886 42.4066 36.8905 42.342C36.895 42.2775 36.9202 42.2163 36.9623 42.1675C37.0619 42.0851 37.1814 42.0309 37.3086 42.0103C37.4358 41.9896 37.5662 42.0033 37.6864 42.05C37.9431 42.1088 38.1691 42.2611 38.3213 42.4775C38.3541 42.5286 38.3712 42.5883 38.3706 42.6491C38.3699 42.7099 38.3515 42.7692 38.3177 42.8196C38.2838 42.87 38.236 42.9092 38.1802 42.9324C38.1244 42.9556 38.0631 42.9617 38.0039 42.95Z" fill="#263238"/>
<path d="M32.796 42.5999C32.9869 42.5999 33.1655 42.5499 33.354 42.5224C33.5554 42.5239 33.7517 42.458 33.912 42.3349C33.9548 42.2866 33.9806 42.2252 33.985 42.1605C33.9895 42.0958 33.9726 42.0314 33.9368 41.9774C33.8509 41.881 33.741 41.8094 33.6185 41.7703C33.4959 41.7312 33.3652 41.7259 33.2399 41.7549C32.9772 41.7749 32.7309 41.8914 32.548 42.0824C32.5092 42.1289 32.4846 42.1857 32.4771 42.246C32.4697 42.3063 32.4796 42.3674 32.5058 42.4221C32.532 42.4768 32.5734 42.5227 32.6248 42.5542C32.6763 42.5858 32.7357 42.6016 32.796 42.5999Z" fill="#263238"/>
<path d="M33.6168 44.6375C33.6168 44.615 33.5697 44.6625 33.5697 44.685C33.5697 45.2475 33.4556 45.8875 32.9422 46.05C32.9249 46.05 32.9249 46.0825 32.9422 46.08C33.5622 46.025 33.6961 45.1675 33.6168 44.6375Z" fill="#263238"/>
<path d="M33.148 44.0275C32.2552 43.9125 32.0965 45.7174 32.9224 45.8249C33.7482 45.9324 33.8945 44.1225 33.148 44.0275Z" fill="#263238"/>
<path d="M32.7958 44.09C32.6297 44.1775 32.461 44.34 32.2701 44.34C32.0791 44.34 31.9006 44.1375 31.7741 43.9425C31.7741 43.9225 31.7443 43.9425 31.7418 43.96C31.7071 44.305 31.8063 44.6725 32.1709 44.7575C32.5354 44.8425 32.771 44.55 32.8876 44.21C32.9025 44.1675 32.8554 44.055 32.7958 44.09Z" fill="#263238"/>
<path d="M36.6598 44.7925C36.6598 44.7725 36.6994 44.8225 36.697 44.8475C36.625 45.4025 36.635 46.055 37.121 46.29C37.1359 46.29 37.121 46.325 37.121 46.32C36.5159 46.1675 36.5159 45.31 36.6598 44.7925Z" fill="#263238"/>
<path d="M37.2103 44.2574C38.1081 44.2774 38.0039 46.0874 37.1731 46.0699C36.3423 46.0524 36.4564 44.2424 37.2103 44.2574Z" fill="#263238"/>
<path d="M37.5773 44.3975C37.7137 44.5025 37.8452 44.685 38.0138 44.7075C38.1825 44.73 38.366 44.545 38.5098 44.3625C38.5247 44.345 38.5371 44.3625 38.5371 44.385C38.5247 44.73 38.3908 45.085 38.0585 45.135C37.7261 45.185 37.5501 44.8675 37.4881 44.5175C37.4682 44.45 37.5228 44.3575 37.5773 44.3975Z" fill="#263238"/>
<path d="M33.2026 48.95C33.3166 49.0975 33.4258 49.295 33.6242 49.34C33.8294 49.3638 34.0374 49.3433 34.2343 49.28C34.2385 49.2779 34.2434 49.2774 34.2479 49.2786C34.2525 49.2798 34.2565 49.2827 34.2592 49.2866C34.2619 49.2905 34.2631 49.2953 34.2626 49.3C34.2622 49.3048 34.26 49.3092 34.2566 49.3125C34.163 49.4119 34.0441 49.4836 33.913 49.5198C33.7818 49.5559 33.6433 49.5551 33.5126 49.5175C33.4037 49.4732 33.3104 49.3973 33.2446 49.2993C33.1788 49.2013 33.1434 49.0858 33.143 48.9675C33.1406 48.9325 33.1852 48.9175 33.2026 48.95Z" fill="#263238"/>
<path d="M35.571 47.3775C35.571 47.3775 35.6206 48.2225 35.5909 48.6275C35.5909 48.6625 34.1376 48.8475 33.5895 47.8275C33.5829 47.8192 33.5799 47.8086 33.5811 47.7981C33.5822 47.7875 33.5875 47.7779 33.5957 47.7712C33.6039 47.7646 33.6144 47.7615 33.6249 47.7627C33.6354 47.7639 33.6449 47.7692 33.6515 47.7775C34.1244 48.1604 34.707 48.3796 35.3131 48.4025C35.3478 48.295 35.1792 46.9575 35.2412 46.9575C35.5431 47.0079 35.8368 47.0996 36.1142 47.23C36.0596 45.465 35.7273 43.73 35.7 41.9675C35.7011 41.9554 35.7061 41.944 35.7143 41.935C35.7225 41.9261 35.7335 41.9202 35.7454 41.9182C35.7573 41.9162 35.7695 41.9182 35.7801 41.924C35.7908 41.9297 35.7992 41.9389 35.8042 41.95C36.2803 43.75 36.387 45.7775 36.4886 47.5975C36.5159 47.815 35.7223 47.455 35.571 47.3775Z" fill="#263238"/>
<path d="M24.597 44.2575C25.158 44.1367 25.6782 43.8711 26.1069 43.4868C26.5355 43.1025 26.8578 42.6125 27.0422 42.065C34.0458 41.8925 36.3621 37.5125 36.3621 37.5125C37.7062 41.2 38.9066 41.8325 39.1025 42.3875C39.1025 42.3875 39.6853 39.19 38.6263 36.7525C37.6889 34.595 35.2833 32.285 31.4988 32.775C29.3536 33.0525 27.5482 34.925 27.5482 34.925C27.5482 34.925 25.2294 35.175 24.2795 37.055C22.6874 40.215 24.597 44.2575 24.597 44.2575Z" fill="#263238"/>
<path d="M36.4687 37.2325C36.2138 38.1519 35.7347 38.9925 35.075 39.6775C34.415 40.3664 33.6283 40.9192 32.7587 41.305L32.094 41.555C31.8683 41.6325 31.6377 41.68 31.4095 41.7425C30.9531 41.8629 30.4879 41.9465 30.0183 41.9925C29.5495 42.035 29.0783 42.0275 28.6096 42.045C28.1434 42.0025 27.6771 41.97 27.2134 41.92C27.6821 41.905 28.1459 41.92 28.6096 41.905C29.0709 41.8575 29.5347 41.84 29.991 41.775C30.904 41.6528 31.7965 41.4072 32.6446 41.045C33.4887 40.6833 34.2597 40.168 34.9187 39.525C35.5902 38.8797 36.1185 38.0984 36.4687 37.2325Z" fill="#263238"/>
<path d="M31.789 47.3475C31.313 47.2455 30.875 47.011 30.5248 46.6704C30.1746 46.3299 29.9262 45.8971 29.808 45.4213C29.6898 44.9455 29.7064 44.4458 29.856 43.979C30.0057 43.5123 30.2822 43.0973 30.6543 42.7812C31.0264 42.4651 31.4791 42.2607 31.9607 42.1911C32.4424 42.1216 32.9338 42.1898 33.3789 42.3879C33.824 42.586 34.205 42.9061 34.4786 43.3118C34.7521 43.7174 34.9072 44.1923 34.9262 44.6825C34.9524 45.3765 34.7044 46.0526 34.2367 46.5625C33.769 47.0724 33.1197 47.3745 32.4313 47.4025C32.2158 47.4097 32.0002 47.3912 31.789 47.3475ZM32.7959 42.565C32.6125 42.5264 32.4251 42.5105 32.2379 42.5175C31.6667 42.5409 31.1259 42.7829 30.7256 43.1942C30.3252 43.6055 30.0954 44.1552 30.0829 44.7313C30.0705 45.3074 30.2763 45.8666 30.6586 46.2951C31.0408 46.7236 31.5706 46.9891 32.1402 47.0376C32.7098 47.0861 33.2764 46.9139 33.7244 46.5561C34.1725 46.1983 34.4685 45.6818 34.552 45.1117C34.6356 44.5417 34.5005 43.9609 34.1742 43.4878C33.848 43.0146 33.3551 42.6846 32.7959 42.565Z" fill="#455A64"/>
<path d="M37.7286 47.875C36.7564 47.665 36.0868 46.4725 36.2133 45.1125C36.2614 44.4608 36.5112 43.8408 36.9276 43.34C37.0926 43.1136 37.3127 42.9339 37.5667 42.8184C37.8207 42.7029 38.1 42.6554 38.3776 42.6805C38.6552 42.7057 38.9216 42.8026 39.1511 42.9619C39.3806 43.1212 39.5655 43.3376 39.6878 43.59C40.0051 44.1598 40.137 44.8156 40.0648 45.465C39.9308 46.9025 38.9587 47.9925 37.8972 47.8925C37.8402 47.895 37.7832 47.8875 37.7286 47.875ZM38.4726 43.055C38.4303 43.0445 38.3871 43.0378 38.3436 43.035C38.1218 43.0237 37.9005 43.0664 37.6985 43.1595C37.4965 43.2527 37.3197 43.3934 37.183 43.57C36.8155 44.0161 36.5953 44.5667 36.5531 45.145C36.4365 46.395 37.0491 47.47 37.9245 47.5525C38.8 47.635 39.5985 46.6875 39.7126 45.4425C39.7776 44.8664 39.6623 44.2842 39.3828 43.7775C39.2899 43.6003 39.1615 43.4445 39.0057 43.3201C38.8498 43.1957 38.67 43.1054 38.4776 43.055H38.4726Z" fill="#455A64"/>
<path d="M34.8122 44.975L34.6138 44.6875C35.0378 44.3925 35.9852 44.0325 36.5556 44.7725L36.2803 44.9875C35.7719 44.3225 34.8519 44.95 34.8122 44.975Z" fill="#455A64"/>
<path d="M23.2231 44.56L22.9304 44.37C23.0172 44.2325 23.8083 43.025 24.592 42.9725C25.336 42.925 29.9191 43.8 30.115 43.8375L30.0505 44.18C28.7336 43.93 25.1798 43.2825 24.6143 43.3225C24.0985 43.3575 23.4339 44.2275 23.2231 44.56Z" fill="#455A64"/>
<path d="M25.8321 44.5225C25.8321 44.5225 24.4135 41.725 23.1785 42.2C21.9434 42.675 22.7643 46.5575 24.0415 47.2525C24.1993 47.353 24.3757 47.4203 24.56 47.4503C24.7442 47.4803 24.9327 47.4724 25.1138 47.4271C25.295 47.3818 25.4652 47.3 25.6142 47.1866C25.7632 47.0732 25.8879 46.9307 25.9809 46.7675L25.8321 44.5225Z" fill="#F7A9A0"/>
<path d="M23.4413 43.3075C23.419 43.3075 23.4115 43.3325 23.4289 43.3425C24.3217 43.86 24.6962 44.8125 24.9169 45.7775C24.6838 45.385 24.3291 45.14 23.8133 45.41C23.8079 45.4136 23.8038 45.4188 23.8017 45.425C23.7995 45.4312 23.7994 45.4379 23.8014 45.4441C23.8033 45.4503 23.8073 45.4557 23.8125 45.4595C23.8178 45.4632 23.8242 45.4652 23.8307 45.465C24.0044 45.4347 24.1831 45.4596 24.3421 45.5362C24.5012 45.6128 24.6327 45.7373 24.7185 45.8925C24.8601 46.1521 24.974 46.4261 25.0583 46.71C25.0905 46.8025 25.2492 46.7775 25.2319 46.675C25.2307 46.6675 25.2307 46.6599 25.2319 46.6525C25.4203 45.44 24.7185 43.61 23.4413 43.3075Z" fill="#263238"/>
<path d="M58.4986 90.105C57.6937 90.0293 56.8938 89.9066 56.103 89.7375C55.3087 89.5804 54.5245 89.3759 53.7544 89.125C55.3649 89.2871 56.9547 89.6155 58.4986 90.105Z" fill="#263238"/>
<path d="M65.3979 87.9725C65.3012 87.015 65.2789 86.0575 65.2739 85.1C65.267 84.1401 65.3084 83.1806 65.3979 82.225C65.4875 83.1806 65.5289 84.1401 65.5219 85.1C65.517 86.0575 65.4947 87.015 65.3979 87.9725Z" fill="#263238"/>
<path d="M62.975 88.0125C62.4366 87.2892 61.9358 86.5382 61.4746 85.7625C61.0039 84.9911 60.5742 84.1949 60.1875 83.3775C61.2575 84.8344 62.1907 86.3886 62.975 88.02V88.0125Z" fill="#263238"/>
<path d="M54.2852 83.5925C54.8357 84.02 55.3689 84.4675 55.8996 84.9175C56.4304 85.3675 56.9487 85.8275 57.467 86.2925C57.9853 86.7575 58.4962 87.2275 58.9972 87.71L59.7412 88.4325C59.9892 88.6825 60.2372 88.9325 60.4852 89.1825C60.2099 88.97 59.942 88.7475 59.6717 88.53L58.8732 87.8575C58.3424 87.41 57.8241 86.9475 57.3058 86.4825C56.7875 86.0175 56.2766 85.5475 55.7756 85.065C55.2747 84.5825 54.7688 84.0975 54.2852 83.5925Z" fill="#263238"/>
<path d="M69.9016 89.6675C70.6713 89.418 71.4546 89.2135 72.2477 89.055C73.0391 88.8847 73.84 88.762 74.6459 88.6875C73.1017 89.1763 71.512 89.5046 69.9016 89.6675Z" fill="#263238"/>
<path d="M73.7159 83.1025C73.2348 83.6025 72.7239 84.09 72.2279 84.57C71.7319 85.05 71.2111 85.52 70.6977 85.9875C70.1843 86.455 69.6611 86.915 69.1279 87.3625L68.3318 88.035C68.059 88.2525 67.7936 88.475 67.5159 88.6875C67.7639 88.4375 68.0119 88.1875 68.2599 87.9375L69.0039 87.215C69.4999 86.7325 70.0207 86.265 70.534 85.7975C71.0474 85.33 71.5707 84.87 72.1039 84.4225C72.6371 83.975 73.1678 83.53 73.7159 83.1025Z" fill="#263238"/>
<path d="M96.2667 87.6875L96.971 87.5925L95.8302 59.83L87.6487 48.2125L87.0386 48.7175L95.1755 60.2825L96.2667 87.6875Z" fill="#263238"/>
<path d="M96.5022 60.0575C96.5022 60.2553 96.444 60.4486 96.335 60.6131C96.226 60.7775 96.0711 60.9057 95.8898 60.9814C95.7085 61.0571 95.5091 61.0769 95.3167 61.0383C95.1242 60.9997 94.9475 60.9045 94.8087 60.7646C94.67 60.6248 94.5755 60.4466 94.5372 60.2526C94.499 60.0586 94.5186 59.8575 94.5937 59.6748C94.6688 59.4921 94.7959 59.3359 94.9591 59.226C95.1222 59.1161 95.314 59.0575 95.5102 59.0575C95.7733 59.0575 96.0256 59.1629 96.2116 59.3504C96.3977 59.5379 96.5022 59.7923 96.5022 60.0575Z" fill="#7E69E9"/>
<path d="M88.4248 48.5675C88.4248 48.7653 88.3666 48.9586 88.2576 49.1231C88.1486 49.2875 87.9937 49.4157 87.8124 49.4914C87.6312 49.5671 87.4317 49.5869 87.2393 49.5483C87.0468 49.5097 86.8701 49.4145 86.7313 49.2746C86.5926 49.1348 86.4981 48.9566 86.4599 48.7626C86.4216 48.5686 86.4412 48.3675 86.5163 48.1848C86.5914 48.0021 86.7185 47.8459 86.8817 47.736C87.0448 47.6262 87.2366 47.5675 87.4328 47.5675C87.6959 47.5675 87.9482 47.6729 88.1342 47.8604C88.3203 48.0479 88.4248 48.3023 88.4248 48.5675Z" fill="#7E69E9"/>
<path d="M80.6327 48.96L84.4891 54.9025L87.0385 52.56L88.591 51.1325L85.6969 46.6825L83.7773 47.545L80.6327 48.96Z" fill="#7E69E9"/>
<path opacity="0.1" d="M80.6327 48.96L84.4891 54.9025L87.0385 52.56L83.7773 47.545L80.6327 48.96Z" fill="black"/>
<path d="M73.5051 50.5075L80.2334 60.8675L86.659 54.7725L81.6172 47.0075L73.5051 50.5075Z" fill="#7E69E9"/>
<path d="M90.1831 90.1075H102.313L101.566 86.2675H90.9271L90.1831 90.1075Z" fill="#7E69E9"/>
<path d="M50.6122 24.8125C50.4676 26.2072 49.9415 27.534 49.0925 28.6448C48.2434 29.7557 47.1049 30.6068 45.8039 31.1034C44.503 31.5999 43.0907 31.7222 41.7248 31.4568C40.3589 31.1913 39.093 30.5485 38.0684 29.6L34.3112 30.1675L36.191 26.8925C35.7217 25.7403 35.5444 24.4885 35.6752 23.25C35.7715 22.2563 36.0618 21.2916 36.5296 20.4115C36.9973 19.5313 37.6331 18.7532 38.4004 18.1218C39.1677 17.4904 40.0513 17.0183 41.0003 16.7326C41.9494 16.4469 42.9451 16.3533 43.9302 16.4572C44.9153 16.5611 45.8703 16.8604 46.7402 17.3379C47.61 17.8153 48.3776 18.4616 48.9987 19.2393C49.6197 20.0171 50.0821 20.911 50.359 21.8697C50.6359 22.8283 50.722 23.8327 50.6122 24.825V24.8125Z" fill="white"/>
<path d="M50.6122 24.8125C50.4674 26.2072 49.943 27.5344 49.0969 28.6475C48.6835 29.21 48.1867 29.705 47.6238 30.115C46.5082 30.9616 45.1822 31.4807 43.7922 31.615C43.445 31.6454 43.0962 31.6521 42.7481 31.635C42.3993 31.6269 42.0518 31.5902 41.709 31.525C40.3225 31.2705 39.034 30.6306 37.989 29.6775L38.0783 29.705L34.326 30.285L34.0532 30.3275L34.1896 30.0775L36.0595 26.7975V26.9275C35.6186 25.8418 35.431 24.6684 35.5115 23.498C35.5919 22.3276 35.9381 21.1915 36.5233 20.1775C37.108 19.1678 37.9118 18.3046 38.8743 17.6525C40.0717 16.8501 41.4706 16.4073 42.908 16.3758C44.3455 16.3442 45.7622 16.7253 46.993 17.4744C48.2238 18.2236 49.218 19.31 49.8596 20.607C50.5013 21.904 50.764 23.3582 50.6171 24.8L50.6122 24.8125ZM50.6122 24.8125C50.7299 23.6731 50.5872 22.5217 50.1949 21.4466C49.8027 20.3715 49.1714 19.4013 48.3494 18.6103C47.5274 17.8194 46.5366 17.2287 45.453 16.8837C44.3695 16.5387 43.2219 16.4485 42.0983 16.62C40.9841 16.7873 39.9228 17.2097 38.9959 17.855C38.0778 18.5041 37.3111 19.3469 36.749 20.325C36.1966 21.3067 35.871 22.4014 35.7967 23.5275C35.7272 24.6526 35.9077 25.7791 36.3249 26.825L36.3522 26.8925L36.3175 26.955L34.4252 30.2225L34.2913 30.0225L38.051 29.4925H38.1031L38.1403 29.5275C39.1432 30.4746 40.3887 31.1206 41.7363 31.3925C42.0719 31.4629 42.4129 31.5047 42.7555 31.5175C43.0973 31.5425 43.4405 31.5425 43.7823 31.5175C44.4682 31.4634 45.1434 31.3136 45.7886 31.0725C46.4367 30.8355 47.0467 30.5036 47.599 30.0875C47.8769 29.8817 48.1419 29.6587 48.3926 29.42C48.6362 29.174 48.864 28.9126 49.0746 28.6375C49.9279 27.5302 50.4601 26.2062 50.6122 24.8125Z" fill="#263238"/>
<path d="M47.3312 24.255C47.3312 24.4365 47.2778 24.6139 47.1778 24.7647C47.0778 24.9156 46.9356 25.0332 46.7693 25.1027C46.603 25.1721 46.42 25.1903 46.2435 25.1549C46.0669 25.1195 45.9047 25.0321 45.7774 24.9038C45.6502 24.7755 45.5635 24.612 45.5284 24.434C45.4932 24.256 45.5113 24.0715 45.5801 23.9039C45.649 23.7362 45.7657 23.5929 45.9154 23.4921C46.065 23.3913 46.241 23.3375 46.421 23.3375C46.5406 23.3372 46.6591 23.3607 46.7697 23.4067C46.8803 23.4527 46.9808 23.5202 47.0653 23.6055C47.1499 23.6908 47.2169 23.792 47.2626 23.9035C47.3082 24.015 47.3315 24.1344 47.3312 24.255Z" fill="#263238"/>
<path d="M44.0724 24.255C44.0724 24.4366 44.019 24.6141 43.9188 24.765C43.8187 24.9159 43.6764 25.0335 43.51 25.1029C43.3435 25.1723 43.1604 25.1903 42.9838 25.1547C42.8071 25.1191 42.645 25.0314 42.5178 24.9029C42.3906 24.7743 42.3041 24.6106 42.2693 24.4325C42.2344 24.2543 42.2528 24.0698 42.3221 23.9022C42.3913 23.7345 42.5084 23.5914 42.6584 23.4909C42.8084 23.3904 42.9846 23.337 43.1647 23.3375C43.2841 23.3375 43.4024 23.3612 43.5126 23.4074C43.6229 23.4535 43.7231 23.5211 43.8074 23.6064C43.8917 23.6916 43.9585 23.7928 44.004 23.9041C44.0495 24.0154 44.0727 24.1346 44.0724 24.255Z" fill="#263238"/>
<path d="M40.8162 24.255C40.8162 24.4365 40.7628 24.6139 40.6628 24.7647C40.5628 24.9156 40.4206 25.0332 40.2543 25.1027C40.088 25.1721 39.905 25.1903 39.7284 25.1549C39.5519 25.1195 39.3897 25.0321 39.2624 24.9038C39.1351 24.7755 39.0485 24.612 39.0133 24.434C38.9782 24.256 38.9962 24.0715 39.0651 23.9039C39.134 23.7362 39.2507 23.5929 39.4004 23.4921C39.55 23.3913 39.726 23.3375 39.906 23.3375C40.0256 23.3372 40.1441 23.3607 40.2547 23.4067C40.3653 23.4527 40.4657 23.5202 40.5503 23.6055C40.6349 23.6908 40.7019 23.792 40.7476 23.9035C40.7932 24.015 40.8165 24.1344 40.8162 24.255Z" fill="#263238"/>
<path d="M63.2404 34.9925H43.0184V46.235H63.2404V34.9925Z" fill="#455A64"/>
<path d="M59.3418 46.235H63.2403V49.0775L59.3418 46.235Z" fill="#455A64"/>
<path d="M54.6472 37.0675H45.4786V37.32H54.6472V37.0675Z" fill="white"/>
<path d="M60.877 38.435H45.4786V38.6875H60.877V38.435Z" fill="white"/>
<path d="M60.877 39.8025H45.4786V40.055H60.877V39.8025Z" fill="white"/>
<path d="M57.9258 41.17H45.4786V41.4225H57.9258V41.17Z" fill="white"/>
<path d="M60.877 42.5375H45.4786V42.79H60.877V42.5375Z" fill="white"/>
<path d="M51.143 43.905H45.4786V44.1575H51.143V43.905Z" fill="white"/>
<path d="M70.0058 50.325H49.9203V58.665H70.0058V50.325Z" fill="#7E69E9"/>
<path d="M70.0058 61.3425V58.6625H65.9733L70.0058 61.3425Z" fill="#7E69E9"/>
<path d="M67.5927 52.4H52.363V52.6525H67.5927V52.4Z" fill="white"/>
<path d="M61.053 53.7675H52.363V54.02H61.053V53.7675Z" fill="white"/>
<path d="M64.1083 55.135H52.363V55.3875H64.1083V55.135Z" fill="white"/>
<path d="M56.455 56.5025H52.363V56.755H56.455V56.5025Z" fill="white"/>
<path d="M55.6095 91.0575H53.5933V92.385H55.6095V91.0575Z" fill="#EBEBEB"/>
<path d="M58.2234 90.97H56.2072V92.2975H58.2234V90.97Z" fill="#EBEBEB"/>
<path d="M60.8397 90.8825H58.8235V92.21H60.8397V90.8825Z" fill="#EBEBEB"/>
<path d="M63.4537 90.795H61.4375V92.1225H63.4537V90.795Z" fill="#EBEBEB"/>
<path d="M66.0701 90.7075H64.0538V92.035H66.0701V90.7075Z" fill="#EBEBEB"/>
<path d="M68.684 90.62H66.6677V91.9475H68.684V90.62Z" fill="#EBEBEB"/>
<path d="M71.298 90.5325H69.2817V91.86H71.298V90.5325Z" fill="#EBEBEB"/>
<path d="M73.9143 90.445H71.8981V91.7725H73.9143V90.445Z" fill="#EBEBEB"/>
<path d="M76.5282 90.3575H74.512V91.685H76.5282V90.3575Z" fill="#EBEBEB"/>
<path d="M77.0218 93.15H53.0997V91.5325L77.0218 90.86V93.15Z" fill="#BFC2C8"/>
<path d="M94.8629 87.5575H61.5317L66.8315 62.5425H100.163L94.8629 87.5575Z" fill="#EBEBEB"/>
<path d="M96.0954 87.5575H62.7642L68.0639 62.5425H101.395L96.0954 87.5575Z" fill="#BFC2C8"/>
<path d="M84.1932 75.0045C85.0975 74.1621 85.2519 72.8479 84.538 72.0691C83.8241 71.2903 82.5122 71.3419 81.6079 72.1843C80.7036 73.0267 80.5492 74.3409 81.2631 75.1197C81.977 75.8985 83.2888 75.8469 84.1932 75.0045Z" fill="white"/>
<path d="M86.669 94.09H70.2762V92.805L86.669 92.2725V94.09Z" fill="#EBEBEB"/>
<path d="M91.1255 94.0875H82.324L77.0217 80.07H85.8233L91.1255 94.0875Z" fill="#EBEBEB"/>
<path d="M92.5738 94.0875H83.7723L78.4725 80.07H87.2741L92.5738 94.0875Z" fill="#A6A6A6"/>
<path d="M50.8999 94.43H34.0086C32.5677 94.43 34.6534 90.29 39.9185 88.7025C45.1835 87.115 52.5714 92.8775 50.8999 94.43Z" fill="#BFC2C8"/>
<path d="M44.2783 94.43C44.2919 93.9582 44.3695 93.4905 44.509 93.04C44.646 92.5857 44.8376 92.1499 45.0794 91.7425C45.3202 91.3325 45.6222 90.9624 45.9746 90.645C46.3233 90.3259 46.7256 90.0719 47.1626 89.895C46.9815 90.045 46.7757 90.145 46.6095 90.3125L46.3615 90.535L46.1135 90.785C45.8001 91.1145 45.5255 91.4794 45.2951 91.8725C45.0611 92.2656 44.8603 92.6779 44.695 93.105C44.5267 93.5367 44.3875 93.9794 44.2783 94.43Z" fill="#263238"/>
<path d="M46.2822 90.49C46.7826 90.6527 47.27 90.8533 47.7405 91.09C48.2138 91.3257 48.6682 91.5982 49.0995 91.905C49.5371 92.2098 49.9332 92.5713 50.2775 92.98C50.4465 93.1895 50.5928 93.4166 50.714 93.6575C50.8301 93.8991 50.8967 94.1618 50.9099 94.43C50.8505 94.1759 50.7482 93.934 50.6073 93.715C50.4707 93.4965 50.312 93.2929 50.1337 93.1075C49.7723 92.7384 49.378 92.4036 48.9557 92.1075C48.5365 91.8025 48.0926 91.53 47.6487 91.26C47.4255 91.125 47.1998 90.995 46.9692 90.87C46.7385 90.745 46.5129 90.6175 46.2822 90.49Z" fill="#263238"/>
<path opacity="0.6" d="M19.5528 86.07C19.5528 86.07 25.5792 83.27 25.5792 79.5175C25.5792 75.765 17.7622 73.35 17.7622 70.4175C17.7622 67.485 21.1722 65.7574 21.1722 65.7574C21.1722 65.7574 15.7856 67.6124 15.7856 71.3225C15.7856 75.0325 20.9391 77.545 21.4326 79.9075C22.1171 83.185 19.5528 86.07 19.5528 86.07Z" fill="#BFC2C8"/>
<path opacity="0.6" d="M19.8503 86.07C19.8503 86.07 13.8214 83.87 13.8214 80.92C13.8214 77.97 21.6359 76.07 21.6359 73.7625C21.6359 71.455 18.2284 70.1 18.2284 70.1C18.2284 70.1 23.6199 71.5575 23.6199 74.475C23.6199 77.3925 17.7026 79.3975 17.2785 81.7675C16.8594 84.09 19.8503 86.07 19.8503 86.07Z" fill="#BFC2C8"/>
<path d="M22.4816 95.5074H16.7478V96.41H22.4816V95.5074Z" fill="#455A64"/>
<path d="M22.4816 95.5074H16.7478V96.1024H22.4816V95.5074Z" fill="#263238"/>
<path d="M9.9427 93.0799C10.2907 93.5996 10.7798 94.0073 11.3515 94.2542C11.9232 94.5011 12.5534 94.5769 13.1667 94.4724C13.3651 94.4357 13.5594 94.3796 13.747 94.3049C14.0323 94.1924 14.3043 94.0482 14.558 93.8749L13.8289 92.7849C13.6945 92.8825 13.5508 92.9663 13.3998 93.0349C12.0333 93.6599 11.1678 92.5724 10.9992 92.3249C10.2279 91.2099 9.93774 88.6674 10.7239 87.6874C10.776 87.6149 11.0066 87.5 11.9292 87.7C12.1003 87.7375 12.2937 87.78 12.512 87.8425C12.6814 87.9005 12.8571 87.9383 13.0353 87.9549L13.0601 87.3025L13.1221 86.6499C13.0625 86.6499 12.9708 86.6125 12.8493 86.5775C12.4224 86.4514 11.9862 86.3602 11.5448 86.3049C10.8653 86.2324 10.1535 86.305 9.71702 86.8575C8.43238 88.455 8.95814 91.6849 9.9427 93.0799Z" fill="#455A64"/>
<path d="M13.8338 92.7849C13.6995 92.8825 13.5557 92.9663 13.4048 93.0349L13.752 94.3074C14.0373 94.1949 14.3093 94.0507 14.5629 93.8774L13.8338 92.7849Z" fill="#263238"/>
<path d="M11.5547 86.305L11.9391 87.7C12.1102 87.7375 12.3036 87.78 12.5219 87.8425C12.6913 87.9005 12.867 87.9383 13.0452 87.955L13.07 87.3025L13.132 86.65C13.0724 86.65 12.9807 86.6125 12.8592 86.5775C12.4323 86.4514 11.9961 86.3602 11.5547 86.305Z" fill="#263238"/>
<path d="M27.2431 84.6C27.2431 84.6 26.5537 90.49 25.3658 92.9725C24.1778 95.455 22.5212 95.7225 21.4895 95.7225H17.7398C16.7106 95.7225 15.0514 95.445 13.8635 92.9725C12.6756 90.5 11.9886 84.6 11.9886 84.6H27.2431Z" fill="#455A64"/>
<path d="M14.4786 86.2825C14.4786 86.4174 14.4389 86.5494 14.3645 86.6616C14.2901 86.7739 14.1844 86.8613 14.0606 86.913C13.9369 86.9647 13.8008 86.9782 13.6695 86.9518C13.5381 86.9255 13.4175 86.8605 13.3228 86.7651C13.2281 86.6696 13.1636 86.548 13.1375 86.4156C13.1114 86.2832 13.1248 86.146 13.176 86.0213C13.2273 85.8966 13.3141 85.79 13.4254 85.715C13.5367 85.64 13.6676 85.6 13.8016 85.6C13.8905 85.6 13.9785 85.6176 14.0606 85.6519C14.1428 85.6862 14.2174 85.7365 14.2803 85.7999C14.3432 85.8632 14.393 85.9385 14.4271 86.0213C14.4611 86.1041 14.4786 86.1928 14.4786 86.2825ZM19.7784 85.4575C19.6444 85.4575 19.5135 85.4975 19.4022 85.5725C19.2909 85.6475 19.2041 85.7541 19.1528 85.8788C19.1016 86.0035 19.0882 86.1407 19.1143 86.2731C19.1404 86.4055 19.2049 86.5271 19.2996 86.6226C19.3943 86.718 19.5149 86.783 19.6463 86.8093C19.7776 86.8357 19.9137 86.8222 20.0374 86.7705C20.1612 86.7189 20.2669 86.6314 20.3413 86.5191C20.4157 86.4069 20.4554 86.2749 20.4554 86.14C20.4554 85.959 20.3841 85.7853 20.2571 85.6574C20.1301 85.5294 19.9579 85.4575 19.7784 85.4575ZM19.7784 94.03C19.6444 94.03 19.5135 94.07 19.4022 94.145C19.2909 94.22 19.2041 94.3266 19.1528 94.4513C19.1016 94.576 19.0882 94.7132 19.1143 94.8456C19.1404 94.978 19.2049 95.0996 19.2996 95.1951C19.3943 95.2905 19.5149 95.3555 19.6463 95.3818C19.7776 95.4082 19.9137 95.3947 20.0374 95.343C20.1612 95.2913 20.2669 95.2039 20.3413 95.0916C20.4157 94.9794 20.4554 94.8474 20.4554 94.7125C20.4554 94.5314 20.3841 94.3578 20.2571 94.2299C20.1301 94.1019 19.9579 94.03 19.7784 94.03ZM24.6887 90.1675C24.5548 90.1675 24.4239 90.2075 24.3126 90.2825C24.2013 90.3575 24.1145 90.4641 24.0632 90.5888C24.012 90.7135 23.9986 90.8507 24.0247 90.9831C24.0508 91.1155 24.1153 91.2371 24.21 91.3326C24.3047 91.428 24.4253 91.493 24.5567 91.5193C24.688 91.5457 24.8241 91.5322 24.9478 91.4805C25.0716 91.4288 25.1773 91.3414 25.2517 91.2291C25.3261 91.1169 25.3658 90.9849 25.3658 90.85C25.3658 90.6689 25.2945 90.4953 25.1675 90.3674C25.0405 90.2394 24.8683 90.1675 24.6887 90.1675ZM17.1719 92.18C17.038 92.18 16.9071 92.22 16.7957 92.295C16.6844 92.37 16.5976 92.4766 16.5464 92.6013C16.4951 92.726 16.4817 92.8632 16.5078 92.9956C16.534 93.128 16.5984 93.2496 16.6931 93.345C16.7878 93.4405 16.9085 93.5055 17.0398 93.5318C17.1711 93.5582 17.3072 93.5447 17.431 93.493C17.5547 93.4413 17.6604 93.3539 17.7348 93.2416C17.8092 93.1294 17.8489 92.9974 17.8489 92.8625C17.8489 92.6814 17.7776 92.5078 17.6506 92.3799C17.5236 92.2519 17.3514 92.18 17.1719 92.18ZM25.1079 85.4575C24.974 85.4575 24.8431 85.4975 24.7317 85.5725C24.6204 85.6475 24.5336 85.7541 24.4824 85.8788C24.4311 86.0035 24.4177 86.1407 24.4438 86.2731C24.47 86.4055 24.5344 86.5271 24.6291 86.6226C24.7238 86.718 24.8445 86.783 24.9758 86.8093C25.1071 86.8357 25.2432 86.8222 25.367 86.7705C25.4907 86.7189 25.5964 86.6314 25.6708 86.5191C25.7452 86.4069 25.7849 86.2749 25.7849 86.14C25.7849 85.959 25.7136 85.7853 25.5866 85.6574C25.4596 85.5294 25.2874 85.4575 25.1079 85.4575ZM19.6891 90.0575C19.5552 90.0575 19.4243 90.0975 19.3129 90.1725C19.2016 90.2475 19.1148 90.3541 19.0636 90.4788C19.0123 90.6035 18.9989 90.7407 19.025 90.8731C19.0512 91.0055 19.1156 91.1271 19.2103 91.2226C19.305 91.318 19.4257 91.383 19.557 91.4093C19.6883 91.4357 19.8244 91.4222 19.9482 91.3705C20.0719 91.3188 20.1776 91.2314 20.252 91.1191C20.3264 91.0069 20.3661 90.8749 20.3661 90.74C20.3661 90.5602 20.2958 90.3878 20.1704 90.26C20.0451 90.1322 19.8748 90.0594 19.6965 90.0575H19.6891ZM14.5555 90.165C14.4216 90.165 14.2907 90.205 14.1793 90.28C14.068 90.355 13.9812 90.4616 13.93 90.5863C13.8787 90.711 13.8653 90.8482 13.8914 90.9806C13.9176 91.113 13.982 91.2346 14.0767 91.3301C14.1714 91.4255 14.2921 91.4905 14.4234 91.5168C14.5547 91.5432 14.6909 91.5297 14.8146 91.478C14.9383 91.4263 15.044 91.3389 15.1184 91.2266C15.1928 91.1144 15.2325 90.9824 15.2325 90.8475C15.2319 90.6682 15.1613 90.4963 15.036 90.3691C14.9107 90.2419 14.7408 90.1694 14.5629 90.1675L14.5555 90.165ZM22.4741 87.88C22.3402 87.88 22.2093 87.92 22.098 87.995C21.9866 88.07 21.8998 88.1766 21.8486 88.3013C21.7974 88.426 21.784 88.5632 21.8101 88.6956C21.8362 88.828 21.9007 88.9496 21.9954 89.0451C22.0901 89.1405 22.2107 89.2055 22.342 89.2318C22.4734 89.2582 22.6095 89.2447 22.7332 89.193C22.8569 89.1413 22.9627 89.0539 23.037 88.9416C23.1114 88.8294 23.1511 88.6974 23.1511 88.5625C23.1512 88.3827 23.0808 88.2103 22.9555 88.0825C22.8301 87.9547 22.6598 87.8819 22.4816 87.88H22.4741ZM22.2906 92.2925C22.1566 92.292 22.0254 92.3316 21.9138 92.4063C21.8021 92.481 21.7149 92.5874 21.6633 92.712C21.6117 92.8367 21.5979 92.974 21.6238 93.1066C21.6496 93.2391 21.7139 93.361 21.8085 93.4567C21.9031 93.5524 22.0237 93.6176 22.1551 93.6442C22.2865 93.6707 22.4228 93.6573 22.5466 93.6057C22.6705 93.5542 22.7764 93.4667 22.8509 93.3544C22.9254 93.2421 22.9651 93.11 22.9651 92.975C22.9652 92.7957 22.8952 92.6236 22.7704 92.4959C22.6455 92.3681 22.4759 92.2951 22.298 92.2925H22.2906ZM16.8346 87.88C16.7006 87.8795 16.5694 87.9191 16.4578 87.9938C16.3461 88.0684 16.2589 88.1749 16.2073 88.2995C16.1557 88.4242 16.1419 88.5615 16.1678 88.6941C16.1936 88.8266 16.2579 88.9485 16.3525 89.0442C16.4471 89.1399 16.5677 89.2051 16.6991 89.2316C16.8305 89.2582 16.9668 89.2448 17.0906 89.1932C17.2145 89.1417 17.3204 89.0542 17.3949 88.9419C17.4694 88.8296 17.5092 88.6975 17.5092 88.5625C17.5092 88.3836 17.4396 88.2119 17.3153 88.0842C17.191 87.9566 17.0219 87.8832 16.8445 87.88H16.8346Z" fill="#37474F"/>
</svg>
