<svg width="248" height="222" viewBox="0 0 248 222" fill="none" xmlns="http://www.w3.org/2000/svg">
<path opacity="0.5" d="M99.0549 193.326L187.523 142.219C190.002 140.775 189.711 138.251 186.823 136.577L126.582 101.795C123.688 100.121 119.319 99.9352 116.816 101.386L28.3408 152.511C25.862 153.956 26.1533 156.479 29.0473 158.153L89.2884 192.935C92.1762 194.591 96.5513 194.77 99.0549 193.326Z" fill="#173D7A"/>
<path d="M3.55282 53.739L95.6156 0.561627C96.0733 0.276639 96.5875 0.09465 97.1226 0.0282741C97.6576 -0.0381018 98.2007 0.0127235 98.7141 0.177227V0.177227L98.8814 0.239227H98.9248L102.253 1.51643L99.2718 2.98583C99.2718 3.04163 99.3028 3.09123 99.3152 3.14703L114.312 71.4338C115.068 74.85 113.562 78.8738 110.959 80.3494L21.1027 132.243L21.4188 136.056L17.7874 134.643C16.548 134.072 15.5874 132.783 15.1784 130.923L0.187833 62.636C-0.549611 59.2322 0.95008 55.2394 3.55282 53.739Z" fill="#173D7A"/>
<path d="M3.55279 53.739L95.6156 0.561627C96.0733 0.276639 96.5875 0.09465 97.1225 0.0282741C97.6576 -0.0381018 98.2006 0.0127235 98.7141 0.177227V0.177227L98.8814 0.239227H98.9248L102.253 1.51643L99.2718 2.98583C99.2718 3.04163 99.3028 3.09123 99.3152 3.14703L109.187 48.1528L64.1471 83.2634L0.633985 57.4094C1.16534 55.8917 2.19397 54.5982 3.55279 53.739V53.739Z" fill="#396CAA"/>
<path d="M7.02316 64.2356L0.0205288 61.2472C-0.109608 58.5316 1.01206 55.7292 2.85877 54.2288L13.9514 58.8912L7.02316 64.2356Z" fill="#274F89"/>
<path d="M24.6288 135.691L116.692 82.5132C119.294 81.0128 120.8 77.02 120.05 73.6038L105.054 5.31702C104.304 1.89462 101.583 0.357019 98.9806 1.85122L6.93636 55.0286C4.33361 56.529 2.82774 60.5218 3.58377 63.938L18.5558 132.225C19.3304 135.647 22.0261 137.197 24.6288 135.691Z" fill="#A08DFA"/>
<path d="M6.03778 54.7L98.0944 1.52881C98.6314 1.18622 99.2491 0.990984 99.8854 0.96269C100.522 0.934396 101.154 1.07404 101.72 1.36761C100.778 1.17595 99.7994 1.34878 98.9805 1.85121L6.93635 55.0286C4.33361 56.529 2.82773 60.5218 3.58377 63.938L18.5557 132.225C18.6763 132.971 18.9577 133.682 19.3804 134.308C19.8031 134.934 20.357 135.461 21.0036 135.852C19.4543 135.511 18.1529 134.097 17.6758 131.902L2.67901 63.6156C1.92917 60.1994 3.42884 56.2066 6.03778 54.7Z" fill="white"/>
<path d="M26.6242 130.613L113.209 80.6222C115.589 79.2458 116.964 75.6002 116.276 72.4692L102.556 9.97944C101.868 6.87944 99.3833 5.43484 96.9789 6.81124L10.4191 56.7956C8.03322 58.172 6.65748 61.8238 7.32056 64.9486L21.0655 127.445C21.7534 130.569 24.2446 131.989 26.6242 130.613Z" fill="white"/>
<path d="M26.6242 130.613L113.209 80.6222C115.589 79.2458 116.964 75.6002 116.276 72.4692L102.556 9.97944C101.868 6.87944 99.3833 5.43484 96.9789 6.81124L10.4191 56.7956C8.03322 58.172 6.65748 61.8238 7.32056 64.9486L21.0655 127.445C21.7534 130.569 24.2446 131.989 26.6242 130.613Z" fill="#173D7A"/>
<path d="M25.8744 130.303L112.453 80.3185C114.839 78.9421 116.208 75.2903 115.551 72.1655L101.825 9.66945C101.716 8.99811 101.465 8.35779 101.088 7.79117C100.712 7.22456 100.22 6.74466 99.6436 6.38345C101.019 6.73685 102.153 8.02645 102.581 9.97945L116.276 72.4693C116.964 75.5693 115.589 79.2459 113.209 80.6223L26.6242 130.613C26.1243 130.933 25.5477 131.112 24.9548 131.133C24.3618 131.154 23.7741 131.015 23.2531 130.731C23.6966 130.835 24.1565 130.852 24.6064 130.778C25.0562 130.705 25.4871 130.543 25.8744 130.303V130.303Z" fill="#6045E4"/>
<path d="M23.3583 138.009L35.9445 136.348L117.175 89.4262C119.778 87.9196 124.326 88.1056 127.338 89.8416L184.896 123.08L192.506 122.075V126.415C192.555 127.414 191.985 128.375 190.758 129.081L98.6892 182.271C96.0864 183.778 91.5378 183.586 88.5323 181.85L25.8433 145.654C24.1516 144.674 23.3088 143.416 23.3645 142.238L23.3583 138.009Z" fill="#173D7A"/>
<path d="M84.3989 108.361L90.1745 105.025H153.619L184.896 123.08L192.506 122.075V126.415C192.555 127.414 191.985 128.375 190.758 129.081L98.6892 182.271C97.0712 183.093 95.2523 183.435 93.4465 183.257L84.3989 108.361Z" fill="#396CAA"/>
<path d="M189.128 122.522L192.506 122.075V126.415C192.555 127.414 191.985 128.375 190.758 129.081L189.128 129.999V122.522Z" fill="#6045E4"/>
<path d="M97.766 182.674C94.9243 183.597 91.8384 183.404 89.1336 182.135V172.5H97.766V182.674Z" fill="#274F89"/>
<path d="M98.6892 177.931L190.752 124.748C193.355 123.247 193.026 120.618 190.021 118.882L127.338 82.6868C124.326 80.9446 119.778 80.7586 117.175 82.2652L25.1183 135.436C22.5093 136.943 22.8378 139.572 25.8433 141.308L88.5323 177.503C91.5378 179.239 96.0864 179.432 98.6892 177.931Z" fill="#A08DFA"/>
<path d="M25.8435 139.733L88.5324 175.929C91.538 177.665 96.0866 177.851 98.6893 176.35L190.752 123.173C191.488 122.797 192.063 122.167 192.37 121.4C192.779 122.64 192.258 123.88 190.752 124.748L98.6893 177.931C96.0866 179.438 91.538 179.246 88.5324 177.51L25.8435 141.314C23.8232 140.148 23.0176 138.58 23.4948 137.216C23.9488 138.311 24.7829 139.205 25.8435 139.733V139.733Z" fill="white"/>
<path d="M151.599 107.146L155.764 104.771C156.098 104.579 156.055 104.238 155.671 104.015L150.75 101.175C150.553 101.064 150.332 101.002 150.106 100.993C149.879 100.984 149.654 101.03 149.449 101.126L145.285 103.531C144.95 103.723 144.987 104.058 145.378 104.281L150.292 107.121C150.493 107.227 150.716 107.284 150.943 107.289C151.17 107.293 151.395 107.244 151.599 107.146Z" fill="#6045E4"/>
<path d="M145.167 110.86L149.331 108.454C149.666 108.262 149.623 107.927 149.238 107.704L144.318 104.864C144.12 104.754 143.9 104.691 143.674 104.681C143.448 104.672 143.223 104.715 143.016 104.808L138.852 107.214C138.517 107.406 138.555 107.747 138.945 107.964L143.859 110.81C144.058 110.92 144.28 110.981 144.507 110.99C144.734 110.999 144.96 110.954 145.167 110.86V110.86Z" fill="#6045E4"/>
<path d="M138.734 114.58L142.899 112.168C143.233 111.976 143.19 111.641 142.806 111.418L137.885 108.578C137.688 108.467 137.467 108.405 137.241 108.395C137.015 108.385 136.79 108.429 136.584 108.522L132.42 110.928C132.085 111.12 132.122 111.461 132.513 111.684L137.427 114.524C137.625 114.635 137.847 114.697 138.074 114.707C138.301 114.717 138.527 114.673 138.734 114.58Z" fill="#6045E4"/>
<path d="M129.835 111.511L133.975 109.111C134.31 108.913 134.266 108.578 133.882 108.355L129.755 105.974C129.558 105.863 129.337 105.801 129.111 105.791C128.885 105.781 128.66 105.825 128.454 105.918L124.283 108.324C123.948 108.516 123.992 108.851 124.382 109.074L128.503 111.461C128.705 111.574 128.932 111.638 129.163 111.647C129.395 111.655 129.625 111.609 129.835 111.511V111.511Z" fill="#6045E4"/>
<path d="M123.403 115.224L127.567 112.831C127.902 112.639 127.859 112.298 127.474 112.075L123.347 109.694C123.15 109.583 122.929 109.521 122.703 109.511C122.477 109.501 122.252 109.545 122.046 109.638L117.875 112.044C117.541 112.236 117.584 112.577 117.968 112.8L122.095 115.181C122.295 115.289 122.517 115.35 122.744 115.357C122.971 115.365 123.197 115.319 123.403 115.224V115.224Z" fill="#6045E4"/>
<path d="M116.97 118.938L121.135 116.551C121.469 116.359 121.426 116.024 121.042 115.801L116.915 113.414C116.717 113.303 116.497 113.241 116.271 113.231C116.045 113.221 115.819 113.265 115.613 113.358L111.443 115.764C111.108 115.962 111.151 116.297 111.536 116.52L115.663 118.901C115.863 119.008 116.085 119.068 116.312 119.074C116.539 119.081 116.765 119.034 116.97 118.938V118.938Z" fill="#6045E4"/>
<path d="M110.538 122.658L114.702 120.271C115.037 120.079 114.993 119.744 114.609 119.521L110.482 117.134C110.285 117.023 110.064 116.96 109.837 116.952C109.611 116.943 109.386 116.989 109.181 117.084L105.01 119.49C104.675 119.682 104.719 120.017 105.103 120.24L109.23 122.627C109.431 122.734 109.653 122.792 109.88 122.797C110.107 122.803 110.332 122.755 110.538 122.658V122.658Z" fill="#6045E4"/>
<path d="M104.105 126.372L108.27 123.991C108.604 123.799 108.561 123.458 108.177 123.235L104.05 120.854C103.852 120.743 103.632 120.681 103.406 120.671C103.18 120.661 102.954 120.705 102.748 120.798L98.5777 123.204C98.2431 123.396 98.2865 123.737 98.6707 123.96L102.798 126.341C102.998 126.447 103.221 126.506 103.448 126.511C103.675 126.516 103.9 126.469 104.105 126.372V126.372Z" fill="#6045E4"/>
<path d="M97.673 130.086L101.837 127.711C102.172 127.519 102.129 127.178 101.744 126.955L97.6172 124.574C97.4198 124.463 97.1992 124.401 96.9732 124.391C96.7471 124.381 96.5219 124.425 96.3158 124.518L92.1452 126.924C91.8106 127.116 91.854 127.457 92.2382 127.68L96.3654 130.061C96.5665 130.166 96.7893 130.224 97.0163 130.228C97.2432 130.232 97.468 130.184 97.673 130.086V130.086Z" fill="#6045E4"/>
<path d="M91.2157 133.8L95.3801 131.394C95.7147 131.202 95.6713 130.867 95.2871 130.644L91.1599 128.257C90.9625 128.146 90.7415 128.083 90.5152 128.075C90.2889 128.066 90.0638 128.111 89.8585 128.207L85.6879 130.613C85.3533 130.805 85.3967 131.14 85.7809 131.363L89.9081 133.75C90.1066 133.861 90.3286 133.924 90.5559 133.932C90.7832 133.941 91.0094 133.895 91.2157 133.8V133.8Z" fill="#6045E4"/>
<path d="M84.8081 137.52L88.9725 135.114C89.3071 134.916 89.2637 134.581 88.8795 134.358L84.7523 131.977C84.5549 131.866 84.3343 131.803 84.1083 131.794C83.8822 131.784 83.6571 131.828 83.451 131.921L79.2804 134.327C78.9457 134.519 78.9891 134.854 79.3733 135.077L83.5005 137.464C83.6992 137.574 83.9208 137.637 84.1477 137.646C84.3747 137.656 84.6008 137.613 84.8081 137.52V137.52Z" fill="#6045E4"/>
<path d="M78.3755 141.233L82.5399 138.828C82.8745 138.636 82.8311 138.295 82.4469 138.071L78.3197 135.691C78.1223 135.58 77.9017 135.517 77.6757 135.508C77.4496 135.498 77.2244 135.541 77.0183 135.635L72.8477 138.04C72.5131 138.233 72.5565 138.574 72.9407 138.797L77.0679 141.178C77.2666 141.288 77.4881 141.35 77.7151 141.36C77.9421 141.37 78.1682 141.326 78.3755 141.233V141.233Z" fill="#6045E4"/>
<path d="M71.943 144.947L76.1074 142.542C76.442 142.349 76.3986 142.015 76.0144 141.791L71.8872 139.404C71.6898 139.294 71.4692 139.231 71.2432 139.221C71.0171 139.212 70.7919 139.255 70.5858 139.349L66.4152 141.754C66.0806 141.953 66.124 142.287 66.5082 142.511L70.6354 144.898C70.8344 145.007 71.0563 145.069 71.2833 145.078C71.5104 145.086 71.7363 145.042 71.943 144.947V144.947Z" fill="#6045E4"/>
<path d="M120.342 109.731L124.506 107.326C124.841 107.133 124.797 106.792 124.413 106.569L120.286 104.188C120.087 104.078 119.866 104.016 119.639 104.006C119.412 103.996 119.186 104.04 118.978 104.133L114.814 106.538C114.479 106.73 114.523 107.071 114.907 107.295L119.034 109.675C119.233 109.786 119.454 109.849 119.681 109.859C119.908 109.868 120.134 109.825 120.342 109.731V109.731Z" fill="#6045E4"/>
<path d="M126.886 106.011L131.05 103.606C131.385 103.407 131.341 103.072 130.957 102.849L126.83 100.468C126.633 100.358 126.412 100.295 126.186 100.285C125.96 100.276 125.735 100.319 125.529 100.413L121.358 102.818C121.023 103.01 121.067 103.345 121.457 103.568L125.584 105.955C125.782 106.066 126.002 106.129 126.228 106.139C126.454 106.148 126.68 106.105 126.886 106.011Z" fill="#6045E4"/>
<path d="M133.423 102.198L142.397 97.0212C142.731 96.8228 142.688 96.488 142.304 96.2648L138.177 93.884C137.978 93.7733 137.756 93.7106 137.529 93.7009C137.302 93.6912 137.076 93.7348 136.869 93.8282L127.902 99.0114C127.567 99.2036 127.604 99.5384 127.995 99.7616L132.116 102.149C132.314 102.261 132.536 102.324 132.764 102.332C132.991 102.341 133.217 102.295 133.423 102.198Z" fill="#6045E4"/>
<path d="M128.856 97.6102L136.138 93.4004C136.466 93.2082 136.429 92.8734 136.039 92.6502L131.911 90.2632C131.714 90.1526 131.493 90.0899 131.267 90.0802C131.041 90.0705 130.816 90.1141 130.61 90.2074L123.329 94.4172C122.994 94.6094 123.037 94.9442 123.422 95.1674L127.549 97.5544C127.747 97.6652 127.969 97.7279 128.196 97.7376C128.423 97.7473 128.649 97.7036 128.856 97.6102V97.6102Z" fill="#6045E4"/>
<path d="M113.928 113.451L118.092 111.046C118.427 110.853 118.383 110.519 117.999 110.295L113.872 107.908C113.673 107.798 113.452 107.736 113.225 107.726C112.998 107.716 112.772 107.76 112.564 107.853L108.4 110.258C108.065 110.457 108.109 110.791 108.493 111.015L112.62 113.395C112.819 113.506 113.04 113.569 113.267 113.579C113.494 113.588 113.721 113.545 113.928 113.451V113.451Z" fill="#6045E4"/>
<path d="M107.495 117.171L111.666 114.772C112 114.58 111.957 114.245 111.573 114.022L107.446 111.635C107.247 111.523 107.025 111.461 106.798 111.452C106.57 111.444 106.344 111.489 106.138 111.585L101.974 113.991C101.639 114.183 101.682 114.518 102.067 114.741L106.194 117.128C106.392 117.237 106.613 117.298 106.839 117.305C107.065 117.313 107.29 117.267 107.495 117.171Z" fill="#6045E4"/>
<path d="M101.063 120.891L105.227 118.486C105.562 118.293 105.518 117.952 105.134 117.729L101.007 115.348C100.808 115.238 100.587 115.176 100.36 115.166C100.133 115.156 99.9067 115.2 99.6994 115.293L95.535 117.698C95.2004 117.89 95.2437 118.231 95.6279 118.455L99.7552 120.835C99.9536 120.946 100.175 121.009 100.402 121.019C100.629 121.028 100.856 120.985 101.063 120.891V120.891Z" fill="#6045E4"/>
<path d="M94.6302 124.611L98.7946 122.206C99.1293 122.013 99.0859 121.672 98.7017 121.449L94.5745 119.068C94.3758 118.958 94.1542 118.896 93.9273 118.886C93.7003 118.876 93.4742 118.92 93.2669 119.013L89.1025 121.418C88.7679 121.61 88.8112 121.951 89.1955 122.175L93.3227 124.555C93.5212 124.666 93.7428 124.729 93.9698 124.739C94.1969 124.748 94.4231 124.705 94.6302 124.611V124.611Z" fill="#6045E4"/>
<path d="M88.1978 128.331L92.3621 125.926C92.6968 125.733 92.6534 125.399 92.2692 125.175L88.142 122.788C87.9435 122.677 87.7215 122.615 87.4942 122.606C87.2668 122.598 87.0407 122.643 86.8344 122.739L82.67 125.144C82.3354 125.337 82.3788 125.671 82.763 125.895L86.8778 128.275C87.0773 128.39 87.3013 128.454 87.531 128.464C87.7606 128.474 87.9893 128.428 88.1978 128.331Z" fill="#6045E4"/>
<path d="M81.7652 132.051L85.9296 129.646C86.2643 129.447 86.2209 129.112 85.8367 128.889L81.7095 126.508C81.5108 126.398 81.2892 126.336 81.0623 126.326C80.8353 126.316 80.6092 126.36 80.4019 126.453L76.2375 128.858C75.9029 129.05 75.9463 129.385 76.3305 129.608L80.4577 131.995C80.6562 132.106 80.8778 132.169 81.1049 132.179C81.3319 132.188 81.5581 132.145 81.7652 132.051V132.051Z" fill="#6045E4"/>
<path d="M75.3327 135.771L79.4971 133.366C79.8318 133.173 79.7884 132.832 79.4042 132.609L75.277 130.228C75.0783 130.118 74.8567 130.056 74.6298 130.046C74.4028 130.036 74.1767 130.08 73.9694 130.173L69.805 132.578C69.4704 132.77 69.5138 133.111 69.898 133.335L74.0252 135.715C74.2237 135.826 74.4453 135.889 74.6724 135.899C74.8994 135.908 75.1256 135.865 75.3327 135.771Z" fill="#6045E4"/>
<path d="M68.9064 139.491L73.0708 137.086C73.4054 136.893 73.362 136.559 72.9778 136.335L68.8444 133.911C68.6457 133.801 68.4242 133.739 68.1972 133.729C67.9702 133.719 67.7441 133.762 67.5368 133.855L63.3724 136.261C63.0378 136.459 63.0812 136.794 63.4654 137.017L67.5926 139.404C67.7899 139.52 68.0113 139.588 68.2393 139.603C68.4673 139.618 68.6956 139.58 68.9064 139.491V139.491Z" fill="#6045E4"/>
<path d="M62.4678 143.211L66.6322 140.799C66.9668 140.607 66.9234 140.272 66.5392 140.049L62.412 137.662C62.213 137.552 61.9911 137.491 61.7641 137.482C61.5371 137.474 61.3111 137.518 61.1044 137.613L56.94 140.018C56.6054 140.21 56.6488 140.545 57.033 140.768L61.1602 143.155C61.3587 143.266 61.5803 143.329 61.8074 143.339C62.0344 143.348 62.2606 143.305 62.4678 143.211V143.211Z" fill="#6045E4"/>
<path d="M51.0281 149.796L60.1191 144.544C60.4537 144.352 60.4104 144.017 60.0261 143.794L55.8989 141.407C55.7003 141.297 55.4787 141.234 55.2517 141.225C55.0248 141.215 54.7987 141.258 54.5914 141.351L45.5065 146.603C45.1719 146.795 45.2091 147.136 45.5995 147.359L49.6957 149.74C49.897 149.856 50.1231 149.921 50.3551 149.931C50.587 149.941 50.8179 149.894 51.0281 149.796V149.796Z" fill="#6045E4"/>
<path d="M38.504 142.591L46.1759 138.164C46.5105 137.966 46.4671 137.631 46.0829 137.408L41.9557 135.021C41.7578 134.911 41.537 134.85 41.3109 134.841C41.0849 134.833 40.86 134.877 40.6543 134.971L32.9638 139.367C32.6292 139.566 32.6726 139.9 33.0568 140.124L37.184 142.504C37.3812 142.623 37.6039 142.693 37.8335 142.708C38.0631 142.723 38.293 142.683 38.504 142.591V142.591Z" fill="#6045E4"/>
<path d="M102.661 112.738L106.826 110.351C107.161 110.159 107.117 109.818 106.733 109.595L102.606 107.214C102.407 107.103 102.186 107.041 101.959 107.031C101.731 107.021 101.505 107.065 101.298 107.158L97.1337 109.564C96.7991 109.756 96.8425 110.097 97.2267 110.32L101.354 112.701C101.554 112.808 101.776 112.868 102.003 112.874C102.23 112.881 102.456 112.834 102.661 112.738V112.738Z" fill="#6045E4"/>
<path d="M109.255 108.931L113.42 106.526C113.754 106.334 113.711 105.993 113.327 105.769L109.199 103.389C109.001 103.278 108.779 103.216 108.552 103.206C108.325 103.197 108.099 103.24 107.892 103.333L103.727 105.738C103.393 105.931 103.436 106.272 103.82 106.495L107.948 108.876C108.146 108.986 108.368 109.049 108.595 109.059C108.822 109.068 109.048 109.025 109.255 108.931V108.931Z" fill="#6045E4"/>
<path d="M115.843 105.125L120.013 102.713C120.348 102.521 120.304 102.186 119.92 101.963L115.793 99.5756C115.594 99.4659 115.372 99.4043 115.145 99.3956C114.918 99.387 114.692 99.4317 114.485 99.526L110.321 101.932C109.986 102.124 110.03 102.459 110.414 102.682L114.541 105.069C114.739 105.179 114.959 105.242 115.185 105.252C115.411 105.262 115.636 105.218 115.843 105.125V105.125Z" fill="#6045E4"/>
<path d="M122.436 101.312L126.601 98.9061C126.935 98.7139 126.898 98.3791 126.508 98.1559L122.38 95.7689C122.183 95.6582 121.962 95.5955 121.736 95.5858C121.51 95.5761 121.285 95.6197 121.079 95.7131L116.915 98.1249C116.58 98.3171 116.617 98.6519 117.008 98.8751L121.135 101.262C121.332 101.373 121.553 101.436 121.78 101.444C122.006 101.453 122.231 101.407 122.436 101.312V101.312Z" fill="#6045E4"/>
<path d="M96.229 116.452L100.393 114.071C100.728 113.879 100.685 113.544 100.3 113.321L96.1732 110.909C95.9747 110.799 95.7531 110.736 95.526 110.726C95.299 110.716 95.0728 110.76 94.8656 110.853L90.7012 113.259C90.3666 113.457 90.41 113.792 90.7942 114.015L94.9338 116.402C95.1317 116.509 95.3512 116.569 95.5757 116.577C95.8001 116.586 96.0236 116.543 96.229 116.452V116.452Z" fill="#6045E4"/>
<path d="M89.7966 120.172L93.961 117.791C94.2956 117.599 94.2523 117.264 93.8681 117.041L89.7409 114.654C89.5419 114.544 89.32 114.483 89.093 114.474C88.8659 114.465 88.64 114.51 88.4333 114.604L84.2689 117.01C83.9343 117.202 83.9776 117.537 84.3619 117.76L88.4891 120.147C88.6901 120.253 88.913 120.31 89.1399 120.314C89.3669 120.318 89.5917 120.27 89.7966 120.172V120.172Z" fill="#6045E4"/>
<path d="M83.364 123.886L87.4974 121.511C87.832 121.319 87.7886 120.978 87.4044 120.755L83.2772 118.374C83.0787 118.263 82.8571 118.201 82.6301 118.191C82.403 118.181 82.1768 118.225 81.9696 118.318L77.8052 120.724C77.4706 120.916 77.514 121.257 77.8982 121.48L82.0254 123.861C82.2305 123.971 82.4589 124.031 82.6917 124.036C82.9245 124.04 83.155 123.989 83.364 123.886V123.886Z" fill="#6045E4"/>
<path d="M76.9315 127.6L81.0959 125.194C81.4305 125.002 81.3871 124.661 81.0029 124.438L76.8757 122.057C76.6772 121.946 76.4556 121.883 76.2286 121.874C76.0015 121.864 75.7754 121.908 75.5682 122.001L71.4038 124.407C71.0691 124.599 71.1125 124.94 71.4967 125.163L75.6239 127.544C75.8226 127.654 76.0442 127.717 76.2711 127.726C76.4981 127.736 76.7242 127.693 76.9315 127.6V127.6Z" fill="#6045E4"/>
<path d="M70.4991 131.313L74.6635 128.908C74.9982 128.716 74.9548 128.381 74.5706 128.158L70.4434 125.771C70.2449 125.659 70.0229 125.597 69.7955 125.588C69.5682 125.58 69.3421 125.625 69.1358 125.721L64.9714 128.127C64.6368 128.319 64.6801 128.654 65.0644 128.877L69.1916 131.264C69.39 131.375 69.6121 131.437 69.8394 131.446C70.0667 131.455 70.2928 131.409 70.4991 131.313V131.313Z" fill="#6045E4"/>
<path d="M64.0665 135.033L68.2309 132.628C68.5655 132.429 68.5222 132.095 68.138 131.871L64.0107 129.491C63.8123 129.38 63.5906 129.317 63.3636 129.308C63.1365 129.298 62.9104 129.341 62.7032 129.435L58.5388 131.84C58.2041 132.033 58.2475 132.367 58.6318 132.591L62.7589 134.978C62.9576 135.088 63.1792 135.15 63.4061 135.16C63.6331 135.17 63.8592 135.126 64.0665 135.033V135.033Z" fill="#6045E4"/>
<path d="M57.634 138.747L61.7984 136.342C62.1331 136.149 62.0897 135.808 61.7055 135.585L57.5783 133.204C57.3798 133.094 57.1581 133.031 56.9311 133.021C56.704 133.012 56.4779 133.055 56.2707 133.149L52.1063 135.554C51.7717 135.746 51.815 136.087 52.1993 136.311L56.3265 138.691C56.5251 138.802 56.7467 138.864 56.9737 138.874C57.2006 138.884 57.4267 138.84 57.634 138.747V138.747Z" fill="#6045E4"/>
<path d="M51.2016 142.461L55.366 140.055C55.7007 139.863 55.6573 139.528 55.2731 139.305L51.1459 136.918C50.9474 136.808 50.7258 136.745 50.4987 136.735C50.2717 136.725 50.0455 136.769 49.8383 136.862L45.6739 139.268C45.3393 139.466 45.3826 139.801 45.7669 140.024L49.8941 142.411C50.0931 142.521 50.3149 142.583 50.542 142.591C50.769 142.6 50.9949 142.555 51.2016 142.461V142.461Z" fill="#6045E4"/>
<path d="M44.738 146.181L48.9024 143.775C49.2371 143.577 49.1937 143.242 48.8095 143.019L44.6823 140.632C44.4833 140.522 44.2614 140.461 44.0344 140.452C43.8073 140.443 43.5814 140.488 43.3747 140.582L39.2103 142.988C38.8757 143.18 38.919 143.515 39.3033 143.738L43.4305 146.125C43.6291 146.236 43.8507 146.298 44.0776 146.308C44.3046 146.317 44.5307 146.274 44.738 146.181V146.181Z" fill="#6045E4"/>
<path d="M106.045 103.531L110.216 101.126C110.55 100.927 110.507 100.592 110.117 100.369L105.989 97.9823C105.791 97.874 105.57 97.8131 105.345 97.8045C105.119 97.7959 104.894 97.8398 104.688 97.9327L100.524 100.338C100.189 100.53 100.232 100.865 100.617 101.088L104.744 103.475C104.941 103.586 105.162 103.649 105.388 103.659C105.614 103.668 105.839 103.625 106.045 103.531Z" fill="#6045E4"/>
<path d="M112.447 99.8484L116.623 97.4428C116.958 97.2506 116.921 96.9158 116.531 96.6926L112.403 94.3056C112.206 94.195 111.985 94.1323 111.759 94.1226C111.533 94.1129 111.308 94.1565 111.102 94.2498L106.938 96.6616C106.603 96.8538 106.64 97.1886 107.03 97.4118L111.145 99.8112C111.344 99.919 111.566 99.9784 111.792 99.9849C112.018 99.9914 112.242 99.9446 112.447 99.8484V99.8484Z" fill="#6045E4"/>
<path d="M118.848 96.1532L123.013 93.7476C123.347 93.5554 123.304 93.2144 122.92 92.9912L118.792 90.6105C118.595 90.4998 118.374 90.4371 118.148 90.4274C117.922 90.4177 117.697 90.4613 117.491 90.5547L113.32 92.9602C112.986 93.1524 113.029 93.4934 113.42 93.7166L117.547 96.0912C117.744 96.2029 117.964 96.2667 118.19 96.2774C118.416 96.2882 118.642 96.2457 118.848 96.1532V96.1532Z" fill="#6045E4"/>
<path d="M125.25 92.458L129.414 90.0524C129.749 89.854 129.705 89.5192 129.321 89.296L125.194 86.9152C124.995 86.8045 124.774 86.7418 124.547 86.7321C124.32 86.7224 124.093 86.766 123.886 86.8594L119.722 89.2712C119.387 89.4634 119.431 89.7982 119.815 90.0214L123.942 92.4084C124.141 92.5177 124.363 92.5791 124.59 92.5877C124.817 92.5963 125.043 92.5519 125.25 92.458V92.458Z" fill="#6045E4"/>
<path d="M118.668 88.6512L122.82 86.2456C123.155 86.0534 123.112 85.7186 122.727 85.4954L121.364 84.708C121.165 84.5978 120.944 84.5353 120.717 84.5256C120.49 84.516 120.264 84.5593 120.057 84.6522L115.892 87.0578C115.557 87.25 115.601 87.591 115.985 87.8142L117.348 88.6016C117.549 88.7129 117.773 88.7754 118.002 88.784C118.232 88.7926 118.46 88.7471 118.668 88.6512V88.6512Z" fill="#6045E4"/>
<path d="M110.315 93.481L114.479 91.0754C114.814 90.877 114.771 90.5422 114.386 90.319L113.023 89.5316C112.825 89.4209 112.603 89.3582 112.376 89.3485C112.149 89.3388 111.923 89.3824 111.715 89.4758L107.551 91.8814C107.216 92.0736 107.26 92.4146 107.644 92.6378L109.007 93.4252C109.206 93.5355 109.428 93.5979 109.655 93.6076C109.882 93.6173 110.108 93.574 110.315 93.481V93.481Z" fill="#6045E4"/>
<path d="M103.938 97.1638L108.109 94.752C108.443 94.5598 108.4 94.225 108.016 94.0018L106.646 93.2144C106.449 93.1038 106.228 93.0411 106.002 93.0314C105.776 93.0217 105.551 93.0653 105.345 93.1586L101.18 95.5642C100.846 95.7564 100.883 96.0974 101.273 96.3206L102.637 97.108C102.834 97.2187 103.055 97.2814 103.281 97.2911C103.507 97.3008 103.732 97.2572 103.938 97.1638V97.1638Z" fill="#6045E4"/>
<path d="M97.5676 100.84L101.751 98.4349C102.085 98.2427 102.042 97.9079 101.658 97.6847L100.294 96.8973C100.096 96.787 99.874 96.7245 99.6471 96.7149C99.4201 96.7052 99.194 96.7485 98.9867 96.8415L94.8223 99.2471C94.4877 99.4393 94.531 99.7803 94.9153 100.003L96.2786 100.791C96.4747 100.899 96.6934 100.96 96.9172 100.968C97.141 100.977 97.3637 100.933 97.5676 100.84V100.84Z" fill="#6045E4"/>
<path d="M91.2157 104.523L95.3863 102.118C95.7209 101.925 95.6775 101.591 95.2871 101.367L93.9238 100.574C93.7259 100.464 93.505 100.403 93.279 100.394C93.0529 100.385 92.828 100.43 92.6224 100.524L88.458 102.93C88.1234 103.122 88.1606 103.457 88.551 103.68L89.9143 104.467C90.1117 104.578 90.3323 104.641 90.5584 104.65C90.7844 104.66 91.0096 104.617 91.2157 104.523V104.523Z" fill="#6045E4"/>
<path d="M55.6078 125.076L59.7722 122.671C60.1068 122.478 60.0696 122.144 59.6792 121.92L58.3159 121.133C58.1185 121.022 57.8979 120.96 57.6718 120.95C57.4458 120.94 57.2206 120.984 57.0145 121.077L52.8439 123.483C52.5092 123.675 52.5526 124.016 52.943 124.239L54.3064 125.027C54.5038 125.138 54.7248 125.2 54.9511 125.209C55.1774 125.217 55.4025 125.172 55.6078 125.076V125.076Z" fill="#6045E4"/>
<path d="M49.2371 128.759L53.4139 126.353C53.7485 126.161 53.7052 125.826 53.3209 125.603L51.9576 124.816C51.7589 124.706 51.5374 124.643 51.3104 124.633C51.0834 124.624 50.8573 124.667 50.65 124.76L46.4856 127.166C46.151 127.358 46.1944 127.693 46.5786 127.916L47.9419 128.709C48.1398 128.816 48.3593 128.876 48.5838 128.884C48.8082 128.893 49.0317 128.85 49.2371 128.759V128.759Z" fill="#6045E4"/>
<path d="M42.8789 132.442L47.0433 130.036C47.3779 129.844 47.3407 129.503 46.9503 129.28L45.587 128.492C45.3885 128.381 45.1665 128.319 44.9391 128.31C44.7118 128.302 44.4857 128.347 44.2794 128.443L40.115 130.848C39.7804 131.041 39.8237 131.375 40.208 131.599L41.5775 132.386C41.7749 132.497 41.9955 132.559 42.2215 132.569C42.4476 132.579 42.6728 132.535 42.8789 132.442V132.442Z" fill="#6045E4"/>
<path d="M36.49 136.125L40.6544 133.719C40.989 133.527 40.9456 133.186 40.5614 132.963L39.1981 132.175C38.9994 132.065 38.7778 132.003 38.5509 131.993C38.3239 131.983 38.0978 132.026 37.8905 132.119L33.7261 134.525C33.3915 134.723 33.4349 135.058 33.8191 135.281L35.1824 136.069C35.3809 136.18 35.6025 136.242 35.8296 136.252C36.0566 136.262 36.2828 136.218 36.49 136.125V136.125Z" fill="#6045E4"/>
<path d="M99.6127 107.251L103.783 104.846C104.118 104.653 104.074 104.312 103.684 104.089L99.5569 101.708C99.3595 101.598 99.1389 101.535 98.9128 101.525C98.6868 101.516 98.4616 101.559 98.2555 101.653L94.0911 104.058C93.7565 104.25 93.7999 104.591 94.1841 104.815L98.3113 107.195C98.5087 107.306 98.7293 107.369 98.9553 107.378C99.1814 107.388 99.4065 107.345 99.6127 107.251V107.251Z" fill="#6045E4"/>
<path d="M93.1802 110.971L97.3507 108.566C97.6854 108.373 97.642 108.039 97.2516 107.815L93.1244 105.428C92.9271 105.323 92.708 105.264 92.4843 105.258C92.2606 105.251 92.0384 105.297 91.8354 105.391L87.671 107.797C87.3364 107.995 87.3798 108.33 87.764 108.553L91.8912 110.934C92.0885 111.04 92.3076 111.098 92.5313 111.105C92.755 111.111 92.9771 111.065 93.1802 110.971V110.971Z" fill="#6045E4"/>
<path d="M86.7477 114.691L90.9182 112.279C91.2529 112.087 91.2095 111.752 90.8191 111.529L86.6919 109.142C86.4945 109.031 86.2735 108.969 86.0472 108.96C85.8209 108.951 85.5958 108.997 85.3905 109.093L81.2261 111.498C80.8915 111.69 80.9349 112.025 81.3191 112.248L85.4463 114.635C85.6437 114.746 85.8643 114.809 86.0903 114.819C86.3164 114.828 86.5415 114.785 86.7477 114.691Z" fill="#6045E4"/>
<path d="M80.3152 118.411L84.4858 116.006C84.8204 115.813 84.777 115.472 84.3866 115.249L80.2594 112.868C80.062 112.758 79.8414 112.695 79.6154 112.685C79.3893 112.676 79.1641 112.719 78.958 112.813L74.7936 115.218C74.459 115.41 74.5024 115.751 74.8866 115.975L79.0138 118.355C79.2112 118.466 79.4318 118.529 79.6578 118.539C79.8839 118.548 80.109 118.505 80.3152 118.411V118.411Z" fill="#6045E4"/>
<path d="M73.8641 122.131L78.0347 119.726C78.3693 119.533 78.326 119.192 77.9355 118.969L73.8083 116.588C73.611 116.478 73.3904 116.415 73.1643 116.405C72.9383 116.396 72.7131 116.439 72.507 116.533L68.3426 118.938C68.0079 119.13 68.0513 119.471 68.4355 119.695L72.5627 122.075C72.7601 122.186 72.9807 122.249 73.2068 122.259C73.4328 122.268 73.658 122.225 73.8641 122.131V122.131Z" fill="#6045E4"/>
<path d="M67.4502 125.851L71.6208 123.446C71.9554 123.253 71.912 122.919 71.5216 122.695L67.3944 120.308C67.197 120.197 66.976 120.135 66.7497 120.126C66.5234 120.118 66.2983 120.163 66.093 120.259L61.9286 122.664C61.594 122.857 61.6374 123.191 62.0216 123.415L66.1488 125.802C66.3462 125.913 66.5672 125.975 66.7935 125.984C67.0198 125.992 67.2449 125.947 67.4502 125.851V125.851Z" fill="#6045E4"/>
<path d="M61.0177 129.571L65.1883 127.153C65.5229 126.955 65.4795 126.62 65.0891 126.397L60.9619 124.016C60.7645 123.905 60.5439 123.843 60.3179 123.833C60.0918 123.823 59.8666 123.867 59.6605 123.96L55.4961 126.366C55.1615 126.558 55.2049 126.893 55.5891 127.116L59.7163 129.503C59.9127 129.616 60.1328 129.681 60.3589 129.692C60.5849 129.704 60.8106 129.663 61.0177 129.571Z" fill="#6045E4"/>
<path d="M54.5852 133.291L58.7558 130.886C59.0904 130.693 59.047 130.352 58.6566 130.129L54.5294 127.711C54.332 127.601 54.1114 127.538 53.8854 127.528C53.6593 127.518 53.4342 127.562 53.2281 127.655L49.0637 130.061C48.729 130.253 48.7724 130.594 49.1566 130.817L53.2838 133.198C53.4782 133.315 53.6973 133.384 53.9234 133.4C54.1495 133.416 54.3762 133.379 54.5852 133.291Z" fill="#6045E4"/>
<path d="M48.1527 137.011L52.3232 134.606C52.6517 134.413 52.6145 134.079 52.2241 133.855L48.0969 131.468C47.8995 131.358 47.6789 131.295 47.4528 131.285C47.2268 131.276 47.0016 131.319 46.7955 131.413L42.6311 133.818C42.2965 134.017 42.3398 134.351 42.7241 134.575L46.8513 136.962C47.0491 137.071 47.27 137.133 47.4961 137.142C47.7221 137.15 47.947 137.106 48.1527 137.011V137.011Z" fill="#6045E4"/>
<path d="M136.392 107.722L148.656 100.636C148.99 100.444 148.953 100.103 148.563 99.8795L144.436 97.4987C144.238 97.388 144.018 97.3253 143.791 97.3156C143.565 97.3059 143.34 97.3495 143.134 97.4428L130.876 104.529C130.542 104.722 130.585 105.063 130.969 105.286L135.097 107.667C135.294 107.775 135.513 107.836 135.738 107.846C135.962 107.856 136.186 107.813 136.392 107.722V107.722Z" fill="#6045E4"/>
<path d="M57.3677 153.367L69.6315 146.311C69.9662 146.119 69.9228 145.784 69.5386 145.561L65.4114 143.174C65.2135 143.064 64.9926 143.003 64.7666 142.994C64.5405 142.986 64.3157 143.03 64.11 143.124L51.8399 150.211C51.5053 150.403 51.5487 150.738 51.9329 150.961L56.0601 153.348C56.2611 153.455 56.4843 153.512 56.7116 153.515C56.9389 153.518 57.1638 153.467 57.3677 153.367Z" fill="#6045E4"/>
<path d="M83.0913 146.714L87.2557 144.309C87.5903 144.116 87.547 143.782 87.1627 143.558L82.2485 140.719C82.0499 140.609 81.8283 140.546 81.6013 140.536C81.3744 140.527 81.1483 140.57 80.941 140.663L76.7766 143.069C76.4419 143.261 76.4853 143.602 76.8695 143.825L81.7837 146.665C81.9822 146.776 82.2043 146.838 82.4316 146.847C82.6589 146.856 82.885 146.81 83.0913 146.714V146.714Z" fill="#6045E4"/>
<path d="M129.805 119.732L136.454 115.888C136.789 115.696 136.745 115.355 136.361 115.131L131.441 112.292C131.243 112.181 131.023 112.118 130.797 112.109C130.57 112.099 130.345 112.143 130.139 112.236L123.477 116.086C123.143 116.278 123.186 116.619 123.57 116.843L128.485 119.682C128.685 119.795 128.909 119.859 129.139 119.868C129.368 119.876 129.597 119.83 129.805 119.732V119.732Z" fill="#6045E4"/>
<path d="M89.2884 143.137L95.9501 139.287C96.2848 139.094 96.2414 138.76 95.8572 138.536L90.9368 135.697C90.7394 135.586 90.5188 135.523 90.2927 135.514C90.0667 135.504 89.8415 135.548 89.6354 135.641L82.9736 139.491C82.639 139.683 82.6823 140.018 83.0666 140.241L87.9808 143.081C88.1794 143.191 88.401 143.254 88.628 143.263C88.8549 143.273 89.0811 143.23 89.2884 143.137V143.137Z" fill="#6045E4"/>
<path d="M120.521 125.095L127.158 121.245C127.493 121.052 127.45 120.718 127.065 120.494L122.151 117.655C121.952 117.545 121.731 117.482 121.504 117.472C121.277 117.463 121.051 117.506 120.844 117.599L114.182 121.449C113.847 121.641 113.89 121.976 114.275 122.199L119.195 125.039C119.396 125.154 119.621 125.219 119.851 125.228C120.082 125.238 120.312 125.192 120.521 125.095V125.095Z" fill="#6045E4"/>
<path d="M120.825 117.624L91.8602 134.364C91.5008 134.568 91.5008 134.903 91.8602 135.114L96.8736 138.009C97.0756 138.11 97.2984 138.163 97.5243 138.163C97.7501 138.163 97.9729 138.11 98.175 138.009L127.14 121.269L120.825 117.624Z" fill="#6045E4"/>
<path d="M65.1139 153.454L60.4723 156.132C60.1997 156.293 60.2306 156.566 60.5467 156.752L62.5607 157.911C62.7232 158.003 62.9051 158.055 63.0915 158.062C63.2779 158.07 63.4634 158.033 63.6328 157.955L68.2867 155.276C68.5656 155.121 68.5284 154.842 68.2124 154.656L66.1984 153.491C66.0332 153.4 65.8489 153.349 65.6605 153.343C65.4722 153.336 65.2849 153.374 65.1139 153.454V153.454Z" fill="#6045E4"/>
<path d="M71.5959 149.709L66.9606 152.387C66.6817 152.548 66.7189 152.821 67.0349 153.007L69.049 154.167C69.2103 154.258 69.3913 154.31 69.5767 154.318C69.7621 154.325 69.9466 154.288 70.1149 154.21L74.7564 151.532C75.0291 151.37 74.9981 151.098 74.6821 150.912L72.668 149.752C72.5055 149.661 72.3236 149.609 72.1372 149.601C71.9508 149.594 71.7653 149.631 71.5959 149.709V149.709Z" fill="#6045E4"/>
<path d="M78.0284 145.995L73.3931 148.673C73.1142 148.828 73.1514 149.107 73.4674 149.293L75.4814 150.459C75.6438 150.548 75.8245 150.598 76.0093 150.606C76.1942 150.613 76.3783 150.578 76.5473 150.502L81.1889 147.824C81.4616 147.663 81.4306 147.39 81.1146 147.204L79.1005 146.045C78.9385 145.952 78.7568 145.899 78.5704 145.891C78.384 145.882 78.1983 145.918 78.0284 145.995V145.995Z" fill="#6045E4"/>
<path d="M68.045 147.657L63.4035 150.335C63.1308 150.496 63.168 150.769 63.484 150.955L65.4918 152.114C65.6543 152.206 65.8363 152.258 66.0227 152.265C66.2091 152.273 66.3946 152.236 66.5639 152.158L71.2055 149.479C71.4782 149.318 71.441 149.045 71.1249 148.859L69.1171 147.7C68.9541 147.61 68.7723 147.559 68.5862 147.551C68.4001 147.544 68.2147 147.58 68.045 147.657V147.657Z" fill="#6045E4"/>
<path d="M42.6372 75.1538L77.2847 55.1402L76.8385 52.8834L42.191 72.9032L42.6372 75.1538Z" fill="#A08DFA"/>
<path d="M55.0437 78.9544L79.2306 64.9858L78.7844 62.7352L54.6037 76.7038L55.0437 78.9544Z" fill="#A08DFA"/>
<path d="M57.3366 72.153L78.2577 60.063L77.8115 57.8124L56.8904 69.8962L57.3366 72.153Z" fill="white"/>
<path d="M43.6101 80.0766L54.0707 74.0316L53.6245 71.781L43.1639 77.826L43.6101 80.0766Z" fill="#A9F944"/>
<path d="M80.9782 35.48L91.4387 29.435L90.9925 27.1782L80.532 33.2232L80.9782 35.48Z" fill="#A08DFA"/>
<path d="M82.1122 40.719L92.5728 34.674L92.1266 32.4172L81.666 38.4622L82.1122 40.719Z" fill="white"/>
<path d="M30.7638 113.358L41.2244 107.313L40.7782 105.063L30.3177 111.108L30.7638 113.358Z" fill="#A08DFA"/>
<path d="M84.3804 51.1908L94.8409 45.1458L94.3948 42.8952L83.9342 48.934L84.3804 51.1908Z" fill="#A08DFA"/>
<path d="M61.7737 52.8152C61.8503 52.9821 61.9613 53.131 62.0993 53.2522C62.2373 53.3734 62.3993 53.4641 62.5746 53.5185C62.75 53.5729 62.9349 53.5898 63.1172 53.5679C63.2995 53.5461 63.4752 53.4861 63.6328 53.3918C63.9743 53.1892 64.2309 52.8697 64.3551 52.4924C64.4793 52.1151 64.4626 51.7056 64.3082 51.3396C64.2322 51.1722 64.1216 51.0227 63.9839 50.9008C63.8462 50.779 63.6843 50.6876 63.5089 50.6326C63.3334 50.5776 63.1484 50.5603 62.9658 50.5817C62.7832 50.6031 62.6071 50.6628 62.4491 50.7568C62.1071 50.9605 61.8504 51.2811 61.7262 51.6595C61.602 52.0378 61.6189 52.4483 61.7737 52.8152V52.8152Z" fill="#A9F944"/>
<path d="M57.2684 55.413C57.3445 55.5805 57.455 55.73 57.5927 55.8518C57.7305 55.9736 57.8924 56.065 58.0678 56.12C58.2432 56.175 58.4283 56.1924 58.6109 56.171C58.7935 56.1496 58.9695 56.0899 59.1275 55.9958C59.4753 55.7959 59.7384 55.4759 59.8673 55.0958C59.9962 54.7157 59.9822 54.3017 59.8278 53.9312C59.7511 53.7643 59.6402 53.6154 59.5022 53.4942C59.3642 53.3731 59.2022 53.2823 59.0268 53.2279C58.8514 53.1735 58.6666 53.1567 58.4842 53.1785C58.3019 53.2004 58.1263 53.2604 57.9687 53.3546C57.6203 53.5525 57.3566 53.8713 57.2275 54.2507C57.0985 54.6301 57.113 55.0437 57.2684 55.413V55.413Z" fill="white"/>
<path d="M52.7632 58.017C52.8393 58.1845 52.9498 58.334 53.0875 58.4558C53.2253 58.5776 53.3872 58.669 53.5626 58.724C53.738 58.779 53.9231 58.7964 54.1057 58.775C54.2883 58.7536 54.4643 58.6939 54.6223 58.5998C54.9642 58.3961 55.2205 58.0751 55.3436 57.6965C55.4668 57.3179 55.4482 56.9074 55.2916 56.5414C55.2157 56.3738 55.1051 56.2242 54.9672 56.1025C54.8293 55.9808 54.6672 55.8896 54.4915 55.8352C54.3159 55.7807 54.1307 55.7641 53.9481 55.7864C53.7656 55.8088 53.5898 55.8696 53.4325 55.9648C53.091 56.1674 52.8349 56.4873 52.7118 56.8649C52.5886 57.2425 52.6069 57.652 52.7632 58.017Z" fill="#A08DFA"/>
<path d="M48.2579 60.621C48.334 60.7885 48.4445 60.938 48.5822 61.0598C48.72 61.1816 48.8819 61.273 49.0573 61.328C49.2327 61.383 49.4178 61.4004 49.6004 61.379C49.783 61.3576 49.959 61.2979 50.117 61.2038C50.46 61.0011 50.7176 60.6805 50.8419 60.3018C50.9662 59.9231 50.9486 59.5121 50.7925 59.1454C50.7166 58.9778 50.606 58.8282 50.4681 58.7065C50.3302 58.5847 50.1681 58.4936 49.9924 58.4392C49.8168 58.3847 49.6316 58.3681 49.449 58.3904C49.2665 58.4128 49.0907 58.4736 48.9334 58.5688C48.5899 58.7695 48.3316 59.0889 48.2072 59.4669C48.0827 59.8449 48.1008 60.2554 48.2579 60.621V60.621Z" fill="#A9F944"/>
<path d="M123.161 154.427L151.884 137.836C152.715 137.352 152.616 136.509 151.649 135.976L134.297 125.969C133.801 125.693 133.248 125.536 132.681 125.512C132.113 125.489 131.549 125.598 131.031 125.833L102.315 142.424C101.478 142.907 101.583 143.751 102.544 144.284L119.895 154.291C120.391 154.567 120.945 154.724 121.512 154.747C122.079 154.771 122.644 154.661 123.161 154.427V154.427Z" fill="white"/>
<g opacity="0.3">
<g opacity="0.3">
<path opacity="0.3" d="M60.8503 79.7108C58.8735 80.8516 58.8735 82.7116 60.8503 83.8524L94.4567 103.283C94.7627 103.436 95.1 103.516 95.4421 103.516C95.7841 103.516 96.1214 103.436 96.4274 103.283C96.5392 103.236 96.6345 103.156 96.7015 103.055C96.7685 102.953 96.8042 102.834 96.8042 102.713C96.8042 102.591 96.7685 102.472 96.7015 102.371C96.6345 102.27 96.5392 102.19 96.4274 102.142L62.7962 82.7178C61.9038 82.2032 61.9038 81.36 62.7962 80.8578L66.0558 78.9978C65.6964 78.4522 65.368 77.8818 65.0457 77.3052L60.8503 79.7108Z" fill="#A08DFA"/>
<path opacity="0.3" d="M108.462 95.1922L74.8309 75.7676C73.7172 75.2052 72.4872 74.9122 71.2397 74.9122C69.9922 74.9122 68.7622 75.2052 67.6485 75.7676L65.0458 77.2742C65.368 77.8508 65.6965 78.4212 66.0559 78.9668L69.6192 76.9022C70.1217 76.6483 70.6768 76.516 71.2397 76.516C71.8027 76.516 72.3577 76.6483 72.8602 76.9022L106.491 96.333C106.797 96.4887 107.134 96.5699 107.477 96.5699C107.819 96.5699 108.157 96.4887 108.462 96.333C108.574 96.2854 108.669 96.2059 108.736 96.1045C108.803 96.0031 108.839 95.8842 108.839 95.7626C108.839 95.6411 108.803 95.5222 108.736 95.4208C108.669 95.3194 108.574 95.2399 108.462 95.1922Z" fill="#6045E4"/>
<path opacity="0.3" d="M108.865 95.806L108.871 48.4876L73.6224 28.8336L68.6958 28.505L63.9303 31.5926L61.0053 34.1408L95.3429 88.6202L106.553 95.2356L108.865 95.806Z" fill="#6045E4"/>
<path opacity="0.3" d="M95.8325 101.777L106.367 95.6944V49.9694L95.5041 55.0162L95.8325 101.777Z" fill="#79B1E0"/>
<path opacity="0.3" d="M59.3445 34.5066V81.7444L96.3407 102.917L96.8364 102.719V55.413L59.3445 34.5066Z" fill="#A08DFA"/>
<path opacity="0.3" d="M80.1541 34.8972L72.7982 30.675C72.3155 30.4663 71.7929 30.3659 71.2672 30.3809C70.7416 30.3959 70.2256 30.5259 69.7555 30.7618L62.9388 34.705C62.7252 34.7962 62.5482 34.9561 62.4359 35.1594C62.3236 35.3628 62.2825 35.5978 62.3191 35.8272L80.9101 46.9376L95.7953 56.1012L106.367 49.9694L80.1541 34.8972Z" fill="white"/>
<path opacity="0.3" d="M95.5041 54.669V103.531C95.8261 103.533 96.1434 103.454 96.4274 103.302C96.5373 103.251 96.6326 103.173 96.7041 103.076C96.7757 102.978 96.8212 102.864 96.8364 102.744V55.413L95.5041 54.669Z" fill="#6045E4"/>
<path opacity="0.3" d="M108.871 49.0766V48.4876H108.679L108.623 48.8906L108.871 49.0766Z" fill="white"/>
<path opacity="0.3" d="M96.8364 56.0268V55.4254L96.6567 55.6796L96.8364 56.0268Z" fill="white"/>
<path opacity="0.3" d="M94.4568 55.9772L60.8504 36.5712C58.8736 35.4304 58.8736 33.5704 60.8504 32.4296L67.6671 28.4864C68.7799 27.9211 70.0103 27.6265 71.2583 27.6265C72.5063 27.6265 73.7367 27.9211 74.8495 28.4864L108.462 47.8862C108.574 47.9339 108.669 48.0133 108.736 48.1148C108.803 48.2162 108.839 48.3351 108.839 48.4566C108.839 48.5782 108.803 48.6971 108.736 48.7985C108.669 48.8999 108.574 48.9794 108.462 49.027C108.156 49.1799 107.819 49.2594 107.477 49.2594C107.135 49.2594 106.797 49.1799 106.491 49.027L72.8602 29.5962C72.3577 29.3423 71.8027 29.21 71.2397 29.21C70.6768 29.21 70.1217 29.3423 69.6192 29.5962L62.8025 33.5394C61.9101 34.054 61.9101 34.8972 62.8025 35.3994L96.4274 54.8364C96.5392 54.8841 96.6346 54.9635 96.7016 55.065C96.7686 55.1664 96.8043 55.2853 96.8043 55.4068C96.8043 55.5284 96.7686 55.6473 96.7016 55.7487C96.6346 55.8501 96.5392 55.9296 96.4274 55.9772C96.1214 56.1301 95.7841 56.2096 95.4421 56.2096C95.1001 56.2096 94.7628 56.1301 94.4568 55.9772V55.9772Z" fill="#A08DFA"/>
<path opacity="0.3" d="M85.6942 78.3716L68.2186 68.278V50.7444L85.6942 60.8442V78.3716Z" fill="white"/>
<path opacity="0.3" d="M108.462 49.027C108.156 49.1799 107.819 49.2594 107.477 49.2594C107.135 49.2594 106.797 49.1799 106.491 49.027L72.8602 29.5962C72.3577 29.3423 71.8027 29.21 71.2397 29.21C70.6768 29.21 70.1217 29.3423 69.6192 29.5962L62.8025 33.5394C62.22 33.8804 62.0217 34.3516 62.1828 34.7794C62.3115 34.5073 62.5305 34.2882 62.8025 34.1594L69.6192 30.2162C70.1217 29.9623 70.6768 29.83 71.2397 29.83C71.8027 29.83 72.3577 29.9623 72.8602 30.2162L106.491 49.647C106.797 49.8027 107.134 49.8839 107.477 49.8839C107.819 49.8839 108.157 49.8027 108.462 49.647C108.871 49.4114 108.97 49.027 108.759 48.7666C108.678 48.8716 108.577 48.96 108.462 49.027V49.027Z" fill="white"/>
<path opacity="0.3" d="M96.4273 55.9772C96.1213 56.1301 95.784 56.2096 95.442 56.2096C95.1 56.2096 94.7627 56.1301 94.4567 55.9772L60.8503 36.5712C60.4952 36.4009 60.1814 36.1551 59.931 35.851C59.6805 35.5469 59.4994 35.1918 59.4002 34.8104C59.2453 35.6598 59.7225 36.5464 60.8503 37.1974L94.4567 56.5972C94.7618 56.7529 95.0995 56.8341 95.442 56.8341C95.7845 56.8341 96.1222 56.7529 96.4273 56.5972C96.8425 56.3616 96.9417 55.9772 96.7248 55.7168C96.6446 55.8232 96.5434 55.9119 96.4273 55.9772V55.9772Z" fill="white"/>
<path opacity="0.3" d="M45.3579 88.8682C43.381 90.009 43.381 91.869 45.3579 93.016L78.9891 112.441C79.2942 112.596 79.6319 112.677 79.9744 112.677C80.3169 112.677 80.6546 112.596 80.9597 112.441C81.0715 112.393 81.1668 112.314 81.2338 112.212C81.3008 112.111 81.3365 111.992 81.3365 111.87C81.3365 111.749 81.3008 111.63 81.2338 111.528C81.1668 111.427 81.0715 111.347 80.9597 111.3L47.3285 91.8752C46.4362 91.3606 46.4362 90.5236 47.3285 90.0152L50.5882 88.1552C50.2226 87.6096 49.8941 87.0392 49.5781 86.4626L45.3579 88.8682Z" fill="#A9F944"/>
<path opacity="0.3" d="M93.0004 104.356L59.3631 84.9313C58.2489 84.3669 57.0176 84.0728 55.7688 84.0728C54.52 84.0728 53.2887 84.3669 52.1745 84.9313L49.5718 86.4378C49.8878 87.0144 50.1915 87.5849 50.5819 88.1305L54.1452 86.0721C54.6477 85.8181 55.2028 85.6858 55.7657 85.6858C56.3287 85.6858 56.8837 85.8181 57.3862 86.0721L91.0298 105.49C91.3349 105.646 91.6726 105.727 92.0151 105.727C92.3576 105.727 92.6953 105.646 93.0004 105.49C93.1104 105.442 93.2039 105.362 93.2695 105.262C93.3352 105.161 93.3701 105.043 93.3701 104.923C93.3701 104.803 93.3352 104.685 93.2695 104.585C93.2039 104.484 93.1104 104.404 93.0004 104.356Z" fill="#C1F381"/>
<path opacity="0.3" d="M93.4032 104.963V57.645L58.1608 37.991L53.2342 37.6624L48.4687 40.7562L45.5437 43.2982L79.8813 97.7838L91.0917 104.393L93.4032 104.963Z" fill="#C1F381"/>
<path opacity="0.3" d="M80.371 110.94L90.9059 104.852V59.1268L80.0425 64.1736L80.371 110.94Z" fill="#D7FAAC"/>
<path opacity="0.3" d="M43.883 43.664V90.9018L80.8791 112.081L81.3749 111.883V64.5704L43.883 43.664Z" fill="#A9F944"/>
<path opacity="0.3" d="M64.6925 44.0546L57.3367 39.8324C56.8535 39.6253 56.3312 39.5259 55.8058 39.5408C55.2804 39.5558 54.7645 39.6849 54.2939 39.9192L47.4772 43.8624C46.9505 44.1724 46.7336 44.5878 46.8575 44.9846L65.4486 56.095L80.3772 65.2586L90.9059 59.1268L64.6925 44.0546Z" fill="white"/>
<path opacity="0.3" d="M80.0611 63.8512V112.689C80.3831 112.69 80.7004 112.611 80.9844 112.459C81.095 112.41 81.1909 112.332 81.2626 112.234C81.3343 112.136 81.3794 112.022 81.3934 111.901V111.901V64.5704L80.0611 63.8512Z" fill="#C1F381"/>
<path opacity="0.3" d="M93.4032 58.234V57.645H93.2173L93.1615 58.048L93.4032 58.234Z" fill="white"/>
<path opacity="0.3" d="M81.3749 65.1842V64.5828L81.189 64.837L81.3749 65.1842Z" fill="white"/>
<path opacity="0.3" d="M78.9951 65.1346L45.3578 45.7038C43.3809 44.563 43.3809 42.703 45.3578 41.5622L52.1745 37.619C53.287 37.0567 54.5161 36.7637 55.7625 36.7637C57.009 36.7637 58.238 37.0567 59.3506 37.619L93.0004 57.0312C93.1122 57.0789 93.2075 57.1583 93.2745 57.2598C93.3415 57.3612 93.3772 57.4801 93.3772 57.6016C93.3772 57.7232 93.3415 57.8421 93.2745 57.9435C93.2075 58.0449 93.1122 58.1244 93.0004 58.172C92.6952 58.3277 92.3576 58.4089 92.015 58.4089C91.6725 58.4089 91.3349 58.3277 91.0297 58.172L57.3985 38.7474C56.8969 38.4906 56.3415 38.3567 55.778 38.3567C55.2145 38.3567 54.6591 38.4906 54.1575 38.7474L47.3408 42.6844C46.4484 43.199 46.4484 44.0422 47.3408 44.5444L80.972 63.969C81.0838 64.0167 81.1791 64.0961 81.2461 64.1976C81.3131 64.299 81.3488 64.4179 81.3488 64.5394C81.3488 64.661 81.3131 64.7799 81.2461 64.8813C81.1791 64.9827 81.0838 65.0622 80.972 65.1098C80.6671 65.2675 80.3297 65.3519 79.9865 65.3562C79.6433 65.3605 79.3039 65.2846 78.9951 65.1346V65.1346Z" fill="#A9F944"/>
<path opacity="0.3" d="M70.2327 87.529L52.7571 77.4354V59.908L70.2327 70.0016V87.529Z" fill="white"/>
<path opacity="0.3" d="M93.0004 58.1844C92.6952 58.3401 92.3576 58.4213 92.015 58.4213C91.6725 58.4213 91.3349 58.3401 91.0297 58.1844L57.3985 38.7598C56.8969 38.503 56.3415 38.3691 55.778 38.3691C55.2145 38.3691 54.6591 38.503 54.1575 38.7598L47.3408 42.6968C46.7583 43.0378 46.56 43.5152 46.7211 43.9368C46.8535 43.6673 47.0714 43.4492 47.3408 43.3168L54.1575 39.3736C54.66 39.1197 55.2151 38.9874 55.778 38.9874C56.341 38.9874 56.8961 39.1197 57.3985 39.3736L91.0297 58.8044C91.3349 58.9601 91.6725 59.0413 92.015 59.0413C92.3576 59.0413 92.6952 58.9601 93.0004 58.8044C93.4094 58.5688 93.5085 58.2216 93.2978 57.924C93.2179 58.0306 93.1166 58.1193 93.0004 58.1844Z" fill="white"/>
<path opacity="0.3" d="M80.9659 65.1346C80.6599 65.2874 80.3226 65.367 79.9806 65.367C79.6385 65.367 79.3012 65.2874 78.9952 65.1346L45.3579 45.7038C45.0027 45.5335 44.689 45.2877 44.4385 44.9836C44.1881 44.6795 44.007 44.3244 43.9078 43.943C43.7466 44.7986 44.23 45.679 45.3579 46.33L78.989 65.7546C79.2942 65.9103 79.6318 65.9915 79.9743 65.9915C80.3169 65.9915 80.6545 65.9103 80.9597 65.7546C81.3749 65.519 81.474 65.1656 81.2571 64.8742C81.179 64.9802 81.0799 65.0688 80.9659 65.1346V65.1346Z" fill="white"/>
<path opacity="0.3" d="M29.4748 98.658C27.498 99.7988 27.498 101.659 29.4748 102.8L63.106 122.23C63.412 122.383 63.7493 122.463 64.0914 122.463C64.4334 122.463 64.7707 122.383 65.0767 122.23C65.1885 122.183 65.2838 122.103 65.3508 122.002C65.4178 121.9 65.4535 121.782 65.4535 121.66C65.4535 121.538 65.4178 121.42 65.3508 121.318C65.2838 121.217 65.1885 121.137 65.0767 121.09L31.4455 101.671C30.5531 101.157 30.5531 100.313 31.4455 99.8112L34.7051 97.9512C34.3457 97.4056 34.0172 96.8352 33.695 96.2586L29.4748 98.658Z" fill="#A08DFA"/>
<path opacity="0.3" d="M77.1113 114.139L43.4987 94.7148C42.3862 94.1525 41.1571 93.8595 39.9107 93.8595C38.6642 93.8595 37.4351 94.1525 36.3226 94.7148L33.7136 96.2214C34.0359 96.798 34.3643 97.3684 34.7238 97.914L38.287 95.8494C38.7895 95.5955 39.3446 95.4632 39.9076 95.4632C40.4705 95.4632 41.0256 95.5955 41.5281 95.8494L75.1407 115.311C75.4467 115.464 75.784 115.544 76.126 115.544C76.468 115.544 76.8053 115.464 77.1113 115.311C77.2331 115.269 77.3387 115.19 77.4134 115.085C77.4882 114.98 77.5283 114.854 77.5283 114.725C77.5283 114.596 77.4882 114.471 77.4134 114.366C77.3387 114.261 77.2331 114.182 77.1113 114.139Z" fill="#6045E4"/>
<path opacity="0.3" d="M77.5141 114.753L77.5203 67.4348L42.2717 47.7808L37.3451 47.4522L32.5796 50.5398L29.6546 53.088L63.9922 107.567L75.2026 114.183L77.5141 114.753Z" fill="#6045E4"/>
<path opacity="0.3" d="M64.4818 120.724L75.0167 114.642V68.9166L64.1534 73.9634L64.4818 120.724Z" fill="#79B1E0"/>
<path opacity="0.3" d="M27.9938 53.4538V100.692L64.9899 121.865L65.4857 121.666V74.3602L27.9938 53.4538Z" fill="#A08DFA"/>
<path opacity="0.3" d="M48.8034 53.8444L41.4475 49.5912C40.9639 49.3851 40.4413 49.2867 39.9159 49.3027C39.3905 49.3188 38.8749 49.449 38.4048 49.6842L31.5881 53.6274C31.3745 53.7186 31.1975 53.8785 31.0852 54.0818C30.9729 54.2852 30.9318 54.5202 30.9684 54.7496L49.5594 65.86L64.4446 75.0484L75.0167 68.9104L48.8034 53.8444Z" fill="white"/>
<path opacity="0.3" d="M64.1533 73.6162V122.46C64.4754 122.461 64.7927 122.382 65.0767 122.23C65.1866 122.18 65.2819 122.102 65.3534 122.004C65.425 121.907 65.4705 121.793 65.4857 121.672V74.3912L64.1533 73.6162Z" fill="#6045E4"/>
<path opacity="0.3" d="M77.5203 68.0238V67.4348H77.3282L77.2724 67.8378L77.5203 68.0238Z" fill="white"/>
<path opacity="0.3" d="M65.4857 74.974V74.3726L65.306 74.6268L65.4857 74.974Z" fill="white"/>
<path opacity="0.3" d="M63.1061 74.9244L29.4749 55.4936C27.4981 54.3528 27.4981 52.4928 29.4749 51.352L36.2917 47.4088C37.4032 46.8431 38.6326 46.5482 39.8797 46.5482C41.1268 46.5482 42.3563 46.8431 43.4678 47.4088L77.099 66.8334C77.2108 66.8811 77.3061 66.9606 77.3731 67.062C77.4401 67.1634 77.4758 67.2823 77.4758 67.4038C77.4758 67.5254 77.4401 67.6443 77.3731 67.7457C77.3061 67.8471 77.2108 67.9266 77.099 67.9742C76.793 68.1271 76.4557 68.2066 76.1137 68.2066C75.7717 68.2066 75.4343 68.1271 75.1283 67.9742L41.4971 48.5434C40.9947 48.2895 40.4396 48.1572 39.8766 48.1572C39.3137 48.1572 38.7586 48.2895 38.2561 48.5434L31.4394 52.4866C30.547 53.0012 30.547 53.8382 31.4394 54.3466L65.0768 73.7712C65.1886 73.8189 65.2839 73.8984 65.3509 73.9998C65.4179 74.1012 65.4536 74.2201 65.4536 74.3416C65.4536 74.4632 65.4179 74.5821 65.3509 74.6835C65.2839 74.7849 65.1886 74.8644 65.0768 74.912C64.7718 75.0668 64.4349 75.1485 64.0929 75.1506C63.7509 75.1528 63.4131 75.0753 63.1061 74.9244Z" fill="#A08DFA"/>
<path opacity="0.3" d="M54.3435 97.3189L36.8679 87.2191V69.6917L54.3435 79.7915V97.3189Z" fill="white"/>
<path opacity="0.3" d="M77.1113 67.9742C76.8053 68.1271 76.468 68.2066 76.126 68.2066C75.784 68.2066 75.4467 68.1271 75.1407 67.9742L41.5095 48.5434C41.007 48.2895 40.4519 48.1572 39.889 48.1572C39.326 48.1572 38.771 48.2895 38.2685 48.5434L31.4518 52.4866C30.8692 52.8276 30.6709 53.2988 30.8321 53.7266C30.9608 53.4545 31.1798 53.2354 31.4518 53.1066L38.2685 49.1634C38.771 48.9095 39.326 48.7772 39.889 48.7772C40.4519 48.7772 41.007 48.9095 41.5095 49.1634L75.1407 68.588C75.4458 68.7437 75.7835 68.8249 76.126 68.8249C76.4685 68.8249 76.8062 68.7437 77.1113 68.588C77.5203 68.3524 77.6195 67.968 77.4088 67.7076C77.3278 67.8149 77.2267 67.9054 77.1113 67.9742V67.9742Z" fill="white"/>
<path opacity="0.3" d="M65.0767 74.9245C64.7707 75.0773 64.4334 75.1568 64.0913 75.1568C63.7493 75.1568 63.412 75.0773 63.106 74.9245L29.4748 55.4936C29.1162 55.3255 28.7989 55.0806 28.5451 54.7764C28.2913 54.4722 28.1074 54.1159 28.0062 53.7328C27.8512 54.5822 28.3284 55.4688 29.4563 56.1198L63.0874 75.5445C63.3926 75.7001 63.7302 75.7813 64.0728 75.7813C64.4153 75.7813 64.7529 75.7001 65.0581 75.5445C65.4733 75.3089 65.5724 74.9245 65.3555 74.6641C65.2808 74.7685 65.186 74.857 65.0767 74.9245Z" fill="white"/>
</g>
</g>
<path d="M60.8503 79.7108C58.8735 80.8516 58.8735 82.7116 60.8503 83.8524L94.4567 103.283C94.7627 103.436 95.1 103.516 95.4421 103.516C95.7841 103.516 96.1214 103.436 96.4274 103.283C96.5392 103.236 96.6345 103.156 96.7015 103.055C96.7685 102.953 96.8042 102.834 96.8042 102.713C96.8042 102.591 96.7685 102.472 96.7015 102.371C96.6345 102.27 96.5392 102.19 96.4274 102.142L62.7962 82.7178C61.9038 82.2032 61.9038 81.36 62.7962 80.8578L66.0558 78.9978C65.6964 78.4522 65.368 77.8818 65.0457 77.3052L60.8503 79.7108Z" fill="#A08DFA"/>
<path d="M108.462 95.1922L74.8309 75.7676C73.7172 75.2052 72.4872 74.9122 71.2397 74.9122C69.9922 74.9122 68.7622 75.2052 67.6485 75.7676L65.0458 77.2742C65.368 77.8508 65.6965 78.4212 66.0559 78.9668L69.6192 76.9022C70.1217 76.6483 70.6768 76.516 71.2397 76.516C71.8027 76.516 72.3577 76.6483 72.8602 76.9022L106.491 96.333C106.797 96.4887 107.134 96.5699 107.477 96.5699C107.819 96.5699 108.157 96.4887 108.462 96.333C108.574 96.2854 108.669 96.2059 108.736 96.1045C108.803 96.0031 108.839 95.8842 108.839 95.7626C108.839 95.6411 108.803 95.5222 108.736 95.4208C108.669 95.3194 108.574 95.2399 108.462 95.1922Z" fill="#6045E4"/>
<path d="M108.865 95.806L108.871 48.4876L73.6224 28.8336L68.6958 28.505L63.9303 31.5926L61.0053 34.1408L95.3429 88.6202L106.553 95.2356L108.865 95.806Z" fill="#6045E4"/>
<path d="M95.8325 101.777L106.367 95.6944V49.9694L95.5041 55.0162L95.8325 101.777Z" fill="#79B1E0"/>
<path d="M59.3445 34.5066V81.7444L96.3407 102.917L96.8364 102.719V55.413L59.3445 34.5066Z" fill="#A08DFA"/>
<path d="M80.1541 34.8972L72.7982 30.675C72.3155 30.4663 71.7929 30.3659 71.2672 30.3809C70.7416 30.3959 70.2256 30.5259 69.7555 30.7618L62.9388 34.705C62.7252 34.7962 62.5482 34.9561 62.4359 35.1594C62.3236 35.3628 62.2825 35.5978 62.3191 35.8272L80.9101 46.9376L95.7953 56.1012L106.367 49.9694L80.1541 34.8972Z" fill="white"/>
<path d="M95.5041 54.669V103.531C95.8261 103.533 96.1434 103.454 96.4274 103.302C96.5373 103.251 96.6326 103.173 96.7041 103.076C96.7757 102.978 96.8212 102.864 96.8364 102.744V55.413L95.5041 54.669Z" fill="#6045E4"/>
<path d="M108.871 49.0766V48.4876H108.679L108.623 48.8906L108.871 49.0766Z" fill="white"/>
<path d="M96.8364 56.0268V55.4254L96.6567 55.6796L96.8364 56.0268Z" fill="white"/>
<path d="M94.4568 55.9772L60.8504 36.5712C58.8736 35.4304 58.8736 33.5704 60.8504 32.4296L67.6671 28.4864C68.7799 27.9211 70.0103 27.6265 71.2583 27.6265C72.5063 27.6265 73.7367 27.9211 74.8495 28.4864L108.462 47.8862C108.574 47.9339 108.669 48.0133 108.736 48.1148C108.803 48.2162 108.839 48.3351 108.839 48.4566C108.839 48.5782 108.803 48.6971 108.736 48.7985C108.669 48.8999 108.574 48.9794 108.462 49.027C108.156 49.1799 107.819 49.2594 107.477 49.2594C107.135 49.2594 106.797 49.1799 106.491 49.027L72.8602 29.5962C72.3577 29.3423 71.8027 29.21 71.2397 29.21C70.6768 29.21 70.1217 29.3423 69.6192 29.5962L62.8025 33.5394C61.9101 34.054 61.9101 34.8972 62.8025 35.3994L96.4274 54.8364C96.5392 54.8841 96.6346 54.9635 96.7016 55.065C96.7686 55.1664 96.8043 55.2853 96.8043 55.4068C96.8043 55.5284 96.7686 55.6473 96.7016 55.7487C96.6346 55.8501 96.5392 55.9296 96.4274 55.9772C96.1214 56.1301 95.7841 56.2096 95.4421 56.2096C95.1001 56.2096 94.7628 56.1301 94.4568 55.9772V55.9772Z" fill="#A08DFA"/>
<path d="M85.6942 78.3716L68.2186 68.278V50.7444L85.6942 60.8442V78.3716Z" fill="white"/>
<path d="M108.462 49.027C108.156 49.1799 107.819 49.2594 107.477 49.2594C107.135 49.2594 106.797 49.1799 106.491 49.027L72.8602 29.5962C72.3577 29.3423 71.8027 29.21 71.2397 29.21C70.6768 29.21 70.1217 29.3423 69.6192 29.5962L62.8025 33.5394C62.22 33.8804 62.0217 34.3516 62.1828 34.7794C62.3115 34.5073 62.5305 34.2882 62.8025 34.1594L69.6192 30.2162C70.1217 29.9623 70.6768 29.83 71.2397 29.83C71.8027 29.83 72.3577 29.9623 72.8602 30.2162L106.491 49.647C106.797 49.8027 107.134 49.8839 107.477 49.8839C107.819 49.8839 108.157 49.8027 108.462 49.647C108.871 49.4114 108.97 49.027 108.759 48.7666C108.678 48.8716 108.577 48.96 108.462 49.027V49.027Z" fill="white"/>
<path d="M96.4273 55.9772C96.1213 56.1301 95.784 56.2096 95.442 56.2096C95.1 56.2096 94.7627 56.1301 94.4567 55.9772L60.8503 36.5712C60.4952 36.4009 60.1814 36.1551 59.931 35.851C59.6805 35.5469 59.4994 35.1918 59.4002 34.8104C59.2453 35.6598 59.7225 36.5464 60.8503 37.1974L94.4567 56.5972C94.7618 56.7529 95.0995 56.8341 95.442 56.8341C95.7845 56.8341 96.1222 56.7529 96.4273 56.5972C96.8425 56.3616 96.9417 55.9772 96.7248 55.7168C96.6446 55.8232 96.5434 55.9119 96.4273 55.9772V55.9772Z" fill="white"/>
<path d="M45.3579 88.8682C43.381 90.009 43.381 91.869 45.3579 93.016L78.9891 112.441C79.2942 112.596 79.6319 112.677 79.9744 112.677C80.3169 112.677 80.6546 112.596 80.9597 112.441C81.0715 112.393 81.1668 112.314 81.2338 112.212C81.3008 112.111 81.3365 111.992 81.3365 111.87C81.3365 111.749 81.3008 111.63 81.2338 111.528C81.1668 111.427 81.0715 111.347 80.9597 111.3L47.3285 91.8752C46.4362 91.3606 46.4362 90.5236 47.3285 90.0152L50.5882 88.1552C50.2226 87.6096 49.8941 87.0392 49.5781 86.4626L45.3579 88.8682Z" fill="#A9F944"/>
<path d="M93.0004 104.356L59.3631 84.9313C58.2489 84.3669 57.0176 84.0728 55.7688 84.0728C54.52 84.0728 53.2887 84.3669 52.1745 84.9313L49.5718 86.4378C49.8878 87.0144 50.1915 87.5849 50.5819 88.1305L54.1452 86.0721C54.6477 85.8181 55.2028 85.6858 55.7657 85.6858C56.3287 85.6858 56.8837 85.8181 57.3862 86.0721L91.0298 105.49C91.3349 105.646 91.6726 105.727 92.0151 105.727C92.3576 105.727 92.6953 105.646 93.0004 105.49C93.1104 105.442 93.2039 105.362 93.2695 105.262C93.3352 105.161 93.3701 105.043 93.3701 104.923C93.3701 104.803 93.3352 104.685 93.2695 104.585C93.2039 104.484 93.1104 104.404 93.0004 104.356Z" fill="#C1F381"/>
<path d="M93.4032 104.963V57.645L58.1608 37.991L53.2342 37.6624L48.4687 40.7562L45.5437 43.2982L79.8813 97.7838L91.0917 104.393L93.4032 104.963Z" fill="#C1F381"/>
<path d="M80.371 110.94L90.9059 104.852V59.1268L80.0425 64.1736L80.371 110.94Z" fill="#D7FAAC"/>
<path d="M43.883 43.664V90.9018L80.8791 112.081L81.3749 111.883V64.5704L43.883 43.664Z" fill="#A9F944"/>
<path d="M64.6925 44.0546L57.3367 39.8324C56.8535 39.6253 56.3312 39.5259 55.8058 39.5408C55.2804 39.5558 54.7645 39.6849 54.2939 39.9192L47.4772 43.8624C46.9505 44.1724 46.7336 44.5878 46.8575 44.9846L65.4486 56.095L80.3772 65.2586L90.9059 59.1268L64.6925 44.0546Z" fill="white"/>
<path d="M80.0611 63.8512V112.689C80.3831 112.69 80.7004 112.611 80.9844 112.459C81.095 112.41 81.1909 112.332 81.2626 112.234C81.3343 112.136 81.3794 112.022 81.3934 111.901V111.901V64.5704L80.0611 63.8512Z" fill="#C1F381"/>
<path d="M93.4032 58.234V57.645H93.2173L93.1615 58.048L93.4032 58.234Z" fill="white"/>
<path d="M81.3749 65.1842V64.5828L81.189 64.837L81.3749 65.1842Z" fill="white"/>
<path d="M78.9951 65.1346L45.3578 45.7038C43.3809 44.563 43.3809 42.703 45.3578 41.5622L52.1745 37.619C53.287 37.0567 54.5161 36.7637 55.7625 36.7637C57.009 36.7637 58.238 37.0567 59.3506 37.619L93.0004 57.0312C93.1122 57.0789 93.2075 57.1583 93.2745 57.2598C93.3415 57.3612 93.3772 57.4801 93.3772 57.6016C93.3772 57.7232 93.3415 57.8421 93.2745 57.9435C93.2075 58.0449 93.1122 58.1244 93.0004 58.172C92.6952 58.3277 92.3576 58.4089 92.015 58.4089C91.6725 58.4089 91.3349 58.3277 91.0297 58.172L57.3985 38.7474C56.8969 38.4906 56.3415 38.3567 55.778 38.3567C55.2145 38.3567 54.6591 38.4906 54.1575 38.7474L47.3408 42.6844C46.4484 43.199 46.4484 44.0422 47.3408 44.5444L80.972 63.969C81.0838 64.0167 81.1791 64.0961 81.2461 64.1976C81.3131 64.299 81.3488 64.4179 81.3488 64.5394C81.3488 64.661 81.3131 64.7799 81.2461 64.8813C81.1791 64.9827 81.0838 65.0622 80.972 65.1098C80.6671 65.2675 80.3297 65.3519 79.9865 65.3562C79.6433 65.3605 79.3039 65.2846 78.9951 65.1346V65.1346Z" fill="#A9F944"/>
<path d="M70.2327 87.529L52.7571 77.4354V59.908L70.2327 70.0016V87.529Z" fill="white"/>
<path d="M93.0004 58.1844C92.6952 58.3401 92.3576 58.4213 92.015 58.4213C91.6725 58.4213 91.3349 58.3401 91.0297 58.1844L57.3985 38.7598C56.8969 38.503 56.3415 38.3691 55.778 38.3691C55.2145 38.3691 54.6591 38.503 54.1575 38.7598L47.3408 42.6968C46.7583 43.0378 46.56 43.5152 46.7211 43.9368C46.8535 43.6673 47.0714 43.4492 47.3408 43.3168L54.1575 39.3736C54.66 39.1197 55.2151 38.9874 55.778 38.9874C56.341 38.9874 56.8961 39.1197 57.3985 39.3736L91.0297 58.8044C91.3349 58.9601 91.6725 59.0413 92.015 59.0413C92.3576 59.0413 92.6952 58.9601 93.0004 58.8044C93.4094 58.5688 93.5085 58.2216 93.2978 57.924C93.2179 58.0306 93.1166 58.1193 93.0004 58.1844Z" fill="white"/>
<path d="M80.9659 65.1346C80.6599 65.2874 80.3226 65.367 79.9806 65.367C79.6385 65.367 79.3012 65.2874 78.9952 65.1346L45.3579 45.7038C45.0027 45.5335 44.689 45.2877 44.4385 44.9836C44.1881 44.6795 44.007 44.3244 43.9078 43.943C43.7466 44.7986 44.23 45.679 45.3579 46.33L78.989 65.7546C79.2942 65.9103 79.6318 65.9915 79.9743 65.9915C80.3169 65.9915 80.6545 65.9103 80.9597 65.7546C81.3749 65.519 81.474 65.1656 81.2571 64.8742C81.179 64.9802 81.0799 65.0688 80.9659 65.1346V65.1346Z" fill="white"/>
<path d="M29.4748 98.658C27.498 99.7988 27.498 101.659 29.4748 102.8L63.106 122.23C63.412 122.383 63.7493 122.463 64.0914 122.463C64.4334 122.463 64.7707 122.383 65.0767 122.23C65.1885 122.183 65.2838 122.103 65.3508 122.002C65.4178 121.9 65.4535 121.782 65.4535 121.66C65.4535 121.538 65.4178 121.42 65.3508 121.318C65.2838 121.217 65.1885 121.137 65.0767 121.09L31.4455 101.671C30.5531 101.157 30.5531 100.313 31.4455 99.8112L34.7051 97.9512C34.3457 97.4056 34.0172 96.8352 33.695 96.2586L29.4748 98.658Z" fill="#A08DFA"/>
<path d="M77.1113 114.139L43.4987 94.7148C42.3862 94.1525 41.1571 93.8595 39.9107 93.8595C38.6642 93.8595 37.4351 94.1525 36.3226 94.7148L33.7136 96.2214C34.0359 96.798 34.3643 97.3684 34.7238 97.914L38.287 95.8494C38.7895 95.5955 39.3446 95.4632 39.9076 95.4632C40.4705 95.4632 41.0256 95.5955 41.5281 95.8494L75.1407 115.311C75.4467 115.464 75.784 115.544 76.126 115.544C76.468 115.544 76.8053 115.464 77.1113 115.311C77.2331 115.269 77.3387 115.19 77.4134 115.085C77.4882 114.98 77.5283 114.854 77.5283 114.725C77.5283 114.596 77.4882 114.471 77.4134 114.366C77.3387 114.261 77.2331 114.182 77.1113 114.139Z" fill="#6045E4"/>
<path d="M77.5141 114.753L77.5203 67.4348L42.2717 47.7808L37.3451 47.4522L32.5796 50.5398L29.6546 53.088L63.9922 107.567L75.2026 114.183L77.5141 114.753Z" fill="#6045E4"/>
<path d="M64.4818 120.724L75.0167 114.642V68.9166L64.1534 73.9634L64.4818 120.724Z" fill="#79B1E0"/>
<path d="M27.9938 53.4538V100.692L64.9899 121.865L65.4857 121.666V74.3602L27.9938 53.4538Z" fill="#A08DFA"/>
<path d="M48.8034 53.8444L41.4475 49.5912C40.9639 49.3851 40.4413 49.2867 39.9159 49.3027C39.3905 49.3188 38.8749 49.449 38.4048 49.6842L31.5881 53.6274C31.3745 53.7186 31.1975 53.8785 31.0852 54.0818C30.9729 54.2852 30.9318 54.5202 30.9684 54.7496L49.5594 65.86L64.4446 75.0484L75.0167 68.9104L48.8034 53.8444Z" fill="white"/>
<path d="M64.1533 73.6162V122.46C64.4754 122.461 64.7927 122.382 65.0767 122.23C65.1866 122.18 65.2819 122.102 65.3534 122.004C65.425 121.907 65.4705 121.793 65.4857 121.672V74.3912L64.1533 73.6162Z" fill="#6045E4"/>
<path d="M77.5203 68.0238V67.4348H77.3282L77.2724 67.8378L77.5203 68.0238Z" fill="white"/>
<path d="M65.4857 74.974V74.3726L65.306 74.6268L65.4857 74.974Z" fill="white"/>
<path d="M63.1061 74.9244L29.4749 55.4936C27.4981 54.3528 27.4981 52.4928 29.4749 51.352L36.2917 47.4088C37.4032 46.8431 38.6326 46.5482 39.8797 46.5482C41.1268 46.5482 42.3563 46.8431 43.4678 47.4088L77.099 66.8334C77.2108 66.8811 77.3061 66.9606 77.3731 67.062C77.4401 67.1634 77.4758 67.2823 77.4758 67.4038C77.4758 67.5254 77.4401 67.6443 77.3731 67.7457C77.3061 67.8471 77.2108 67.9266 77.099 67.9742C76.793 68.1271 76.4557 68.2066 76.1137 68.2066C75.7717 68.2066 75.4343 68.1271 75.1283 67.9742L41.4971 48.5434C40.9947 48.2895 40.4396 48.1572 39.8766 48.1572C39.3137 48.1572 38.7586 48.2895 38.2561 48.5434L31.4394 52.4866C30.547 53.0012 30.547 53.8382 31.4394 54.3466L65.0768 73.7712C65.1886 73.8189 65.2839 73.8984 65.3509 73.9998C65.4179 74.1012 65.4536 74.2201 65.4536 74.3416C65.4536 74.4632 65.4179 74.5821 65.3509 74.6835C65.2839 74.7849 65.1886 74.8644 65.0768 74.912C64.7718 75.0668 64.4349 75.1485 64.0929 75.1506C63.7509 75.1528 63.4131 75.0753 63.1061 74.9244Z" fill="#A08DFA"/>
<path d="M54.3435 97.3189L36.8679 87.2191V69.6917L54.3435 79.7915V97.3189Z" fill="white"/>
<path d="M77.1113 67.9742C76.8053 68.1271 76.468 68.2066 76.126 68.2066C75.784 68.2066 75.4467 68.1271 75.1407 67.9742L41.5095 48.5434C41.007 48.2895 40.4519 48.1572 39.889 48.1572C39.326 48.1572 38.771 48.2895 38.2685 48.5434L31.4518 52.4866C30.8692 52.8276 30.6709 53.2988 30.8321 53.7266C30.9608 53.4545 31.1798 53.2354 31.4518 53.1066L38.2685 49.1634C38.771 48.9095 39.326 48.7772 39.889 48.7772C40.4519 48.7772 41.007 48.9095 41.5095 49.1634L75.1407 68.588C75.4458 68.7437 75.7835 68.8249 76.126 68.8249C76.4685 68.8249 76.8062 68.7437 77.1113 68.588C77.5203 68.3524 77.6195 67.968 77.4088 67.7076C77.3278 67.8149 77.2267 67.9054 77.1113 67.9742V67.9742Z" fill="white"/>
<path d="M65.0767 74.9245C64.7707 75.0773 64.4334 75.1568 64.0913 75.1568C63.7493 75.1568 63.412 75.0773 63.106 74.9245L29.4748 55.4936C29.1162 55.3255 28.7989 55.0806 28.5451 54.7764C28.2913 54.4722 28.1074 54.1159 28.0062 53.7328C27.8512 54.5822 28.3284 55.4688 29.4563 56.1198L63.0874 75.5445C63.3926 75.7001 63.7302 75.7813 64.0728 75.7813C64.4153 75.7813 64.7529 75.7001 65.0581 75.5445C65.4733 75.3089 65.5724 74.9245 65.3555 74.6641C65.2808 74.7685 65.186 74.857 65.0767 74.9245Z" fill="white"/>
<path opacity="0.5" d="M15.1163 174.62C15.8632 174.244 16.6877 174.048 17.5238 174.048C18.36 174.048 19.1845 174.244 19.9314 174.62L82.0564 210.518C83.3826 211.287 83.3826 212.533 82.0564 213.302C81.3093 213.681 80.4834 213.879 79.6458 213.879C78.8081 213.879 77.9822 213.681 77.2351 213.302L15.1163 177.404C13.7901 176.635 13.7901 175.389 15.1163 174.62Z" fill="#173D7A"/>
<path d="M4.50089 155.177C4.5305 155.129 4.57448 155.091 4.62669 155.069C4.67889 155.046 4.73674 155.041 4.79215 155.053L8.55371 155.865L7.07264 158.383L4.53186 155.493C4.49516 155.45 4.47253 155.397 4.467 155.34C4.46146 155.284 4.47328 155.227 4.50089 155.177V155.177Z" fill="#A08DFA"/>
<path d="M5.98202 157.037C5.99824 156.741 6.08487 156.454 6.23471 156.198C6.38454 155.943 6.59324 155.726 6.84342 155.568C6.92517 155.512 7.01901 155.477 7.11711 155.465C7.21521 155.453 7.31473 155.465 7.40735 155.5C11.7499 155.464 16.0208 156.608 19.7642 158.81L20.0369 158.972L15.3705 166.914L13.9886 166.002C11.0739 164.063 8.61656 161.511 6.78765 158.525L6.19892 157.564C6.12328 157.5 6.06411 157.419 6.02637 157.327C5.98863 157.235 5.97342 157.136 5.98202 157.037V157.037Z" fill="#6045E4"/>
<path d="M14.4346 164.8C14.5036 163.67 14.8381 162.572 15.4109 161.596C15.9838 160.62 16.7789 159.793 17.7314 159.182C19.541 158.153 20.9911 159.009 20.9725 161.086C20.9035 162.216 20.569 163.313 19.9962 164.289C19.4233 165.265 18.6282 166.092 17.6757 166.703C15.8661 167.726 14.416 166.877 14.4346 164.8Z" fill="#A08DFA"/>
<path d="M43.0711 184.181L15.3704 166.914L20.0368 158.972L48.5864 174.794L43.0711 184.181Z" fill="#A08DFA"/>
<path d="M41.9619 181.651C42.0453 180.317 42.4416 179.021 43.1188 177.868C43.796 176.716 44.7351 175.739 45.8598 175.017C47.9978 173.833 49.6958 174.831 49.6958 177.311C49.6127 178.647 49.2159 179.945 48.5375 181.098C47.8592 182.252 46.9184 183.23 45.7917 183.951C43.6599 185.142 41.9433 184.131 41.9619 181.651Z" fill="#A08DFA"/>
<path d="M43.5421 182.606C43.625 181.272 44.0211 179.975 44.6984 178.823C45.3756 177.67 46.3149 176.694 47.44 175.972C49.578 174.732 51.2946 175.767 51.276 178.223C51.1929 179.559 50.796 180.856 50.1177 182.01C49.4393 183.164 48.4986 184.141 47.3719 184.863C45.2401 186.072 43.4987 185.061 43.5421 182.606Z" fill="#A08DFA"/>
<path d="M50.1606 175.709L86.8086 197.264L81.2938 206.65L44.6458 185.095L50.1606 175.709Z" fill="#A08DFA"/>
<path d="M80.1913 204.157C80.2746 202.823 80.671 201.527 81.3482 200.374C82.0254 199.222 82.9644 198.245 84.0892 197.523C86.2271 196.283 87.9375 197.319 87.9189 199.774C87.837 201.109 87.4413 202.407 86.764 203.561C86.0867 204.714 85.1469 205.692 84.021 206.414C81.8892 207.623 80.1727 206.612 80.1913 204.157Z" fill="#A08DFA"/>
<path d="M81.5731 203.351C81.6865 202.526 81.9816 201.737 82.4371 201.04C82.8925 200.343 83.497 199.756 84.2069 199.321C85.5826 198.54 86.6237 199.086 86.5369 200.561C86.4265 201.387 86.1326 202.178 85.6769 202.875C85.2211 203.572 84.6151 204.159 83.9032 204.591C82.5399 205.366 81.4926 204.827 81.5731 203.351Z" fill="#396CAA"/>
<path d="M41.683 181.515C41.7661 180.179 42.1629 178.881 42.8413 177.728C43.5196 176.574 44.4603 175.596 45.5871 174.875C45.9213 174.656 46.2953 174.506 46.6878 174.432C47.0802 174.359 47.4832 174.364 47.8738 174.447C47.1797 173.728 46.0147 173.641 44.7753 174.372C43.6482 175.094 42.7072 176.071 42.0288 177.225C41.3504 178.379 40.9538 179.677 40.8712 181.013C40.8712 182.476 41.4909 183.424 42.4142 183.691C41.9011 183.086 41.6393 182.307 41.683 181.515Z" fill="white"/>
<path d="M41.6831 181.515C41.7662 180.179 42.163 178.881 42.8414 177.728C43.5197 176.574 44.4604 175.596 45.5872 174.875C46.6531 174.255 47.6136 174.224 48.3077 174.627L50.3837 175.867L49.3922 177.553C49.252 178.746 48.8656 179.898 48.2576 180.934C47.6496 181.97 46.8331 182.869 45.8599 183.573L44.8683 185.253L42.7923 184.013C42.0983 183.61 41.6769 182.742 41.6831 181.515Z" fill="#6045E4"/>
<path d="M43.7589 182.736C43.842 181.4 44.2389 180.103 44.9172 178.949C45.5956 177.795 46.5363 176.818 47.663 176.096C49.7948 174.856 51.5114 175.898 51.4928 178.353C51.4102 179.688 51.0135 180.985 50.3351 182.138C49.6566 183.291 48.7156 184.267 47.5887 184.987C45.4569 186.202 43.7403 185.191 43.7589 182.736Z" fill="#A08DFA"/>
<path d="M83.3021 204.467L85.6817 200.412L93.4466 204.982C93.983 205.299 94.3722 205.815 94.529 206.418C94.6858 207.021 94.5974 207.662 94.2832 208.2C93.9657 208.735 93.4491 209.123 92.8464 209.279C92.2437 209.435 91.6039 209.345 91.0669 209.03L83.3021 204.467Z" fill="#A9F944"/>
<path d="M82.8187 203.388C82.8551 202.812 83.0266 202.252 83.3195 201.755C83.6123 201.257 84.0182 200.836 84.5043 200.524C85.4277 199.997 86.1651 200.437 86.1589 201.491C86.1225 202.068 85.951 202.627 85.6581 203.125C85.3653 203.623 84.9594 204.044 84.4733 204.356C83.5562 204.883 82.8125 204.442 82.8187 203.388Z" fill="#A9F944"/>
<path d="M74.1863 189.091L75.3513 188.428C75.7512 188.249 76.1912 188.18 76.6267 188.227C77.0621 188.274 77.4773 188.435 77.8301 188.694L81.821 191.044C82.2156 191.309 82.5423 191.663 82.7748 192.078C83.0073 192.493 83.1391 192.956 83.1595 193.431V195.434C83.1803 195.804 83.3218 196.157 83.5623 196.438L83.4136 197.362L84.4113 196.792C84.4935 196.741 84.5598 196.668 84.6025 196.581C84.6452 196.495 84.6627 196.398 84.653 196.302V194.305C84.6035 193.316 84.3225 192.351 83.8328 191.49C83.3431 190.629 82.6583 189.894 81.8334 189.345L77.8363 187.002C76.504 186.214 75.246 186.078 74.2978 186.617L73.1328 187.281C72.7329 187.459 72.2928 187.529 71.8574 187.482C71.422 187.435 71.0068 187.274 70.654 187.014L54.5418 177.553C54.466 177.497 54.3762 177.462 54.2822 177.453C54.1882 177.445 54.0936 177.462 54.0088 177.503L53.0173 178.074L53.8663 178.402C53.9793 178.762 54.2137 179.071 54.5294 179.277L70.6416 188.744C72.0049 189.494 73.2443 189.631 74.1863 189.091Z" fill="#6045E4"/>
<path d="M74.3475 189.004C75.0167 188.626 75.8967 188.719 76.8263 189.271L80.8171 191.621C81.2136 191.885 81.5425 192.238 81.7772 192.653C82.0119 193.068 82.1458 193.532 82.1681 194.008V196.01C82.1794 196.269 82.2516 196.521 82.3787 196.746C82.5057 196.971 82.6841 197.163 82.8993 197.306C83.3083 197.548 83.643 197.356 83.6492 196.878V194.882C83.597 193.892 83.3143 192.928 82.8237 192.067C82.333 191.206 81.648 190.471 80.8233 189.922L76.8325 187.578C75.5001 186.791 74.2359 186.661 73.2878 187.2L72.1227 187.857C71.7228 188.036 71.2828 188.105 70.8474 188.059C70.412 188.012 69.9967 187.85 69.6439 187.591L53.5317 178.13C53.1227 177.888 52.7881 178.08 52.7881 178.551C52.799 178.811 52.8709 179.064 52.9979 179.29C53.125 179.516 53.3036 179.709 53.5193 179.853L69.6315 189.314C70.9639 190.096 72.2219 190.232 73.1762 189.693L74.3475 189.004Z" fill="#6045E4"/>
<path d="M82.23 194.343V196.339C82.23 196.339 82.23 196.339 82.23 196.376C82.1938 196.258 82.175 196.134 82.1743 196.01V194.008C82.1743 193.952 82.1743 193.896 82.1743 193.834C82.2138 194.001 82.2325 194.172 82.23 194.343Z" fill="white"/>
<path opacity="0.5" d="M96.1734 162.4C89.1949 162.4 83.5377 159.133 83.5377 155.103C83.5377 151.073 89.1949 147.805 96.1734 147.805C103.152 147.805 108.809 151.073 108.809 155.103C108.809 159.133 103.152 162.4 96.1734 162.4Z" fill="#173D7A"/>
<path d="M81.8025 148.859V144.823H82.5399C83.3867 143.465 84.5748 142.354 85.9854 141.599C91.5999 138.357 100.703 138.357 106.312 141.599C107.724 142.354 108.914 143.465 109.763 144.823H110.519V148.841C110.519 150.967 109.131 153.106 106.312 154.731C100.703 157.973 91.5999 157.973 85.9854 154.731C83.203 153.131 81.8025 150.986 81.8025 148.859Z" fill="#A9F944"/>
<path d="M96.1732 153.125C88.2364 153.125 81.8023 149.408 81.8023 144.823C81.8023 140.238 88.2364 136.521 96.1732 136.521C104.11 136.521 110.544 140.238 110.544 144.823C110.544 149.408 104.11 153.125 96.1732 153.125Z" fill="#A9F944"/>
<path d="M86.0102 150.695C91.6247 153.937 100.728 153.937 106.336 150.695C109.026 149.138 110.414 147.123 110.526 145.115C110.65 147.328 109.286 149.566 106.336 151.253C100.728 154.495 91.6247 154.495 86.0102 151.253C83.0914 149.566 81.6723 147.328 81.8272 145.121C81.9202 147.123 83.3207 149.138 86.0102 150.695Z" fill="white"/>
<path d="M103.102 147.551C103.207 147.507 103.298 147.434 103.365 147.341C103.432 147.248 103.471 147.138 103.48 147.024V141.612C103.48 141.202 102.897 140.868 102.184 140.868C101.472 140.868 100.895 141.202 100.895 141.618V146.1L87.8817 144.507C87.1815 144.42 86.4936 144.681 86.3449 145.084C86.1962 145.487 86.6485 145.883 87.3426 145.97L101.918 147.756C102.286 147.804 102.661 147.753 103.002 147.607L103.102 147.551Z" fill="white"/>
<path opacity="0.5" d="M170.457 102.905L181.134 96.736L170.457 90.567L159.779 96.736L170.457 102.905Z" fill="#173D7A"/>
<path d="M159.779 88.9054L170.457 95.0744V82.7364L159.779 76.5736V88.9054Z" fill="#C1F381"/>
<path d="M170.457 82.7364L181.134 76.5736L170.457 70.4046L159.779 76.5736L170.457 82.7364Z" fill="#A9F944"/>
<path d="M170.457 95.0744L181.134 88.9054V76.5736L170.457 82.7364V95.0744Z" fill="#A9F944"/>
<path d="M174.299 88.4094L177.286 86.6858V83.2324L174.299 84.956V88.4094Z" fill="white"/>
<path opacity="0.5" d="M236.883 213.494L248 207.071L236.883 200.654L225.765 207.071L236.883 213.494Z" fill="#173D7A"/>
<path d="M225.765 198.924L236.883 205.341V192.501L225.765 186.078V198.924Z" fill="#173D7A"/>
<path d="M236.883 192.501L248 186.078L236.883 179.661L225.765 186.078L236.883 192.501Z" fill="#A08DFA"/>
<path d="M236.883 205.341L248 198.924V186.078L236.883 192.501V205.341Z" fill="#6045E4"/>
<path d="M240.886 198.404L243.997 196.612V193.016L240.886 194.814V198.404Z" fill="white"/>
<path opacity="0.5" d="M196.453 198.509L237.88 174.583C238.093 174.46 238.269 174.283 238.391 174.071C238.514 173.858 238.578 173.617 238.578 173.371C238.578 173.126 238.514 172.884 238.391 172.672C238.269 172.459 238.093 172.282 237.88 172.159L198.486 149.411L154.425 174.868C154.213 174.991 154.036 175.167 153.914 175.379C153.791 175.591 153.727 175.832 153.727 176.077C153.727 176.323 153.791 176.564 153.914 176.776C154.036 176.988 154.213 177.164 154.425 177.286L191.161 198.509C191.965 198.975 192.878 199.22 193.807 199.22C194.736 199.22 195.649 198.975 196.453 198.509V198.509Z" fill="#173D7A"/>
<path d="M197.649 132.82C197.649 130.191 199.508 129.1 201.777 130.433L240.52 152.753C240.852 152.967 241.128 153.257 241.325 153.598C241.522 153.94 241.635 154.324 241.654 154.718C241.654 155.438 241.152 155.735 240.52 155.376L201.777 133.056C200.748 132.436 199.917 132.95 199.917 134.134V138.474C199.168 138.431 198.412 138.431 197.649 138.443V132.82Z" fill="#A9F944"/>
<path d="M240.564 163.181L201.82 149.058C200.616 148.274 199.614 147.217 198.894 145.972C198.175 144.728 197.759 143.332 197.68 141.897V138.431C198.443 138.431 199.199 138.431 199.948 138.462V143.211C199.983 143.858 200.169 144.487 200.492 145.049C200.815 145.61 201.266 146.087 201.807 146.441L240.533 160.571C240.865 160.784 241.143 161.074 241.341 161.416C241.539 161.757 241.653 162.142 241.673 162.537C241.673 163.25 241.183 163.541 240.564 163.181Z" fill="#C1F381"/>
<path d="M241.375 163.231L194.247 190.517L154.345 166.709L151.178 161.979L151.506 163.659L152.355 159.269L226.428 162.096L239.479 161.259L241.375 163.231Z" fill="#C1F381"/>
<path d="M239.814 154.997L239.826 160.801L194.278 187.169L193.045 181.639L239.814 154.997Z" fill="#D7FAAC"/>
<path d="M151.767 157.403L198.821 130.166L241.245 154.855L241.332 155.456L194.21 182.736L151.767 157.403Z" fill="#A9F944"/>
<path d="M166.763 171.39L155.702 164.824C155.215 164.461 154.814 163.995 154.527 163.459C154.24 162.924 154.074 162.331 154.041 161.724V160.856C154.009 160.589 154.065 160.319 154.2 160.086C154.336 159.854 154.543 159.671 154.791 159.567L176.555 171.731L194.291 181.298V187.169L166.763 171.39Z" fill="white"/>
<path d="M192.704 181.837L239.461 154.774L240.452 154.198L241.357 153.677C241.541 153.998 241.644 154.36 241.654 154.731C241.668 154.869 241.645 155.009 241.589 155.136C241.532 155.263 241.444 155.373 241.332 155.456V155.456L194.235 182.736L192.704 181.837Z" fill="#C1F381"/>
<path d="M194.836 190.176L194.247 190.517L194.136 190.331L194.501 190.04L194.836 190.176Z" fill="white"/>
<path d="M194.817 182.383L194.216 182.73L194.365 182.401L194.817 182.383Z" fill="white"/>
<path d="M193.398 180.039L154.655 157.719C152.374 156.405 150.521 157.477 150.521 160.112V160.98C150.6 162.414 151.015 163.809 151.733 165.052C152.451 166.295 153.452 167.351 154.655 168.135L193.398 190.455C194.018 190.821 194.532 190.523 194.532 189.798C194.512 189.408 194.399 189.029 194.204 188.69C194.01 188.352 193.738 188.065 193.411 187.851L154.667 165.531C154.125 165.178 153.675 164.702 153.352 164.142C153.029 163.582 152.842 162.953 152.808 162.307V161.439C152.808 160.249 153.644 159.765 154.667 160.36L193.411 182.68C194.03 183.04 194.545 182.749 194.545 182.023C194.525 181.625 194.41 181.238 194.211 180.893C194.012 180.548 193.733 180.255 193.398 180.039V180.039Z" fill="#A9F944"/>
<path d="M194.545 189.798C194.523 189.407 194.408 189.027 194.211 188.688C194.014 188.35 193.74 188.063 193.411 187.851L154.667 165.531C154.125 165.178 153.675 164.702 153.352 164.142C153.029 163.582 152.842 162.953 152.808 162.307V161.439C152.808 160.658 153.167 160.199 153.706 160.119C153.512 160.4 153.417 160.738 153.434 161.08V161.948C153.468 162.593 153.655 163.222 153.978 163.782C154.301 164.342 154.751 164.818 155.293 165.172L194.036 187.492C194.367 187.705 194.643 187.994 194.84 188.334C195.037 188.675 195.151 189.058 195.171 189.451C195.171 190.003 194.879 190.3 194.47 190.257C194.526 190.111 194.551 189.954 194.545 189.798V189.798Z" fill="white"/>
<path d="M194.532 182.005C194.511 181.611 194.397 181.228 194.2 180.886C194.003 180.545 193.728 180.255 193.398 180.039L154.654 157.719C154.279 157.463 153.852 157.291 153.404 157.216C152.956 157.141 152.496 157.165 152.058 157.285C152.82 156.665 153.973 156.616 155.274 157.36L194.018 179.68C194.348 179.897 194.623 180.188 194.819 180.53C195.016 180.873 195.13 181.257 195.152 181.651C195.152 182.203 194.861 182.501 194.445 182.457C194.507 182.314 194.536 182.16 194.532 182.005V182.005Z" fill="white"/>
<path d="M212.448 157.942L191.074 145.617L172.533 156.349L193.912 168.675L212.448 157.942Z" fill="white"/>
<path opacity="0.5" d="M159.587 217.537C151.029 222.497 137.154 222.497 128.602 217.537C120.05 212.577 120.044 204.579 128.602 199.637C137.16 194.696 151.035 194.677 159.587 199.637C168.139 204.597 168.145 212.595 159.587 217.537ZM151.215 204.473C147.28 202.204 140.903 202.204 136.962 204.473C133.021 206.743 133.027 210.432 136.962 212.701C140.897 214.97 147.274 214.976 151.215 212.701C155.156 210.425 155.144 206.749 151.215 204.473V204.473Z" fill="#173D7A"/>
<path d="M125.361 196.711L133.182 196.829C133.864 195.981 134.706 195.275 135.661 194.752C139.961 192.272 146.716 192.08 151.401 194.175L156.049 189.804L163.2 189.916C162.847 189.686 162.481 189.457 162.097 189.234C152.182 183.493 136.07 183.493 126.105 189.234C124.447 190.164 122.939 191.339 121.631 192.718L125.361 196.711Z" fill="#A9F944"/>
<path d="M163.188 178.557V189.916L156.036 189.804V178.446L163.188 178.557Z" fill="#A9F944"/>
<path d="M151.389 182.817V194.175L156.036 189.804V178.446L151.389 182.817Z" fill="#D7FAAC"/>
<path d="M133.182 185.477V196.829L143.463 188.471L151.389 194.175V182.817L144.088 179.277C144.088 179.277 134.043 182.377 133.516 182.482C132.99 182.587 133.182 185.477 133.182 185.477Z" fill="#A9F944"/>
<path d="M125.361 185.353V196.711L133.182 196.829V185.477L125.361 185.353Z" fill="#D7FAAC"/>
<path d="M121.618 181.366V192.718L125.361 196.711V185.353L121.618 181.366Z" fill="#A9F944"/>
<path d="M125.361 185.371L133.182 185.495C133.861 184.644 134.704 183.938 135.661 183.418C139.961 180.938 146.716 180.74 151.401 182.835L156.049 178.464L163.2 178.576C162.847 178.347 162.481 178.117 162.097 177.894C152.182 172.153 136.07 172.153 126.105 177.894C124.448 178.828 122.94 180.005 121.631 181.385L125.361 185.371Z" fill="#C1F381"/>
<path d="M153.743 184.218V194.671L160.511 193.053C160.511 193.053 160.114 186.94 159.971 186.779C159.829 186.617 153.743 184.218 153.743 184.218Z" fill="#6045E4"/>
<path d="M148.625 194.671V206.03L149.356 206.811L154.121 204.058C154.121 204.058 153.384 195.378 153.297 195.217C153.21 195.056 148.625 194.671 148.625 194.671Z" fill="#173D7A"/>
<path d="M157.834 191.726L153.744 195.57C157.152 198.267 156.749 202.074 152.504 204.504C151.281 205.194 149.963 205.701 148.594 206.011L152.82 210.518L149.071 214.046C153.635 213.596 158.061 212.229 162.085 210.029C170.63 205.069 171.826 197.523 165.679 191.844L157.834 191.726Z" fill="#396CAA"/>
<path d="M149.102 202.688V214.046L158.379 210.463L169.54 199.811L169.496 187.752L157.691 197.114L149.102 202.688Z" fill="#396CAA"/>
<path d="M157.834 180.368L153.744 184.218C157.152 186.915 156.749 190.716 152.504 193.152C151.279 193.837 149.962 194.342 148.594 194.653L152.82 199.16L149.071 202.688C153.635 202.237 158.061 200.871 162.085 198.67C170.63 193.71 171.826 186.165 165.679 180.486L157.834 180.368Z" fill="#A08DFA"/>
<path d="M149.077 210.463L145.359 206.488C141.901 206.699 138.313 206.042 135.661 204.504C133.008 202.967 131.794 200.784 132.271 198.707L123.397 198.571L119.982 194.932C117.001 200.059 119.034 205.943 126.105 210.029C131.298 213.029 138.177 214.455 144.981 214.319L149.077 210.463Z" fill="#396CAA"/>
<path d="M144.975 202.961V214.319L118.644 199.724V188.36L122.486 189.916L144.975 202.961Z" fill="#396CAA"/>
<path d="M149.077 199.104V210.463L144.975 214.319V202.961L149.077 199.104Z" fill="#173D7A"/>
<path d="M149.077 199.104L145.359 195.13C141.901 195.341 138.313 194.684 135.661 193.152C133.008 191.621 131.794 189.432 132.271 187.349L123.397 187.213L119.982 183.573C117.001 188.701 119.034 194.584 126.105 198.67C131.298 201.671 138.177 203.097 144.981 202.961L149.077 199.104Z" fill="#6045E4"/>
</svg>
