<svg width="280" height="714" viewBox="0 0 280 714" fill="none" xmlns="http://www.w3.org/2000/svg">
<path d="M45.1418 378.837L42.8792 378.681C42.8686 377.914 42.7946 377.15 42.6578 376.396L44.8502 375.808C44.9323 375.786 45.0094 375.749 45.0769 375.698C45.1445 375.647 45.2012 375.582 45.2439 375.509C45.2866 375.436 45.3143 375.355 45.3255 375.271C45.3367 375.187 45.3312 375.101 45.3092 375.019L45.0338 373.999C44.9895 373.834 44.8817 373.693 44.7341 373.607C44.5864 373.521 44.4108 373.497 44.2454 373.54L42.0584 374.128C41.7972 373.409 41.4775 372.712 41.1026 372.044L42.9818 370.775C43.0523 370.728 43.1128 370.667 43.1597 370.596C43.2066 370.526 43.239 370.446 43.2551 370.363C43.2711 370.279 43.2705 370.194 43.2533 370.111C43.2361 370.028 43.2025 369.949 43.1546 369.879L42.566 369.009C42.4697 368.868 42.3213 368.771 42.1534 368.738C41.9855 368.706 41.8116 368.741 41.6696 368.836L39.785 370.089C39.3047 369.494 38.7774 368.937 38.2082 368.426L39.5744 366.617C39.6781 366.48 39.7233 366.308 39.7 366.138C39.6767 365.968 39.5869 365.814 39.4502 365.71L38.6024 365.073C38.5348 365.022 38.4578 364.985 38.3758 364.964C38.2937 364.943 38.2084 364.938 38.1246 364.95C38.0408 364.962 37.9602 364.991 37.8874 365.034C37.8147 365.077 37.7512 365.134 37.7006 365.202L36.3344 367.011C35.6873 366.598 35.0084 366.237 34.304 365.931L35.0006 363.771C35.0275 363.69 35.0381 363.605 35.0317 363.52C35.0252 363.435 35.002 363.352 34.9633 363.277C34.9247 363.201 34.8713 363.133 34.8063 363.078C34.7413 363.023 34.666 362.982 34.5848 362.956L33.5804 362.626C33.4172 362.574 33.2396 362.588 33.0868 362.666C32.9339 362.744 32.8182 362.879 32.765 363.042L32.0684 365.202C31.4027 365.044 30.7257 364.937 30.0434 364.884V362.643C30.0434 362.558 30.0267 362.474 29.994 362.395C29.9614 362.317 29.9136 362.246 29.8533 362.186C29.7931 362.127 29.7216 362.079 29.643 362.047C29.5644 362.015 29.4803 361.999 29.3954 362H28.3424C28.2576 361.999 28.1735 362.015 28.0949 362.047C28.0163 362.079 27.9448 362.127 27.8846 362.186C27.8243 362.246 27.7765 362.317 27.7439 362.395C27.7112 362.474 27.6944 362.558 27.6944 362.643V364.916C26.9314 364.979 26.1748 365.104 25.4318 365.289L24.6974 363.129C24.6399 362.968 24.5218 362.836 24.3684 362.762C24.215 362.687 24.0385 362.675 23.8766 362.729L22.8722 363.075C22.7108 363.131 22.5782 363.249 22.5034 363.403C22.4285 363.556 22.4175 363.734 22.4726 363.895L23.2124 366.055C22.5126 366.36 21.839 366.721 21.1982 367.135L19.7996 365.348C19.696 365.214 19.5437 365.127 19.3759 365.104C19.208 365.082 19.0382 365.127 18.9032 365.229L18.0716 365.883C17.9366 365.988 17.8489 366.143 17.8277 366.313C17.8064 366.483 17.8534 366.654 17.9582 366.79L19.3568 368.577C18.7992 369.104 18.2863 369.677 17.8232 370.289L15.917 369.052C15.8462 369.006 15.7669 368.974 15.6837 368.959C15.6005 368.943 15.5151 368.944 15.4323 368.962C15.3495 368.979 15.271 369.013 15.2013 369.061C15.1316 369.109 15.072 369.17 15.026 369.241L14.4482 370.127C14.3545 370.271 14.3217 370.446 14.3572 370.614C14.3926 370.782 14.4934 370.93 14.6372 371.023L16.5164 372.249C16.1532 372.924 15.8479 373.629 15.6039 374.355L13.406 373.815C13.3238 373.794 13.2382 373.79 13.1541 373.802C13.0701 373.814 12.9894 373.843 12.9166 373.887C12.8438 373.931 12.7803 373.988 12.73 374.057C12.6796 374.125 12.6432 374.203 12.623 374.285L12.3639 375.311C12.323 375.477 12.3494 375.653 12.4374 375.799C12.5254 375.946 12.6678 376.052 12.8336 376.094L15.0368 376.634C14.9154 377.373 14.854 378.121 14.8532 378.87C14.8532 378.87 14.8532 378.902 14.8532 378.918L12.5906 379.113C12.4201 379.129 12.2628 379.212 12.1527 379.343C12.0426 379.474 11.9885 379.644 12.002 379.815L12.0939 380.895C12.1089 381.066 12.1914 381.224 12.323 381.334C12.4546 381.445 12.6247 381.498 12.7958 381.483L15.0584 381.283C15.1959 382.032 15.3982 382.768 15.6632 383.481L13.5896 384.405C13.4331 384.474 13.3105 384.603 13.2487 384.763C13.187 384.923 13.1911 385.101 13.2602 385.258L13.6922 386.224C13.762 386.381 13.8909 386.504 14.0508 386.565C14.2107 386.627 14.3886 386.623 14.5454 386.554L16.6136 385.63C16.9861 386.298 17.4104 386.935 17.8826 387.537L16.2032 389.086C16.1408 389.144 16.0904 389.213 16.055 389.291C16.0195 389.368 15.9998 389.451 15.9967 389.536C15.9937 389.621 16.0076 389.705 16.0374 389.785C16.0673 389.864 16.1127 389.937 16.1708 389.999L16.889 390.771C16.9471 390.834 17.0169 390.884 17.0945 390.92C17.1721 390.955 17.256 390.975 17.3413 390.978C17.4266 390.981 17.5117 390.967 17.5916 390.937C17.6715 390.907 17.7447 390.862 17.807 390.804L19.4432 389.259C20.0093 389.774 20.618 390.24 21.263 390.652L20.183 392.656C20.103 392.808 20.0865 392.985 20.1371 393.149C20.1877 393.313 20.3014 393.45 20.453 393.531L21.3872 394.027C21.4619 394.068 21.5438 394.093 21.6282 394.101C21.7125 394.109 21.7977 394.1 21.8787 394.075C21.9596 394.05 22.0348 394.009 22.0997 393.954C22.1646 393.9 22.2179 393.833 22.2566 393.757L23.3366 391.759C24.0362 392.058 24.7585 392.3 25.4966 392.483L25.1402 394.724C25.1153 394.894 25.1579 395.066 25.2589 395.204C25.3599 395.343 25.5112 395.436 25.6802 395.464L26.7224 395.631C26.8921 395.658 27.0654 395.616 27.2041 395.514C27.3428 395.413 27.4357 395.261 27.4622 395.091L27.8186 392.85C28.1588 392.85 28.499 392.888 28.8446 392.888C29.2712 392.888 29.6924 392.888 30.1082 392.829L30.5024 395.064C30.5155 395.149 30.5455 395.231 30.5904 395.304C30.6354 395.378 30.6946 395.441 30.7645 395.492C30.8343 395.542 30.9135 395.578 30.9974 395.597C31.0813 395.616 31.1682 395.619 31.253 395.604L32.2952 395.421C32.3801 395.408 32.4616 395.379 32.535 395.334C32.6083 395.29 32.672 395.231 32.7224 395.162C32.7727 395.092 32.8086 395.014 32.828 394.93C32.8474 394.847 32.8498 394.76 32.8352 394.675L32.441 392.445C33.1809 392.247 33.9033 391.989 34.601 391.673L35.681 393.66C35.7651 393.81 35.9049 393.92 36.0698 393.966C36.2348 394.013 36.4115 393.992 36.5612 393.909L37.4846 393.369C37.5589 393.328 37.6244 393.273 37.6774 393.207C37.7303 393.141 37.7697 393.065 37.7933 392.984C37.8169 392.903 37.8242 392.818 37.8148 392.733C37.8054 392.649 37.7794 392.568 37.7384 392.494L36.6584 390.512C37.2917 390.084 37.8895 389.605 38.4458 389.081L40.136 390.598C40.1986 390.656 40.2721 390.701 40.3523 390.73C40.4324 390.759 40.5175 390.771 40.6026 390.767C40.6877 390.762 40.771 390.741 40.8476 390.704C40.9242 390.666 40.9926 390.614 41.0486 390.55L41.756 389.767C41.8702 389.639 41.9291 389.471 41.92 389.3C41.9109 389.129 41.8345 388.969 41.7074 388.854L40.0334 387.369C40.4937 386.758 40.9054 386.112 41.2646 385.436L43.349 386.289C43.5066 386.356 43.6842 386.358 43.8431 386.294C44.0019 386.23 44.1291 386.106 44.1968 385.949L44.6126 384.972C44.6784 384.816 44.6808 384.641 44.6192 384.483C44.5577 384.326 44.4371 384.199 44.2832 384.129L42.1988 383.244C42.4422 382.519 42.6228 381.775 42.7388 381.019L45.0014 381.175C45.1725 381.187 45.3413 381.131 45.4709 381.019C45.6004 380.906 45.6802 380.747 45.6926 380.576L45.7628 379.496C45.7672 379.326 45.7044 379.162 45.588 379.039C45.4717 378.915 45.3113 378.843 45.1418 378.837ZM28.8716 386.743C27.3148 386.746 25.7921 386.287 24.4961 385.425C23.2001 384.562 22.1892 383.335 21.5912 381.897C20.9932 380.46 20.8351 378.877 21.1369 377.35C21.4386 375.823 22.1867 374.419 23.2863 373.317C24.386 372.215 25.7879 371.465 27.3145 371.16C28.8412 370.855 30.424 371.01 31.8626 371.605C33.3012 372.2 34.5309 373.208 35.3961 374.502C36.2614 375.796 36.7232 377.318 36.7232 378.875C36.7232 380.959 35.8965 382.958 34.4245 384.433C32.9526 385.908 30.9555 386.739 28.8716 386.743V386.743Z" stroke="#B2B2B2" stroke-width="0.973653" stroke-miterlimit="10"/>
<path d="M22.7369 407.038L21.2519 406.93C21.2418 406.43 21.1931 405.931 21.1061 405.439L22.5425 405.05C22.5986 405.036 22.6512 405.011 22.6972 404.975C22.7431 404.94 22.7814 404.896 22.8097 404.845C22.838 404.795 22.8557 404.739 22.8617 404.682C22.8678 404.624 22.862 404.566 22.8449 404.51L22.6613 403.841C22.6464 403.785 22.6205 403.733 22.585 403.688C22.5495 403.642 22.5051 403.605 22.4547 403.577C22.4042 403.549 22.3487 403.532 22.2914 403.526C22.2341 403.521 22.1762 403.527 22.1213 403.544L20.6903 403.927C20.518 403.456 20.3085 402.999 20.0639 402.561L21.2951 401.729C21.3884 401.667 21.4533 401.57 21.4756 401.46C21.4978 401.349 21.4756 401.235 21.4139 401.141L21.0251 400.568C20.9941 400.522 20.9542 400.482 20.9078 400.451C20.8613 400.421 20.8092 400.399 20.7545 400.389C20.6997 400.378 20.6434 400.379 20.5888 400.39C20.5342 400.401 20.4824 400.423 20.4365 400.455L19.1999 401.287C18.8867 400.899 18.5417 400.537 18.1685 400.207L19.0649 399.019C19.0986 398.974 19.1232 398.923 19.1371 398.869C19.151 398.815 19.1541 398.759 19.146 398.704C19.138 398.648 19.119 398.595 19.0903 398.547C19.0615 398.499 19.0235 398.458 18.9785 398.425L18.4385 398.009C18.3487 397.941 18.236 397.912 18.1248 397.927C18.0136 397.943 17.9129 398.001 17.8445 398.09L16.9589 399.299C16.5347 399.033 16.0905 398.8 15.6305 398.603L16.0895 397.193C16.1071 397.14 16.114 397.083 16.1097 397.027C16.1054 396.971 16.09 396.916 16.0643 396.866C16.0387 396.816 16.0034 396.771 15.9605 396.735C15.9175 396.698 15.8678 396.671 15.8141 396.653L15.1553 396.443C15.1022 396.423 15.0457 396.415 14.9893 396.418C14.9329 396.422 14.8777 396.436 14.8272 396.462C14.7766 396.487 14.7318 396.522 14.6954 396.565C14.6589 396.609 14.6317 396.659 14.6153 396.713L14.1509 398.128C13.7159 398.024 13.2736 397.953 12.8279 397.917V396.427C12.8286 396.371 12.8182 396.315 12.7973 396.264C12.7765 396.212 12.7456 396.165 12.7064 396.125C12.6672 396.086 12.6205 396.054 12.5691 396.033C12.5176 396.011 12.4624 396 12.4067 396H11.71C11.6543 396 11.5991 396.011 11.5476 396.033C11.4962 396.054 11.4495 396.086 11.4103 396.125C11.3711 396.165 11.3402 396.212 11.3194 396.264C11.2985 396.315 11.2881 396.371 11.2888 396.427V397.912C10.7882 397.954 10.2917 398.035 9.80385 398.155L9.32325 396.751C9.30508 396.698 9.27665 396.649 9.23959 396.608C9.20253 396.566 9.15758 396.532 9.10736 396.508C9.05713 396.484 9.00263 396.47 8.94699 396.467C8.89136 396.464 8.83571 396.473 8.78325 396.491L8.12986 396.718C8.07671 396.736 8.02761 396.764 7.98543 396.801C7.94325 396.838 7.90883 396.882 7.8842 396.933C7.85956 396.983 7.8452 397.038 7.84194 397.094C7.83869 397.149 7.84661 397.205 7.86525 397.258L8.35124 398.662C7.8924 398.867 7.45009 399.107 7.02825 399.38L6.12644 398.219C6.09219 398.176 6.04961 398.139 6.00115 398.112C5.95268 398.084 5.89929 398.067 5.84407 398.061C5.78884 398.054 5.73289 398.059 5.6794 398.074C5.62592 398.089 5.57597 398.115 5.53245 398.149L4.99245 398.576C4.94824 398.61 4.91117 398.652 4.88341 398.7C4.85565 398.748 4.83774 398.802 4.83071 398.857C4.82368 398.912 4.82767 398.968 4.84246 399.022C4.85724 399.076 4.88253 399.126 4.91685 399.17L5.83485 400.342C5.46851 400.674 5.12905 401.035 4.81965 401.422L3.57225 400.612C3.47763 400.55 3.36262 400.529 3.25233 400.552C3.14205 400.576 3.04545 400.642 2.98365 400.736L2.60564 401.319C2.5757 401.366 2.55529 401.418 2.54559 401.473C2.5359 401.527 2.53711 401.583 2.54915 401.638C2.5612 401.692 2.58384 401.743 2.61578 401.788C2.64771 401.834 2.68831 401.873 2.73524 401.902L3.97725 402.712C3.74357 403.156 3.5432 403.616 3.37784 404.089L1.93605 403.733C1.8804 403.715 1.82161 403.709 1.76346 403.715C1.7053 403.721 1.64905 403.739 1.59825 403.768C1.54746 403.797 1.50324 403.836 1.46843 403.883C1.43361 403.93 1.40897 403.984 1.39605 404.041L1.25024 404.699C1.23209 404.754 1.22531 404.812 1.23031 404.869C1.23531 404.926 1.25199 404.982 1.27931 405.032C1.30662 405.083 1.34401 405.127 1.38916 405.163C1.43431 405.199 1.48627 405.225 1.54184 405.239L2.98365 405.601C2.90729 406.087 2.86936 406.578 2.87024 407.07V407.097L1.38524 407.227C1.32984 407.231 1.27593 407.247 1.22662 407.273C1.17731 407.298 1.13358 407.334 1.09793 407.376C1.06229 407.419 1.03546 407.468 1.01896 407.521C1.00247 407.574 0.996648 407.63 1.00184 407.686L1.06123 408.377C1.06598 408.432 1.08166 408.486 1.10734 408.535C1.13303 408.585 1.16821 408.628 1.21088 408.664C1.25355 408.7 1.30286 408.727 1.35595 408.743C1.40905 408.76 1.46488 408.765 1.52024 408.76L3.00524 408.631C3.08987 409.126 3.21448 409.613 3.37784 410.089L2.02245 410.693C1.923 410.737 1.8447 410.818 1.80433 410.919C1.76395 411.02 1.7647 411.133 1.80644 411.233L2.08725 411.865C2.13222 411.964 2.21341 412.041 2.31397 412.081C2.41453 412.122 2.52673 412.122 2.62725 412.081L3.98264 411.476C4.22571 411.916 4.50381 412.335 4.81424 412.729L3.73424 413.744C3.6567 413.825 3.61338 413.932 3.61338 414.044C3.61338 414.156 3.6567 414.263 3.73424 414.344L4.20945 414.851C4.28929 414.93 4.39695 414.974 4.50914 414.974C4.62133 414.974 4.729 414.93 4.80884 414.851L5.88884 413.842C6.26276 414.176 6.66174 414.481 7.08225 414.754L6.40185 416.093C6.3754 416.142 6.35888 416.196 6.35325 416.251C6.34762 416.307 6.35301 416.362 6.36907 416.416C6.38513 416.469 6.41157 416.518 6.44685 416.561C6.48214 416.604 6.52557 416.64 6.57465 416.666L7.18486 416.99C7.23374 417.016 7.28737 417.033 7.34266 417.038C7.39796 417.044 7.45382 417.039 7.50703 417.023C7.56024 417.007 7.60975 416.98 7.65269 416.945C7.69564 416.91 7.73117 416.866 7.75726 416.817L8.45925 415.505C8.91762 415.705 9.3929 415.864 9.87945 415.98L9.64726 417.449C9.63164 417.56 9.66014 417.673 9.72671 417.764C9.79327 417.855 9.89265 417.916 10.0037 417.935L10.684 418.043C10.7949 418.06 10.9081 418.033 10.9991 417.967C11.0901 417.901 11.1515 417.802 11.17 417.692L11.4023 416.218C11.6237 416.218 11.8505 416.218 12.0719 416.218C12.2933 416.218 12.6119 416.218 12.9035 416.18L13.1627 417.643C13.1718 417.698 13.1918 417.751 13.2215 417.799C13.2513 417.846 13.2902 417.887 13.3359 417.919C13.3817 417.951 13.4334 417.974 13.488 417.986C13.5426 417.998 13.599 417.999 13.6541 417.989L14.3345 417.87C14.4452 417.85 14.5437 417.787 14.6084 417.695C14.6732 417.603 14.6989 417.49 14.6801 417.379L14.4209 415.915C14.9057 415.788 15.3789 415.62 15.8357 415.413L16.5593 416.714C16.5857 416.763 16.6217 416.806 16.665 416.841C16.7083 416.875 16.758 416.901 16.8113 416.916C16.8647 416.931 16.9205 416.935 16.9755 416.929C17.0305 416.922 17.0836 416.904 17.1317 416.876L17.7419 416.579C17.8395 416.524 17.9113 416.432 17.9416 416.324C17.972 416.216 17.9584 416.1 17.9039 416.002L17.1857 414.706C17.602 414.426 17.9939 414.112 18.3575 413.766L19.4645 414.765C19.5485 414.84 19.6586 414.878 19.7708 414.872C19.8831 414.866 19.9884 414.816 20.0639 414.733L20.5283 414.193C20.6029 414.109 20.6414 413.998 20.6353 413.886C20.6293 413.774 20.5791 413.669 20.4959 413.593L19.4159 412.6C19.7183 412.198 19.9891 411.774 20.2259 411.331L21.5921 411.914C21.694 411.952 21.8067 411.95 21.9071 411.908C22.0075 411.866 22.088 411.787 22.1321 411.687L22.4021 411.05C22.4407 410.949 22.4393 410.836 22.3982 410.736C22.357 410.636 22.2793 410.555 22.1807 410.51L20.8091 409.932C20.9672 409.455 21.0846 408.965 21.1601 408.469L22.6451 408.571C22.7004 408.575 22.7559 408.568 22.8084 408.55C22.8609 408.532 22.9094 408.504 22.9511 408.467C22.9927 408.431 23.0267 408.386 23.0511 408.336C23.0755 408.286 23.0898 408.232 23.0933 408.177L23.1419 407.486C23.1463 407.429 23.1392 407.373 23.1209 407.319C23.1027 407.266 23.0738 407.216 23.0359 407.175C22.9979 407.133 22.9519 407.099 22.9005 407.075C22.8491 407.052 22.7934 407.039 22.7369 407.038ZM12.0665 412.216C11.0463 412.216 10.049 411.914 9.20081 411.347C8.35263 410.78 7.69164 409.974 7.30148 409.031C6.91132 408.089 6.80951 407.052 7.00894 406.051C7.20836 405.051 7.70005 404.132 8.42181 403.411C9.14357 402.69 10.063 402.199 11.0637 402.001C12.0644 401.802 13.1015 401.905 14.0437 402.296C14.9859 402.687 15.791 403.349 16.357 404.198C16.923 405.047 17.2245 406.044 17.2235 407.065C17.2235 407.742 17.09 408.412 16.8308 409.037C16.5716 409.663 16.1916 410.231 15.7127 410.709C15.2337 411.188 14.6652 411.567 14.0395 411.826C13.4139 412.084 12.7434 412.217 12.0665 412.216Z" stroke="#B2B2B2" stroke-width="0.973653" stroke-miterlimit="10"/>
<path d="M269.919 519.906H263.623V518.189C263.623 518.164 263.618 518.14 263.608 518.117C263.599 518.094 263.585 518.073 263.567 518.055C263.55 518.038 263.529 518.024 263.506 518.014C263.483 518.005 263.459 518 263.434 518H256.56C256.535 518 256.51 518.005 256.487 518.014C256.464 518.024 256.443 518.038 256.426 518.055C256.408 518.073 256.394 518.094 256.385 518.117C256.375 518.14 256.371 518.164 256.371 518.189V519.906H254.394C254.291 519.906 254.191 519.947 254.117 520.02C254.044 520.093 254.001 520.191 254 520.295V529.966H270.308V520.306C270.309 520.254 270.3 520.202 270.282 520.154C270.263 520.105 270.234 520.061 270.198 520.024C270.162 519.987 270.118 519.957 270.071 519.937C270.023 519.917 269.971 519.906 269.919 519.906V519.906Z" stroke="#B2B2B2" stroke-width="0.973653" stroke-miterlimit="10"/>
<path d="M269.919 503.906H263.623V502.189C263.623 502.164 263.618 502.14 263.608 502.117C263.599 502.094 263.585 502.073 263.567 502.055C263.55 502.038 263.529 502.024 263.506 502.014C263.483 502.005 263.459 502 263.434 502H256.56C256.535 502 256.51 502.005 256.487 502.014C256.464 502.024 256.443 502.038 256.426 502.055C256.408 502.073 256.394 502.094 256.385 502.117C256.375 502.14 256.371 502.164 256.371 502.189V503.906H254.394C254.291 503.906 254.191 503.947 254.117 504.02C254.044 504.093 254.001 504.191 254 504.295V513.966H270.308V504.306C270.309 504.254 270.3 504.202 270.282 504.154C270.263 504.105 270.234 504.061 270.198 504.024C270.162 503.987 270.118 503.957 270.071 503.937C270.023 503.917 269.971 503.906 269.919 503.906V503.906Z" stroke="#B2B2B2" stroke-width="0.973653" stroke-miterlimit="10"/>
<path d="M74.2844 189.261H30.62C30.1903 189.261 29.7783 189.091 29.4745 188.787C29.1707 188.483 29 188.071 29 187.641C29 187.212 29.1707 186.8 29.4745 186.496C29.7783 186.192 30.1903 186.021 30.62 186.021H74.2844C74.714 186.021 75.1261 186.192 75.4299 186.496C75.7337 186.8 75.9044 187.212 75.9044 187.641V187.641C75.9044 188.071 75.7337 188.483 75.4299 188.787C75.1261 189.091 74.714 189.261 74.2844 189.261V189.261Z" stroke="#B2B2B2" stroke-width="0.973653" stroke-miterlimit="10"/>
<path d="M48.3643 189.294C49.2739 189.294 50.0113 188.557 50.0113 187.647C50.0113 186.737 49.2739 186 48.3643 186C47.4547 186 46.7173 186.737 46.7173 187.647C46.7173 188.557 47.4547 189.294 48.3643 189.294Z" stroke="#B2B2B2" stroke-width="0.973653" stroke-miterlimit="10"/>
<path d="M74.2844 195.267H30.62C30.1903 195.267 29.7783 195.096 29.4745 194.793C29.1707 194.489 29 194.077 29 193.647C29 193.217 29.1707 192.805 29.4745 192.502C29.7783 192.198 30.1903 192.027 30.62 192.027H74.2844C74.714 192.027 75.1261 192.198 75.4299 192.502C75.7337 192.805 75.9044 193.217 75.9044 193.647C75.9044 194.077 75.7337 194.489 75.4299 194.793C75.1261 195.096 74.714 195.267 74.2844 195.267Z" stroke="#B2B2B2" stroke-width="0.973653" stroke-miterlimit="10"/>
<path d="M68.8032 195.294C69.7129 195.294 70.4502 194.557 70.4502 193.647C70.4502 192.737 69.7129 192 68.8032 192C67.8936 192 67.1562 192.737 67.1562 193.647C67.1562 194.557 67.8936 195.294 68.8032 195.294Z" stroke="#B2B2B2" stroke-width="0.973653" stroke-miterlimit="10"/>
<path d="M218.562 198.477C218.579 196.587 219.062 194.73 219.969 193.066C220.877 191.403 222.181 189.984 223.769 188.934C225.357 187.883 227.181 187.232 229.081 187.038C230.981 186.844 232.9 187.112 234.672 187.819C235.971 185.22 238.051 183.082 240.626 181.699C243.202 180.317 246.147 179.757 249.057 180.097C251.967 180.437 254.699 181.66 256.879 183.598C259.058 185.536 260.578 188.094 261.229 190.922C264.455 191.026 267.506 192.395 269.713 194.726C271.919 197.057 273.099 200.16 272.993 203.352C272.888 206.544 271.505 209.564 269.149 211.747C266.793 213.93 263.657 215.098 260.431 214.994H221.637C219.617 214.992 217.661 214.291 216.109 213.011C214.558 211.731 213.508 209.954 213.143 207.988C212.777 206.022 213.119 203.992 214.109 202.25C215.099 200.507 216.675 199.163 218.562 198.451V198.477Z" fill="#E8E4E4"/>
<path d="M36 17.9654V13.0394L33.463 12.8028C33.1225 11.1796 32.4799 9.63474 31.5687 8.24863L33.1972 6.28306L29.713 2.80106L27.7462 4.42857C26.3614 3.51822 24.8169 2.87755 23.1941 2.54027L22.9525 0H18.0234L17.7866 2.54027C16.1632 2.87587 14.6185 3.51667 13.2345 4.42857L11.2628 2.80106L7.77864 6.28306L9.40717 8.25346C8.5048 9.63978 7.87046 11.1829 7.53702 12.8028L5 13.0394V17.9654L7.53702 18.2021C7.87018 19.819 8.50459 21.359 9.40717 22.7417L7.77864 24.7218L11.2628 28.2038L13.2345 26.5763C14.6195 27.4862 16.1639 28.1268 17.7866 28.4646L18.0234 31H22.9525L23.1941 28.4646C24.8162 28.1251 26.3603 27.4846 27.7462 26.5763L29.713 28.2038L33.1972 24.7218L31.5687 22.7417C32.4808 21.3578 33.1234 19.8144 33.463 18.1924L36 17.9654ZM20.4879 22.1718C19.1682 22.1718 17.8781 21.7808 16.7808 21.0482C15.6834 20.3155 14.828 19.2742 14.3228 18.0558C13.8176 16.8374 13.6851 15.4967 13.9422 14.203C14.1993 12.9094 14.8344 11.7211 15.7673 10.7881C16.7001 9.8552 17.8888 9.21962 19.183 8.96173C20.4772 8.70385 21.8189 8.83523 23.0384 9.33929C24.258 9.84334 25.3006 10.6974 26.0344 11.7936C26.7683 12.8897 27.1605 14.1787 27.1615 15.4976C27.1621 16.3738 26.99 17.2416 26.6549 18.0513C26.3198 18.8611 25.8283 19.5969 25.2086 20.2167C24.5888 20.8365 23.8529 21.3282 23.0429 21.6637C22.2329 21.9992 21.3647 22.1718 20.4879 22.1718Z" fill="#E0E0E0"/>
<path d="M273.662 26.5992C273.536 26.6821 273.388 26.7256 273.238 26.7239H267.833L273.772 25.4325C273.88 25.5374 273.954 25.6721 273.984 25.8194C274.015 25.9666 274 26.1196 273.943 26.2586C273.886 26.3976 273.788 26.5162 273.662 26.5992ZM273.662 26.5992L273.387 26.1818C273.344 26.2098 273.294 26.2245 273.243 26.224V26.2239H273.238L267.833 26.2239L267.831 26.2239C267.501 26.2253 267.185 26.3565 266.952 26.5893C266.719 26.8221 266.587 27.1378 266.585 27.4676V27.4697V63.5M273.662 26.5992L273.387 26.1818C273.429 26.1538 273.462 26.114 273.481 26.0675C273.5 26.0211 273.505 25.97 273.495 25.9209C273.485 25.8717 273.46 25.8266 273.424 25.7914L273.419 25.7867L273.419 25.7866L263.175 15.5749L263.174 15.5739C263.151 15.5505 263.123 15.532 263.093 15.5193C263.062 15.5066 263.029 15.5 262.996 15.5C262.963 15.5 262.93 15.5066 262.899 15.5193C262.869 15.532 262.841 15.5505 262.818 15.5739L262.817 15.5749L252.572 25.791M266.585 63.5L252.573 25.7899C252.573 25.7903 252.573 25.7907 252.572 25.791M266.585 63.5H259.41L259.41 27.4697L259.41 27.4676C259.409 27.3034 259.376 27.1409 259.313 26.9896L258.852 27.1833L259.313 26.9896C259.249 26.8382 259.156 26.7009 259.039 26.5855L258.688 26.941L259.039 26.5855C258.923 26.4701 258.784 26.3788 258.633 26.3168C258.481 26.2549 258.319 26.2234 258.155 26.2239M266.585 63.5L252.572 25.791M252.572 25.791C252.538 25.8267 252.514 25.8715 252.505 25.92C252.495 25.969 252.5 26.0197 252.519 26.0659C252.539 26.1121 252.571 26.1519 252.613 26.18L252.334 26.595L252.613 26.18C252.655 26.2079 252.703 26.2232 252.754 26.2239H258.155M258.155 26.2239H258.156V26.7239L258.154 26.2239C258.154 26.2239 258.155 26.2239 258.155 26.2239Z" stroke="#E0E0E0"/>
<path d="M2.85721 620.152H9.00583C9.23158 620.152 9.44821 620.239 9.60859 620.395C9.76898 620.552 9.86015 620.764 9.86228 620.986V714H19.1458V620.986C19.1479 620.764 19.2391 620.552 19.3995 620.395C19.5599 620.239 19.7765 620.152 20.0023 620.152H26.1428C26.3123 620.152 26.478 620.102 26.619 620.01C26.76 619.917 26.8699 619.786 26.9348 619.632C26.9996 619.478 27.0166 619.308 26.9835 619.145C26.9504 618.981 26.8687 618.831 26.7488 618.714L15.106 607.265C15.0302 607.181 14.9374 607.115 14.8337 607.069C14.73 607.024 14.6176 607 14.504 607C14.3904 607 14.2781 607.024 14.1744 607.069C14.0707 607.115 13.9779 607.181 13.9021 607.265L2.25123 618.714C2.1313 618.831 2.0496 618.981 2.0165 619.145C1.98339 619.308 2.00036 619.478 2.06524 619.632C2.13013 619.786 2.24001 619.917 2.38099 620.01C2.52197 620.102 2.68771 620.152 2.85721 620.152Z" fill="#EBEBEB"/>
<path d="M279.862 650.686L242.672 652.902L240 602.061L267.612 600.417L277.701 609.535L279.862 650.686Z" fill="#EBEBEB"/>
<path d="M267.612 600.417L277.701 609.535L268.123 610.106L267.612 600.417Z" fill="#BFC2C8"/>
<path d="M244.154 611.67L264.828 610.439L264.759 609.135L244.085 610.366L244.154 611.67Z" fill="#BFC2C8"/>
<path d="M244.324 614.968L264.998 613.737L264.93 612.433L244.256 613.664L244.324 614.968Z" fill="#BFC2C8"/>
<path d="M244.506 618.26L265.18 617.029L265.112 615.724L244.438 616.955L244.506 618.26Z" fill="#BFC2C8"/>
<path d="M244.676 621.553L274.968 619.75L274.9 618.445L244.607 620.249L244.676 621.553Z" fill="#BFC2C8"/>
<path d="M244.846 624.845L275.138 623.042L275.07 621.737L244.777 623.541L244.846 624.845Z" fill="#BFC2C8"/>
<path d="M245.015 628.144L275.308 626.34L275.239 625.035L244.946 626.839L245.015 628.144Z" fill="#BFC2C8"/>
<path d="M245.198 631.441L275.491 629.637L275.422 628.333L245.13 630.137L245.198 631.441Z" fill="#BFC2C8"/>
<path d="M245.368 634.733L275.661 632.929L275.592 631.625L245.3 633.429L245.368 634.733Z" fill="#BFC2C8"/>
<path d="M245.538 638.032L275.831 636.228L275.762 634.923L245.469 636.727L245.538 638.032Z" fill="#BFC2C8"/>
<path d="M245.715 641.323L276.007 639.519L275.939 638.215L245.646 640.018L245.715 641.323Z" fill="#BFC2C8"/>
<path d="M245.885 644.615L276.177 642.812L276.109 641.507L245.816 643.311L245.885 644.615Z" fill="#BFC2C8"/>
<path d="M246.06 647.913L276.353 646.109L276.285 644.805L245.992 646.608L246.06 647.913Z" fill="#BFC2C8"/>
</svg>
